<svg id="svg" version="1.1" width="500" height="500" xmlns="http://www.w3.org/2000/svg" xmlns:xlink="http://www.w3.org/1999/xlink" style="display: block;"><g id="svgg"><path id="path0" d="M189.200 35.110 C 188.320 35.470,184.023 35.992,179.652 36.270 C 175.280 36.549,171.338 37.142,170.892 37.588 C 170.445 38.035,168.241 38.400,165.993 38.400 C 163.638 38.400,161.248 38.898,160.353 39.575 C 159.499 40.221,157.540 40.772,156.000 40.800 C 154.460 40.828,152.501 41.379,151.647 42.025 C 150.793 42.671,149.292 43.200,148.312 43.200 C 147.332 43.200,145.510 43.707,144.265 44.326 C 143.019 44.945,140.920 45.879,139.600 46.400 C 138.280 46.921,136.181 47.855,134.935 48.474 C 133.690 49.093,132.134 49.600,131.478 49.600 C 130.822 49.600,129.746 50.140,129.086 50.800 C 128.426 51.460,127.191 52.000,126.343 52.000 C 125.494 52.000,124.800 52.336,124.800 52.746 C 124.800 53.156,124.011 53.743,123.046 54.049 C 122.082 54.355,119.015 55.999,116.232 57.703 C 113.449 59.406,110.848 60.800,110.453 60.800 C 110.057 60.800,109.613 61.070,109.467 61.400 C 109.320 61.730,107.400 63.249,105.200 64.776 C 103.000 66.303,100.840 67.840,100.400 68.191 C 99.960 68.542,98.700 69.549,97.600 70.428 C 91.144 75.589,76.000 89.945,76.000 90.904 C 76.000 91.134,74.920 92.403,73.600 93.723 C 72.280 95.043,71.200 96.369,71.200 96.670 C 71.200 96.970,70.379 98.113,69.375 99.208 C 68.372 100.304,66.302 103.000,64.775 105.200 C 63.249 107.400,61.730 109.320,61.400 109.467 C 61.070 109.613,60.800 110.057,60.800 110.453 C 60.800 110.848,59.406 113.449,57.703 116.232 C 55.999 119.015,54.355 122.082,54.049 123.046 C 53.743 124.011,53.156 124.800,52.746 124.800 C 52.336 124.800,52.000 125.494,52.000 126.343 C 52.000 127.191,51.460 128.426,50.800 129.086 C 50.140 129.746,49.600 130.822,49.600 131.478 C 49.600 132.134,49.093 133.690,48.474 134.935 C 47.855 136.181,46.921 138.280,46.400 139.600 C 45.879 140.920,44.945 143.019,44.326 144.265 C 43.707 145.510,43.200 147.332,43.200 148.312 C 43.200 149.292,42.671 150.793,42.025 151.647 C 41.379 152.501,40.828 154.460,40.800 156.000 C 40.772 157.540,40.221 159.499,39.575 160.353 C 38.929 161.207,38.400 163.481,38.400 165.405 C 38.400 167.330,38.048 169.563,37.618 170.367 C 34.369 176.437,34.330 223.491,37.569 229.542 C 38.026 230.396,38.400 232.670,38.400 234.595 C 38.400 236.519,38.929 238.793,39.575 239.647 C 40.221 240.501,40.772 242.460,40.800 244.000 C 40.828 245.540,41.379 247.499,42.025 248.353 C 42.671 249.207,43.200 250.708,43.200 251.688 C 43.200 252.668,43.707 254.490,44.326 255.735 C 44.945 256.981,45.879 259.080,46.400 260.400 C 46.921 261.720,47.855 263.819,48.474 265.065 C 49.093 266.310,49.600 267.976,49.600 268.767 C 49.600 269.557,50.140 270.652,50.800 271.200 C 51.460 271.748,52.000 272.872,52.000 273.698 C 52.000 274.524,52.325 275.200,52.722 275.200 C 53.119 275.200,53.824 276.190,54.290 277.400 C 54.756 278.610,56.226 281.400,57.558 283.600 C 58.889 285.800,60.227 288.140,60.531 288.800 C 60.835 289.460,61.290 290.180,61.542 290.400 C 61.794 290.620,63.236 292.600,64.747 294.800 C 66.258 297.000,68.418 299.921,69.547 301.291 C 70.676 302.662,72.500 304.945,73.600 306.365 C 75.902 309.337,90.251 324.000,90.857 324.000 C 91.080 324.000,92.760 325.440,94.592 327.200 C 96.424 328.960,98.154 330.400,98.437 330.400 C 98.720 330.400,99.997 331.314,101.276 332.431 C 102.554 333.549,104.860 335.240,106.400 336.189 C 107.940 337.139,109.380 338.141,109.600 338.416 C 109.820 338.691,110.540 339.164,111.200 339.467 C 111.860 339.770,113.480 340.726,114.800 341.592 C 116.120 342.458,118.910 343.961,121.000 344.933 C 123.090 345.905,124.800 346.992,124.800 347.350 C 124.800 347.707,125.476 348.000,126.302 348.000 C 127.128 348.000,128.252 348.540,128.800 349.200 C 129.348 349.860,130.403 350.400,131.145 350.400 C 131.887 350.400,133.193 350.929,134.047 351.575 C 134.901 352.221,136.201 352.761,136.935 352.775 C 137.670 352.789,139.470 353.401,140.935 354.135 C 145.838 356.592,146.371 356.800,147.789 356.805 C 148.565 356.808,150.231 357.348,151.491 358.005 C 152.752 358.662,154.753 359.200,155.939 359.200 C 157.124 359.200,158.793 359.729,159.647 360.375 C 160.520 361.035,162.962 361.560,165.222 361.575 C 167.434 361.589,169.954 362.096,170.822 362.703 C 175.067 365.671,224.924 365.685,229.158 362.719 C 230.037 362.104,232.566 361.589,234.778 361.575 C 237.038 361.560,239.480 361.035,240.353 360.375 C 241.207 359.729,243.277 359.200,244.953 359.200 C 246.629 359.200,248.000 358.844,248.000 358.409 C 248.000 357.975,249.448 357.387,251.218 357.104 C 252.987 356.821,254.629 356.277,254.865 355.895 C 255.101 355.513,255.903 355.198,256.647 355.195 C 257.391 355.192,259.031 354.652,260.291 353.995 C 261.552 353.338,263.218 352.800,263.993 352.800 C 264.769 352.800,265.852 352.260,266.400 351.600 C 266.948 350.940,268.028 350.400,268.800 350.400 C 269.572 350.400,270.652 349.860,271.200 349.200 C 271.748 348.540,272.872 348.000,273.698 348.000 C 274.524 348.000,275.204 347.730,275.208 347.400 C 275.213 347.070,277.193 345.921,279.608 344.847 C 282.024 343.773,284.000 342.645,284.000 342.340 C 284.000 342.036,284.630 341.575,285.400 341.317 C 287.548 340.595,301.478 330.811,306.862 326.242 C 309.676 323.854,323.854 309.676,326.242 306.862 C 330.811 301.478,340.595 287.548,341.317 285.400 C 341.575 284.630,342.036 284.000,342.340 284.000 C 342.645 284.000,343.773 282.024,344.847 279.608 C 345.921 277.193,347.070 275.213,347.400 275.208 C 347.730 275.204,348.000 274.524,348.000 273.698 C 348.000 272.872,348.540 271.748,349.200 271.200 C 349.860 270.652,350.400 269.572,350.400 268.800 C 350.400 268.028,350.940 266.948,351.600 266.400 C 352.260 265.852,352.800 264.769,352.800 263.993 C 352.800 263.218,353.338 261.552,353.995 260.291 C 354.652 259.031,355.192 257.391,355.195 256.647 C 355.198 255.903,355.513 255.101,355.895 254.865 C 356.277 254.629,356.821 252.987,357.104 251.218 C 357.387 249.448,357.975 248.000,358.409 248.000 C 358.844 248.000,359.200 246.629,359.200 244.953 C 359.200 243.277,359.729 241.207,360.375 240.353 C 361.035 239.480,361.560 237.038,361.575 234.778 C 361.589 232.566,362.104 230.037,362.719 229.158 C 365.671 224.944,365.671 175.056,362.719 170.842 C 362.104 169.963,361.600 167.388,361.600 165.120 C 361.600 162.430,361.183 160.650,360.400 160.000 C 359.740 159.452,359.200 157.829,359.200 156.393 C 359.200 154.958,358.662 152.752,358.005 151.491 C 357.348 150.231,356.808 148.411,356.805 147.447 C 356.802 146.483,356.440 145.472,356.000 145.200 C 355.560 144.928,355.200 144.028,355.200 143.200 C 355.200 140.972,353.519 140.334,352.245 142.078 C 350.739 144.139,343.450 152.368,339.987 155.917 C 331.926 164.178,329.038 173.473,333.038 178.285 C 334.663 180.240,334.851 217.731,333.252 220.937 C 332.563 222.317,331.987 225.101,331.972 227.123 C 331.956 229.145,331.429 231.700,330.800 232.800 C 330.171 233.900,329.644 235.749,329.628 236.909 C 329.613 238.068,329.062 240.048,328.405 241.309 C 327.748 242.569,327.208 244.410,327.205 245.400 C 327.202 246.390,326.840 247.200,326.400 247.200 C 325.960 247.200,325.600 247.802,325.600 248.537 C 325.600 249.272,324.565 252.062,323.299 254.737 C 322.034 257.412,320.772 260.140,320.496 260.800 C 320.219 261.460,318.916 263.800,317.600 266.000 C 316.284 268.200,314.961 270.540,314.660 271.200 C 314.360 271.860,313.009 273.894,311.657 275.719 C 310.306 277.545,308.480 280.035,307.600 281.254 C 303.170 287.387,291.917 299.088,285.702 304.023 C 283.778 305.550,281.628 307.430,280.924 308.200 C 280.220 308.970,279.326 309.600,278.937 309.600 C 278.548 309.600,276.918 310.620,275.315 311.867 C 273.712 313.114,271.860 314.376,271.200 314.670 C 270.540 314.965,268.200 316.284,266.000 317.600 C 263.800 318.916,261.460 320.219,260.800 320.496 C 260.140 320.772,257.412 322.034,254.737 323.299 C 252.062 324.565,249.272 325.600,248.537 325.600 C 247.802 325.600,247.200 325.960,247.200 326.400 C 247.200 326.840,246.390 327.202,245.400 327.205 C 244.410 327.208,242.569 327.748,241.309 328.405 C 240.048 329.062,237.888 329.611,236.509 329.625 C 235.129 329.639,233.301 330.179,232.447 330.825 C 231.593 331.471,229.218 332.000,227.170 332.000 C 225.122 332.000,222.317 332.563,220.937 333.252 C 217.663 334.885,179.938 334.662,178.279 333.000 C 177.729 332.450,175.441 332.000,173.193 332.000 C 170.838 332.000,168.448 331.502,167.553 330.825 C 166.699 330.179,164.671 329.639,163.047 329.625 C 161.423 329.611,159.889 329.268,159.638 328.862 C 159.387 328.455,158.028 327.870,156.617 327.560 C 155.207 327.250,153.501 326.735,152.826 326.416 C 152.152 326.097,150.245 325.252,148.588 324.539 C 146.932 323.827,144.412 322.728,142.988 322.099 C 141.565 321.470,139.860 320.736,139.200 320.469 C 138.540 320.201,136.920 319.262,135.600 318.382 C 134.280 317.502,132.570 316.564,131.800 316.297 C 131.030 316.031,130.400 315.534,130.400 315.193 C 130.400 314.852,129.500 314.348,128.400 314.071 C 127.300 313.795,126.400 313.216,126.400 312.785 C 126.400 312.353,125.849 312.000,125.175 312.000 C 124.501 312.000,123.743 311.460,123.489 310.800 C 123.236 310.140,122.669 309.600,122.230 309.600 C 121.473 309.600,117.713 306.842,112.414 302.400 C 109.335 299.819,100.181 290.665,97.600 287.586 C 93.158 282.287,90.400 278.527,90.400 277.770 C 90.400 277.331,89.860 276.764,89.200 276.511 C 88.540 276.257,88.000 275.499,88.000 274.825 C 88.000 274.151,87.647 273.600,87.215 273.600 C 86.784 273.600,86.205 272.700,85.929 271.600 C 85.652 270.500,85.106 269.600,84.713 269.600 C 84.321 269.600,84.000 269.104,84.000 268.498 C 84.000 267.892,83.460 266.948,82.800 266.400 C 82.140 265.852,81.600 264.728,81.600 263.902 C 81.600 263.076,81.325 262.400,80.989 262.400 C 80.410 262.400,78.609 258.759,75.647 251.600 C 74.918 249.840,73.980 247.775,73.561 247.011 C 73.143 246.247,72.789 244.807,72.775 243.811 C 72.761 242.815,72.221 241.301,71.575 240.447 C 70.929 239.593,70.400 237.924,70.400 236.739 C 70.400 235.553,69.862 233.552,69.205 232.291 C 68.548 231.031,68.008 228.362,68.005 226.360 C 68.002 224.358,67.550 222.270,67.000 221.720 C 65.620 220.341,65.570 181.120,66.945 178.322 C 67.464 177.265,68.048 174.435,68.243 172.034 C 68.438 169.632,69.003 167.532,69.499 167.367 C 69.994 167.202,70.400 165.725,70.400 164.086 C 70.400 162.447,70.929 160.407,71.575 159.553 C 72.221 158.699,72.761 157.185,72.775 156.189 C 72.789 155.193,73.147 153.753,73.572 152.989 C 73.997 152.225,75.103 149.800,76.030 147.600 C 78.410 141.954,79.996 138.728,82.423 134.600 C 82.876 133.830,83.458 132.570,83.717 131.800 C 83.975 131.030,84.505 130.400,84.893 130.400 C 85.282 130.400,85.600 130.002,85.600 129.515 C 85.600 129.028,86.680 127.267,88.000 125.600 C 89.320 123.933,90.402 122.262,90.404 121.885 C 90.406 121.508,91.576 119.882,93.004 118.272 C 94.432 116.662,97.040 113.619,98.800 111.511 C 100.560 109.403,103.278 106.400,104.839 104.839 C 106.400 103.278,109.403 100.560,111.511 98.800 C 113.619 97.040,116.662 94.432,118.272 93.004 C 119.882 91.576,121.508 90.406,121.885 90.404 C 122.262 90.402,123.933 89.320,125.600 88.000 C 127.267 86.680,129.028 85.600,129.515 85.600 C 130.002 85.600,130.400 85.282,130.400 84.893 C 130.400 84.505,131.030 83.975,131.800 83.717 C 132.570 83.458,133.830 82.876,134.600 82.423 C 138.469 80.148,142.856 78.010,148.800 75.503 C 150.340 74.854,152.225 73.980,152.989 73.561 C 153.753 73.143,155.193 72.789,156.189 72.775 C 157.185 72.761,158.699 72.221,159.553 71.575 C 160.407 70.929,162.076 70.400,163.261 70.400 C 164.447 70.400,166.448 69.862,167.709 69.205 C 168.969 68.548,171.638 68.008,173.640 68.005 C 175.642 68.002,177.730 67.550,178.280 67.000 C 179.718 65.562,220.282 65.562,221.720 67.000 C 222.270 67.550,224.358 68.002,226.360 68.005 C 228.362 68.008,231.031 68.548,232.291 69.205 C 233.552 69.862,235.553 70.400,236.739 70.400 C 237.924 70.400,239.593 70.929,240.447 71.575 C 241.301 72.221,242.815 72.761,243.811 72.775 C 244.807 72.789,246.247 73.143,247.011 73.561 C 248.977 74.638,253.677 76.580,255.785 77.186 C 257.658 77.724,264.000 72.127,264.000 69.936 C 264.000 69.385,264.287 68.813,264.637 68.667 C 264.988 68.520,267.508 65.451,270.237 61.847 C 275.335 55.116,276.430 52.000,273.698 52.000 C 272.872 52.000,271.748 51.460,271.200 50.800 C 270.652 50.140,269.549 49.600,268.749 49.600 C 267.949 49.600,267.089 49.268,266.838 48.862 C 266.587 48.455,265.228 47.870,263.817 47.560 C 261.133 46.970,260.485 46.715,256.135 44.535 C 254.670 43.801,252.668 43.200,251.688 43.200 C 250.708 43.200,249.207 42.671,248.353 42.025 C 247.499 41.379,245.540 40.828,244.000 40.800 C 242.460 40.772,240.501 40.221,239.647 39.575 C 238.793 38.929,236.519 38.400,234.595 38.400 C 232.670 38.400,230.437 38.048,229.633 37.618 C 226.307 35.837,192.542 33.743,189.200 35.110 " stroke="none" fill="#000000" fill-rule="evenodd"></path><path id="path1" d="M184.808 34.445 C 176.545 35.479,175.864 36.075,183.600 35.502 C 191.603 34.910,207.964 34.891,216.400 35.463 C 221.540 35.812,222.091 35.754,219.200 35.167 C 213.753 34.061,191.593 33.595,184.808 34.445 M169.374 36.493 C 169.103 36.764,167.693 37.267,166.241 37.611 L 163.600 38.236 166.840 38.318 C 168.622 38.363,170.422 38.066,170.840 37.657 C 171.258 37.248,172.860 36.766,174.400 36.585 C 176.870 36.295,176.768 36.241,173.533 36.128 C 171.517 36.058,169.645 36.222,169.374 36.493 M226.400 36.895 C 228.380 37.326,231.440 37.828,233.200 38.010 L 236.400 38.340 233.600 37.487 C 232.060 37.018,229.000 36.516,226.800 36.372 L 222.800 36.109 226.400 36.895 M156.800 39.650 L 154.000 40.710 156.400 40.729 C 157.720 40.740,159.499 40.221,160.353 39.575 C 162.276 38.120,160.759 38.153,156.800 39.650 M239.647 39.575 C 240.501 40.221,242.280 40.719,243.600 40.682 C 245.246 40.636,245.497 40.493,244.400 40.230 C 243.520 40.018,242.458 39.520,242.040 39.122 C 241.622 38.725,240.563 38.400,239.687 38.400 C 238.115 38.400,238.114 38.415,239.647 39.575 M150.000 41.600 C 149.728 42.040,148.819 42.400,147.980 42.400 C 147.141 42.400,145.272 42.912,143.827 43.537 C 142.382 44.162,138.723 45.676,135.695 46.902 C 132.667 48.127,130.627 49.276,131.163 49.454 C 131.698 49.633,133.275 49.236,134.668 48.574 C 136.061 47.911,138.280 46.937,139.600 46.410 C 140.920 45.883,143.019 44.945,144.265 44.326 C 145.510 43.707,147.332 43.200,148.312 43.200 C 150.530 43.200,154.005 40.866,151.847 40.825 C 151.103 40.811,150.272 41.160,150.000 41.600 M248.353 42.025 C 249.207 42.671,250.708 43.200,251.688 43.200 C 252.668 43.200,254.670 43.801,256.135 44.535 C 260.871 46.909,261.564 47.200,262.468 47.200 C 262.958 47.200,264.595 47.787,266.108 48.505 C 267.620 49.222,269.029 49.638,269.238 49.429 C 269.584 49.083,263.949 46.609,255.600 43.440 C 253.840 42.772,251.573 41.904,250.562 41.513 C 247.779 40.433,246.608 40.705,248.353 42.025 M125.600 51.353 C 124.060 52.255,121.071 53.939,118.958 55.096 C 112.335 58.723,111.887 58.993,110.973 59.907 C 109.292 61.588,111.173 60.799,116.232 57.703 C 119.015 55.999,122.082 54.355,123.046 54.049 C 124.011 53.743,124.800 53.201,124.800 52.846 C 124.800 52.491,125.880 51.984,127.200 51.720 C 128.520 51.456,129.600 50.871,129.600 50.420 C 129.600 49.281,128.833 49.460,125.600 51.353 M271.200 50.800 C 271.748 51.460,272.872 52.000,273.698 52.000 C 276.430 52.000,275.335 55.116,270.237 61.847 C 267.508 65.451,264.988 68.520,264.637 68.667 C 264.287 68.813,264.000 69.385,264.000 69.936 C 264.000 72.127,257.658 77.724,255.785 77.186 C 253.677 76.580,248.977 74.638,247.011 73.561 C 246.247 73.143,244.987 72.823,244.211 72.851 C 243.397 72.881,243.985 73.425,245.600 74.138 C 247.140 74.818,249.480 75.873,250.800 76.484 C 257.030 79.366,258.188 79.059,262.770 73.309 C 276.685 55.846,277.915 53.417,274.000 51.123 C 270.999 49.365,269.904 49.238,271.200 50.800 M104.234 64.259 C 88.509 74.870,63.845 101.273,58.141 113.600 C 57.836 114.260,56.932 115.880,56.133 117.200 C 52.483 123.228,49.582 129.049,50.014 129.480 C 50.655 130.122,51.973 127.932,51.988 126.200 C 51.994 125.430,52.336 124.800,52.746 124.800 C 53.156 124.800,53.743 124.011,54.049 123.046 C 54.355 122.082,55.999 119.015,57.703 116.232 C 59.406 113.449,60.800 110.848,60.800 110.453 C 60.800 110.057,61.070 109.613,61.400 109.467 C 61.730 109.320,63.249 107.400,64.775 105.200 C 66.302 103.000,68.372 100.304,69.375 99.208 C 70.379 98.113,71.200 96.970,71.200 96.670 C 71.200 96.369,72.280 95.043,73.600 93.723 C 74.920 92.403,76.000 91.134,76.000 90.904 C 76.000 89.945,91.144 75.589,97.600 70.428 C 98.700 69.549,99.960 68.542,100.400 68.191 C 101.066 67.659,108.447 62.505,109.533 61.812 C 109.717 61.696,109.713 61.447,109.526 61.259 C 109.338 61.072,106.957 62.422,104.234 64.259 M181.200 66.145 C 179.880 66.353,178.458 66.855,178.040 67.262 C 177.622 67.668,175.642 68.002,173.640 68.005 C 171.638 68.008,168.969 68.548,167.709 69.205 C 166.448 69.862,164.447 70.400,163.261 70.400 C 162.076 70.400,160.407 70.967,159.553 71.659 C 157.774 73.102,158.208 73.040,166.000 70.749 C 168.200 70.102,172.160 69.230,174.800 68.811 C 177.440 68.392,181.539 67.678,183.909 67.224 C 193.906 65.312,216.022 66.479,229.508 69.632 C 231.437 70.082,233.197 70.270,233.419 70.048 C 234.166 69.301,229.523 68.000,226.108 68.000 C 224.245 68.000,222.270 67.550,221.721 67.000 C 220.716 65.994,186.714 65.277,181.200 66.145 M236.000 70.977 C 237.100 71.174,238.342 71.665,238.760 72.068 C 239.178 72.470,240.078 72.789,240.760 72.775 C 241.745 72.754,241.680 72.507,240.447 71.575 C 239.593 70.929,237.793 70.449,236.447 70.509 C 234.274 70.606,234.224 70.658,236.000 70.977 M152.800 73.609 C 152.140 74.002,150.340 74.855,148.800 75.504 C 141.188 78.712,138.449 80.074,137.937 80.902 C 137.629 81.400,137.697 81.665,138.089 81.490 C 138.480 81.316,140.600 80.331,142.800 79.302 C 145.000 78.273,147.880 76.968,149.200 76.402 C 156.390 73.322,157.155 72.902,155.600 72.898 C 154.720 72.896,153.460 73.216,152.800 73.609 M133.600 82.800 C 133.052 83.460,132.108 84.000,131.502 84.000 C 130.896 84.000,130.400 84.360,130.400 84.800 C 130.400 85.240,130.002 85.600,129.515 85.600 C 129.028 85.600,127.267 86.680,125.600 88.000 C 123.933 89.320,122.258 90.400,121.877 90.400 C 121.133 90.400,116.800 94.204,116.800 94.858 C 116.800 95.074,118.690 93.875,121.000 92.194 C 126.252 88.373,133.150 84.000,133.927 84.000 C 134.250 84.000,135.054 83.460,135.714 82.800 C 136.743 81.771,136.749 81.600,135.755 81.600 C 135.118 81.600,134.148 82.140,133.600 82.800 M111.602 98.600 C 105.912 103.556,99.565 110.126,95.998 114.754 C 93.973 117.380,96.824 115.304,99.182 112.435 C 100.283 111.096,103.167 108.016,105.592 105.592 C 108.016 103.167,111.096 100.283,112.435 99.182 C 114.690 97.329,116.489 95.200,115.800 95.200 C 115.638 95.200,113.749 96.730,111.602 98.600 M92.432 118.992 C 91.315 120.197,90.400 121.496,90.400 121.877 C 90.400 122.258,89.320 123.933,88.000 125.600 C 86.680 127.267,85.600 129.028,85.600 129.515 C 85.600 130.002,85.240 130.400,84.800 130.400 C 84.360 130.400,84.000 130.896,84.000 131.502 C 84.000 132.108,83.460 133.052,82.800 133.600 C 82.140 134.148,81.600 135.118,81.600 135.755 C 81.600 136.749,81.771 136.743,82.800 135.714 C 83.460 135.054,84.000 134.250,84.000 133.927 C 84.000 133.150,88.373 126.252,92.194 121.000 C 95.528 116.419,95.632 115.541,92.432 118.992 M46.902 135.695 C 45.676 138.723,44.162 142.382,43.537 143.827 C 42.912 145.272,42.400 147.141,42.400 147.980 C 42.400 148.819,42.040 149.728,41.600 150.000 C 41.160 150.272,40.811 151.103,40.825 151.847 C 40.866 154.005,43.200 150.530,43.200 148.312 C 43.200 147.332,43.707 145.510,44.326 144.265 C 44.945 143.019,45.883 140.920,46.410 139.600 C 46.937 138.280,47.911 136.061,48.574 134.668 C 49.236 133.275,49.633 131.698,49.454 131.163 C 49.276 130.627,48.127 132.667,46.902 135.695 M80.281 138.581 C 79.415 139.762,78.351 142.012,76.016 147.600 C 75.096 149.800,73.997 152.225,73.572 152.989 C 73.147 153.753,72.823 155.013,72.851 155.789 C 72.899 157.105,73.743 155.524,76.371 149.200 C 76.920 147.880,78.316 144.846,79.475 142.457 C 81.482 138.317,81.882 136.396,80.281 138.581 M347.082 146.593 C 341.096 153.417,337.932 156.973,334.440 160.800 C 331.140 164.417,329.376 167.791,330.139 169.023 C 330.472 169.561,330.989 171.440,331.289 173.200 C 331.735 175.813,331.821 175.432,331.757 171.117 C 331.673 165.405,332.850 163.231,339.987 155.917 C 344.099 151.703,351.499 143.262,352.240 141.941 C 353.568 139.573,352.004 140.983,347.082 146.593 M355.200 143.375 C 355.200 144.107,355.513 144.899,355.895 145.135 C 356.277 145.371,356.818 146.992,357.097 148.736 C 357.376 150.481,358.020 152.165,358.528 152.479 C 359.183 152.884,359.280 152.490,358.861 151.125 C 358.537 150.066,358.068 148.300,357.819 147.200 C 357.194 144.435,355.200 141.522,355.200 143.375 M359.235 156.102 C 359.215 157.744,359.721 159.437,360.400 160.000 C 361.889 161.236,361.894 160.484,360.423 156.400 L 359.270 153.200 359.235 156.102 M39.851 156.000 C 39.564 157.100,39.079 158.900,38.773 160.000 L 38.218 162.000 39.561 160.190 C 40.300 159.195,40.785 157.395,40.639 156.190 L 40.374 154.000 39.851 156.000 M71.265 159.879 C 70.789 160.768,70.442 162.688,70.493 164.147 C 70.548 165.727,70.728 166.153,70.938 165.200 C 71.131 164.320,71.678 162.598,72.153 161.374 C 73.181 158.721,72.499 157.573,71.265 159.879 M361.692 165.647 C 361.636 167.884,362.084 169.895,362.852 170.847 C 364.222 172.545,364.197 172.165,362.449 164.800 L 361.784 162.000 361.692 165.647 M37.313 166.400 C 36.968 167.940,36.560 171.000,36.406 173.200 C 36.253 175.400,36.284 176.300,36.477 175.200 C 36.669 174.100,37.214 171.921,37.689 170.357 C 38.164 168.793,38.415 166.633,38.246 165.557 C 37.977 163.837,37.864 163.939,37.313 166.400 M68.504 169.000 C 68.239 169.990,68.017 172.258,68.011 174.040 C 68.005 175.822,67.550 177.730,67.000 178.280 C 66.251 179.029,66.000 184.491,66.000 200.000 C 66.000 215.509,66.251 220.971,67.000 221.720 C 67.550 222.270,68.000 224.245,68.000 226.108 C 68.000 229.738,69.317 234.150,70.152 233.315 C 70.431 233.036,70.266 231.456,69.785 229.804 C 66.455 218.349,65.319 194.160,67.536 181.888 C 68.161 178.430,68.847 174.520,69.061 173.200 C 69.275 171.880,69.706 169.990,70.019 169.000 C 70.348 167.955,70.251 167.200,69.787 167.200 C 69.347 167.200,68.770 168.010,68.504 169.000 M364.527 182.400 C 364.767 186.140,364.964 194.060,364.964 200.000 C 364.964 205.940,364.767 213.860,364.527 217.600 L 364.090 224.400 365.175 217.600 C 365.772 213.860,366.260 205.940,366.260 200.000 C 366.260 194.060,365.772 186.140,365.175 182.400 L 364.090 175.600 364.527 182.400 M34.787 182.800 C 33.786 189.920,33.976 214.460,35.069 219.200 C 35.833 222.512,35.871 222.320,35.547 216.800 C 34.340 196.205,34.298 192.972,35.188 189.200 C 35.707 187.000,36.006 183.400,35.853 181.200 L 35.575 177.200 34.787 182.800 M332.498 180.800 C 333.399 185.418,333.414 214.473,332.518 219.200 C 331.946 222.217,332.011 222.631,332.918 221.759 C 334.518 220.221,334.499 179.750,332.898 178.240 C 331.965 177.360,331.904 177.755,332.498 180.800 M36.104 226.400 C 36.060 227.940,36.559 230.820,37.212 232.800 L 38.399 236.400 38.053 233.200 C 37.863 231.440,37.364 228.560,36.945 226.800 L 36.184 223.600 36.104 226.400 M331.056 226.800 C 330.766 228.560,330.302 231.080,330.025 232.400 L 329.520 234.800 330.804 232.564 C 331.587 231.202,331.990 229.014,331.836 226.964 L 331.584 223.600 331.056 226.800 M362.465 229.479 C 361.989 230.368,361.642 232.648,361.693 234.547 C 361.744 236.446,361.933 237.280,362.113 236.400 C 362.293 235.520,362.850 233.448,363.350 231.796 C 364.363 228.447,363.803 226.979,362.465 229.479 M70.509 236.447 C 70.449 237.793,70.929 239.593,71.575 240.447 C 72.507 241.680,72.754 241.745,72.775 240.760 C 72.789 240.078,72.470 239.178,72.068 238.760 C 71.665 238.342,71.174 237.100,70.977 236.000 C 70.658 234.224,70.606 234.274,70.509 236.447 M328.200 238.314 C 326.839 242.753,326.950 244.098,328.442 241.237 C 329.120 239.937,329.568 238.013,329.437 236.963 C 329.243 235.398,329.019 235.642,328.200 238.314 M38.400 239.687 C 38.400 240.563,38.725 241.622,39.122 242.040 C 39.520 242.458,40.018 243.520,40.230 244.400 C 40.493 245.497,40.636 245.246,40.682 243.600 C 40.719 242.280,40.221 240.501,39.575 239.647 C 38.415 238.114,38.400 238.115,38.400 239.687 M360.065 240.679 C 359.589 241.568,359.242 243.488,359.293 244.947 C 359.348 246.527,359.528 246.953,359.738 246.000 C 359.931 245.120,360.478 243.398,360.953 242.174 C 361.981 239.521,361.299 238.373,360.065 240.679 M72.851 244.211 C 72.823 244.987,73.143 246.247,73.561 247.011 C 73.980 247.775,74.918 249.840,75.647 251.600 C 78.682 258.936,80.417 262.400,81.056 262.400 C 81.428 262.400,81.607 262.130,81.453 261.800 C 81.299 261.470,80.331 259.400,79.302 257.200 C 78.273 255.000,76.968 252.120,76.402 250.800 C 73.477 243.973,72.899 242.900,72.851 244.211 M325.699 246.400 C 324.221 250.268,322.896 253.278,320.473 258.274 C 318.074 263.220,317.960 263.761,319.600 262.400 C 320.260 261.852,320.801 260.998,320.803 260.502 C 320.805 260.006,321.883 257.440,323.200 254.800 C 324.517 252.160,325.595 249.400,325.597 248.667 C 325.599 247.933,326.001 247.200,326.491 247.036 C 326.982 246.873,327.245 246.033,327.076 245.170 C 326.835 243.937,326.540 244.201,325.699 246.400 M40.825 247.762 C 40.811 248.292,41.121 249.552,41.513 250.562 C 41.904 251.573,42.772 253.840,43.440 255.600 C 46.920 264.769,49.164 269.708,49.454 268.837 C 49.633 268.302,49.236 266.725,48.574 265.332 C 47.911 263.939,46.937 261.720,46.410 260.400 C 45.883 259.080,44.945 256.981,44.326 255.735 C 43.707 254.490,43.200 252.668,43.200 251.688 C 43.200 249.866,40.872 246.017,40.825 247.762 M357.104 251.218 C 356.821 252.987,356.277 254.629,355.895 254.865 C 355.513 255.101,355.198 255.903,355.195 256.647 C 355.192 257.391,354.652 259.031,353.995 260.291 C 352.579 263.007,352.422 265.111,353.809 262.800 C 354.948 260.900,356.652 256.543,357.562 253.200 C 357.922 251.880,358.476 250.170,358.793 249.400 C 359.137 248.567,359.016 248.000,358.495 248.000 C 358.013 248.000,357.387 249.448,357.104 251.218 M81.609 264.102 C 81.604 264.818,82.140 265.852,82.800 266.400 C 83.460 266.948,84.000 267.892,84.000 268.498 C 84.000 269.104,84.321 269.600,84.713 269.600 C 85.106 269.600,85.652 270.500,85.929 271.600 C 86.205 272.700,86.784 273.600,87.215 273.600 C 87.647 273.600,88.000 274.151,88.000 274.825 C 88.000 275.499,88.540 276.257,89.200 276.511 C 89.860 276.764,90.400 277.331,90.400 277.770 C 90.400 278.527,93.158 282.287,97.600 287.586 C 100.181 290.665,109.335 299.819,112.414 302.400 C 117.972 307.059,121.699 309.768,122.058 309.409 C 122.269 309.197,120.363 307.466,117.821 305.561 C 107.024 297.470,94.350 283.060,85.137 268.400 C 83.202 265.320,81.614 263.386,81.609 264.102 M317.038 264.981 C 316.604 265.541,316.009 266.540,315.717 267.200 C 309.752 280.679,282.832 307.907,268.291 315.169 C 266.391 316.118,264.627 317.233,264.371 317.647 C 263.548 318.979,265.150 318.453,268.172 316.400 C 269.791 315.300,271.352 314.400,271.642 314.400 C 271.932 314.400,273.533 313.320,275.200 312.000 C 276.867 310.680,278.548 309.600,278.937 309.600 C 279.326 309.600,280.220 308.970,280.924 308.200 C 281.628 307.430,283.778 305.550,285.702 304.023 C 291.917 299.088,303.170 287.387,307.600 281.254 C 308.480 280.035,310.370 277.476,311.800 275.567 C 313.230 273.658,314.400 271.887,314.400 271.631 C 314.400 271.375,315.353 269.726,316.517 267.967 C 318.455 265.039,318.880 262.604,317.038 264.981 M351.347 266.573 C 350.826 267.094,350.400 268.124,350.400 268.862 C 350.400 269.600,349.860 270.652,349.200 271.200 C 348.540 271.748,348.000 272.872,348.000 273.698 C 348.000 274.524,347.730 275.204,347.400 275.208 C 347.070 275.213,345.921 277.193,344.847 279.608 C 343.773 282.024,342.645 284.000,342.340 284.000 C 342.036 284.000,341.575 284.630,341.317 285.400 C 340.595 287.548,330.811 301.478,326.242 306.862 C 323.854 309.676,309.676 323.854,306.862 326.242 C 301.478 330.811,287.548 340.595,285.400 341.317 C 284.630 341.575,284.000 342.036,284.000 342.340 C 284.000 342.645,282.024 343.773,279.608 344.847 C 277.193 345.921,275.213 347.070,275.208 347.400 C 275.204 347.730,274.524 348.000,273.698 348.000 C 272.872 348.000,271.748 348.540,271.200 349.200 C 270.652 349.860,269.572 350.400,268.800 350.400 C 268.028 350.400,266.948 350.940,266.400 351.600 C 264.887 353.423,265.626 353.145,274.546 348.532 C 307.456 331.515,331.524 307.438,348.559 274.494 C 352.686 266.513,353.380 264.540,351.347 266.573 M49.600 270.684 C 49.600 271.430,58.097 286.947,59.421 288.619 C 59.865 289.180,60.408 289.459,60.628 289.239 C 60.848 289.019,60.570 288.286,60.009 287.611 C 58.615 285.932,55.343 280.079,54.300 277.400 C 53.829 276.190,53.119 275.200,52.722 275.200 C 52.325 275.200,52.000 274.524,52.000 273.698 C 52.000 272.872,51.460 271.748,50.800 271.200 C 50.140 270.652,49.600 270.420,49.600 270.684 M62.905 293.800 C 70.002 305.152,86.944 322.792,101.339 333.817 C 104.056 335.898,106.445 337.600,106.648 337.600 C 106.851 337.600,109.159 339.030,111.777 340.778 C 117.223 344.415,133.237 352.813,134.654 352.775 C 136.120 352.735,132.670 350.400,131.145 350.400 C 130.403 350.400,129.348 349.860,128.800 349.200 C 128.252 348.540,127.128 348.000,126.302 348.000 C 125.476 348.000,124.800 347.707,124.800 347.350 C 124.800 346.992,123.090 345.905,121.000 344.933 C 118.910 343.961,116.120 342.458,114.800 341.592 C 113.480 340.726,111.860 339.770,111.200 339.467 C 110.540 339.164,109.820 338.691,109.600 338.416 C 109.380 338.141,107.940 337.139,106.400 336.189 C 104.860 335.240,102.554 333.549,101.276 332.431 C 99.997 331.314,98.720 330.400,98.437 330.400 C 98.154 330.400,96.424 328.960,94.592 327.200 C 92.760 325.440,91.080 324.000,90.857 324.000 C 90.263 324.000,75.935 309.377,73.600 306.386 C 72.500 304.977,70.457 302.423,69.061 300.709 C 67.664 298.996,65.504 295.989,64.261 294.026 C 63.017 292.064,61.725 290.445,61.390 290.429 C 61.054 290.413,61.736 291.930,62.905 293.800 M123.200 310.433 C 123.200 310.882,123.830 311.489,124.600 311.780 C 125.370 312.072,126.476 312.781,127.057 313.355 C 127.639 313.930,128.629 314.400,129.257 314.400 C 129.886 314.400,130.400 314.760,130.400 315.200 C 130.400 315.640,130.781 316.000,131.247 316.000 C 132.742 316.000,131.289 314.592,127.192 312.071 C 124.997 310.720,123.200 309.983,123.200 310.433 M133.166 316.746 C 133.490 317.270,134.530 318.036,135.478 318.447 C 136.425 318.859,137.740 319.517,138.400 319.910 C 139.681 320.672,144.461 322.843,148.400 324.451 C 149.720 324.991,151.789 325.890,152.999 326.450 C 154.208 327.011,155.390 327.277,155.624 327.042 C 155.859 326.807,154.870 326.145,153.426 325.569 C 151.982 324.994,147.020 322.702,142.400 320.476 C 137.780 318.250,133.680 316.286,133.289 316.111 C 132.897 315.936,132.842 316.221,133.166 316.746 M258.000 320.537 C 255.800 321.638,252.920 322.997,251.600 323.556 C 244.410 326.600,243.553 327.096,245.400 327.149 C 246.390 327.177,247.200 326.840,247.200 326.400 C 247.200 325.960,247.830 325.599,248.600 325.597 C 249.370 325.595,252.160 324.517,254.800 323.200 C 257.440 321.883,260.006 320.805,260.502 320.803 C 260.998 320.801,261.852 320.260,262.400 319.600 C 263.763 317.958,262.701 318.184,258.000 320.537 M158.691 328.405 C 159.952 329.062,161.932 329.584,163.091 329.565 C 164.895 329.535,164.737 329.363,162.000 328.377 C 157.810 326.868,155.777 326.885,158.691 328.405 M237.600 328.450 C 235.003 329.433,234.953 329.513,236.909 329.555 C 238.068 329.580,240.048 329.062,241.309 328.405 C 244.255 326.868,241.699 326.900,237.600 328.450 M167.553 330.741 C 168.514 331.520,170.495 331.962,172.753 331.900 L 176.400 331.800 173.200 331.177 C 171.440 330.835,169.100 330.313,168.000 330.018 C 166.074 329.501,166.057 329.528,167.553 330.741 M230.918 330.148 C 230.617 330.450,228.847 330.945,226.985 331.248 L 223.600 331.800 227.247 331.900 C 229.361 331.958,231.547 331.506,232.447 330.825 C 233.712 329.869,233.765 329.646,232.733 329.625 C 232.037 329.611,231.220 329.847,230.918 330.148 M178.240 332.918 C 179.061 333.773,183.628 334.000,199.999 334.000 C 216.369 334.000,220.937 333.773,221.759 332.918 C 222.631 332.011,222.217 331.946,219.200 332.518 C 217.220 332.893,208.580 333.200,200.000 333.200 C 191.420 333.200,182.780 332.893,180.800 332.518 C 177.783 331.946,177.368 332.011,178.240 332.918 M137.247 353.975 C 138.101 354.621,139.499 355.161,140.353 355.175 C 141.890 355.200,141.890 355.188,140.353 354.025 C 139.499 353.379,138.101 352.839,137.247 352.825 C 135.710 352.800,135.710 352.812,137.247 353.975 M261.238 353.538 C 260.987 353.945,259.616 354.526,258.191 354.831 C 256.766 355.135,255.240 355.656,254.800 355.988 C 254.360 356.320,252.650 356.835,251.000 357.132 C 249.350 357.429,248.000 358.055,248.000 358.522 C 248.000 359.018,248.583 359.131,249.400 358.793 C 250.170 358.476,251.880 357.922,253.200 357.562 C 259.220 355.923,265.566 352.870,263.047 352.824 C 262.303 352.811,261.489 353.132,261.238 353.538 M143.622 356.284 C 144.490 356.880,146.100 357.570,147.200 357.819 C 148.300 358.068,150.066 358.537,151.125 358.861 C 152.490 359.280,152.884 359.183,152.479 358.528 C 152.165 358.020,150.481 357.376,148.736 357.097 C 146.992 356.818,145.371 356.277,145.135 355.895 C 144.899 355.513,144.107 355.200,143.375 355.200 C 142.255 355.200,142.295 355.372,143.622 356.284 M156.400 360.423 C 160.467 361.888,161.626 361.871,159.647 360.375 C 158.793 359.729,156.993 359.216,155.647 359.235 C 153.248 359.270,153.263 359.293,156.400 360.423 M240.353 360.459 C 238.642 361.847,238.482 361.861,245.200 360.021 L 247.600 359.364 244.753 359.282 C 243.187 359.237,241.207 359.767,240.353 360.459 M165.600 362.527 C 171.761 364.205,172.588 364.257,170.847 362.852 C 169.956 362.133,167.911 361.635,166.047 361.682 L 162.800 361.764 165.600 362.527 M229.153 362.852 C 227.455 364.222,227.835 364.197,235.200 362.449 L 238.000 361.784 234.353 361.692 C 232.116 361.636,230.105 362.084,229.153 362.852 M182.800 365.176 C 192.024 366.568,208.874 366.567,217.600 365.175 L 224.400 364.090 217.600 364.526 C 208.506 365.109,191.672 365.122,182.800 364.552 L 175.600 364.090 182.800 365.176 " stroke="none" fill="#2c2c2c" fill-rule="evenodd"></path><path id="path2" d="M179.600 33.669 C 177.840 34.046,174.060 34.714,171.200 35.154 C 168.340 35.594,164.380 36.363,162.400 36.864 C 154.515 38.860,149.925 40.155,148.400 40.815 C 147.520 41.195,145.630 41.736,144.200 42.017 C 142.770 42.298,141.600 42.859,141.600 43.264 C 141.600 43.669,140.858 44.000,139.951 44.000 C 138.597 44.000,121.936 51.721,117.600 54.358 C 116.940 54.759,113.610 56.770,110.200 58.827 C 106.790 60.883,104.000 62.888,104.000 63.283 C 104.000 63.677,103.602 64.000,103.115 64.000 C 102.323 64.000,99.601 65.953,93.636 70.800 C 87.289 75.958,75.631 87.543,71.899 92.400 C 70.885 93.720,69.853 94.980,69.607 95.200 C 68.173 96.480,64.000 102.370,64.000 103.115 C 64.000 103.602,63.677 104.000,63.283 104.000 C 62.888 104.000,60.883 106.790,58.827 110.200 C 56.770 113.610,54.759 116.940,54.358 117.600 C 51.721 121.936,44.000 138.597,44.000 139.951 C 44.000 140.858,43.669 141.600,43.264 141.600 C 42.859 141.600,42.298 142.770,42.017 144.200 C 41.736 145.630,41.195 147.520,40.815 148.400 C 40.133 149.974,38.746 154.921,36.776 162.800 C 36.226 165.000,35.495 168.780,35.152 171.200 C 34.810 173.620,34.140 177.539,33.665 179.909 C 32.345 186.488,32.583 215.246,34.014 222.000 C 34.666 225.080,35.200 228.781,35.200 230.225 C 35.200 231.670,35.740 234.144,36.400 235.723 C 37.060 237.303,37.600 239.294,37.600 240.147 C 37.600 241.912,39.740 249.298,40.858 251.389 C 41.266 252.153,41.602 253.413,41.605 254.189 C 41.608 254.965,42.148 256.631,42.805 257.891 C 43.462 259.152,44.000 260.477,44.000 260.836 C 44.000 261.195,45.080 263.822,46.400 266.674 C 47.720 269.525,48.800 272.221,48.800 272.663 C 48.800 273.105,49.070 273.587,49.400 273.733 C 49.730 273.880,51.209 276.415,52.686 279.366 C 65.670 305.307,94.715 334.408,120.400 347.209 C 123.480 348.744,126.120 350.270,126.267 350.600 C 126.413 350.930,126.895 351.200,127.337 351.200 C 127.779 351.200,130.475 352.280,133.326 353.600 C 136.178 354.920,138.955 356.000,139.496 356.000 C 140.037 356.000,140.822 356.309,141.240 356.686 C 141.658 357.063,144.700 358.188,148.000 359.186 C 151.300 360.184,154.720 361.291,155.600 361.646 C 156.480 362.001,158.280 362.446,159.600 362.635 C 160.920 362.824,163.620 363.363,165.600 363.833 C 180.856 367.451,211.891 368.618,222.800 365.984 C 225.440 365.347,228.906 364.819,230.502 364.812 C 232.099 364.806,234.697 364.260,236.277 363.600 C 237.856 362.940,240.219 362.400,241.527 362.400 C 242.835 362.400,244.103 362.080,244.345 361.688 C 244.587 361.297,245.959 360.802,247.393 360.589 C 250.048 360.194,253.690 359.022,258.000 357.176 C 259.320 356.611,263.100 355.057,266.400 353.722 C 274.547 350.429,282.899 346.076,287.740 342.600 C 289.119 341.610,290.469 340.800,290.740 340.800 C 296.793 340.800,340.800 296.793,340.800 290.740 C 340.800 290.469,341.610 289.119,342.600 287.740 C 346.076 282.899,350.429 274.547,353.722 266.400 C 355.057 263.100,356.611 259.320,357.176 258.000 C 359.022 253.690,360.194 250.048,360.589 247.393 C 360.802 245.959,361.297 244.587,361.688 244.345 C 362.080 244.103,362.400 242.835,362.400 241.527 C 362.400 240.219,362.940 237.856,363.600 236.277 C 364.260 234.697,364.806 232.099,364.812 230.502 C 364.819 228.906,365.347 225.440,365.984 222.800 C 368.629 211.847,367.463 180.731,363.841 165.600 C 363.367 163.620,362.824 160.920,362.635 159.600 C 362.446 158.280,362.006 156.480,361.658 155.600 C 361.309 154.720,360.401 151.840,359.640 149.200 C 356.030 136.678,354.546 136.433,345.258 146.829 C 341.706 150.805,336.559 156.565,333.820 159.629 C 328.795 165.249,327.202 170.000,329.523 172.440 C 330.817 173.799,332.399 189.737,332.339 200.800 C 332.244 218.114,328.492 237.395,322.686 250.400 C 306.881 285.803,284.956 307.541,249.200 323.261 C 229.527 331.910,198.621 334.860,176.000 330.248 C 174.020 329.844,170.780 329.208,168.800 328.834 C 166.820 328.460,164.300 327.805,163.200 327.378 C 162.100 326.951,159.220 325.984,156.800 325.228 C 152.058 323.748,150.390 323.047,142.400 319.175 C 136.966 316.542,136.453 316.264,129.984 312.453 C 120.996 307.158,105.484 293.793,98.790 285.576 C 94.086 279.800,89.523 273.517,88.017 270.737 C 85.912 266.852,84.523 264.523,84.000 264.000 C 83.061 263.061,77.066 249.899,75.254 244.800 C 63.367 211.340,65.953 169.463,81.693 140.541 C 88.561 127.922,90.484 125.027,98.531 115.200 C 104.644 107.734,114.040 98.911,121.959 93.200 C 123.179 92.320,124.587 91.220,125.089 90.755 C 125.590 90.291,126.540 89.657,127.200 89.346 C 127.860 89.036,129.480 88.091,130.800 87.246 C 132.913 85.893,134.794 84.821,140.541 81.693 C 163.113 69.409,210.467 63.288,227.600 70.439 C 228.480 70.806,230.820 71.465,232.800 71.903 C 240.752 73.662,247.103 75.796,254.495 79.195 C 255.647 79.724,257.267 80.032,258.095 79.879 C 260.375 79.456,278.635 54.801,278.045 52.942 C 277.636 51.653,262.912 44.000,260.840 44.000 C 260.479 44.000,259.152 43.462,257.891 42.805 C 256.631 42.148,254.965 41.608,254.189 41.605 C 253.413 41.602,252.153 41.261,251.389 40.847 C 250.079 40.137,246.468 39.100,237.200 36.771 C 235.000 36.219,231.040 35.472,228.400 35.111 C 225.760 34.750,221.980 34.099,220.000 33.663 C 215.643 32.703,184.088 32.708,179.600 33.669 M217.575 34.836 C 223.529 35.516,229.497 36.413,230.838 36.829 C 232.178 37.246,235.058 37.819,237.238 38.104 C 239.417 38.388,241.560 38.890,242.000 39.218 C 242.440 39.547,244.060 40.070,245.600 40.381 C 255.231 42.325,276.195 51.314,276.589 53.668 C 276.798 54.913,263.408 73.272,259.269 77.415 C 258.014 78.672,254.761 78.315,250.800 76.486 C 245.191 73.895,242.259 72.800,240.933 72.800 C 240.156 72.800,239.178 72.508,238.760 72.151 C 237.849 71.373,228.718 69.299,218.800 67.618 C 204.866 65.255,182.749 66.338,168.800 70.067 C 159.120 72.654,157.881 73.016,154.800 74.160 C 147.366 76.919,135.200 82.654,135.200 83.400 C 135.200 83.730,134.742 84.000,134.183 84.000 C 125.744 84.000,84.000 125.744,84.000 134.183 C 84.000 134.742,83.730 135.200,83.400 135.200 C 82.879 135.200,79.760 141.427,76.389 149.200 C 74.685 153.128,73.027 157.793,72.124 161.200 C 71.658 162.960,70.747 166.380,70.101 168.800 C 65.413 186.352,65.185 214.524,69.613 229.200 C 70.011 230.520,70.578 233.138,70.874 235.018 C 71.169 236.897,71.723 238.629,72.105 238.865 C 72.487 239.101,72.800 239.981,72.800 240.820 C 72.800 241.659,73.380 243.708,74.089 245.373 C 74.797 247.038,75.834 249.480,76.391 250.800 C 89.424 281.640,112.032 305.817,140.971 319.864 C 153.865 326.122,154.369 326.317,165.200 329.212 C 189.836 335.798,215.234 335.139,242.000 327.219 C 252.520 324.106,267.472 316.405,278.561 308.387 C 290.240 299.943,310.497 278.163,313.893 270.400 C 314.181 269.740,315.111 268.120,315.959 266.800 C 317.413 264.537,321.217 256.916,323.547 251.600 C 326.203 245.540,327.612 241.181,330.400 230.400 C 334.475 214.646,334.304 175.765,330.131 169.011 C 329.375 167.789,331.152 164.404,334.440 160.800 C 338.515 156.333,341.668 152.784,346.739 146.954 C 353.711 138.938,355.885 138.993,357.809 147.234 C 358.061 148.315,358.870 151.180,359.607 153.600 C 367.119 178.279,368.143 207.699,362.461 235.600 C 359.170 251.760,351.646 270.358,341.780 286.722 C 329.153 307.665,307.665 329.153,286.722 341.780 C 270.358 351.646,251.760 359.170,235.600 362.461 C 207.777 368.127,178.543 367.104,153.600 359.593 C 151.180 358.864,148.300 358.065,147.200 357.818 C 146.100 357.570,144.490 356.880,143.622 356.284 C 142.754 355.688,141.433 355.200,140.687 355.200 C 139.940 355.200,138.310 354.693,137.065 354.074 C 135.819 353.455,130.951 351.080,126.246 348.797 C 121.541 346.514,115.277 343.061,112.327 341.123 C 109.377 339.185,106.809 337.600,106.621 337.600 C 106.182 337.600,97.263 330.773,93.600 327.635 C 89.296 323.947,75.126 309.679,71.319 305.200 C 58.553 290.180,43.664 261.519,40.371 245.626 C 40.055 244.101,39.523 242.301,39.188 241.626 C 38.395 240.031,36.804 232.177,35.941 225.600 C 32.825 201.869,32.829 196.989,35.984 174.400 C 37.072 166.612,40.799 150.935,41.801 149.933 C 42.130 149.603,42.400 148.686,42.400 147.894 C 42.400 147.102,42.907 145.272,43.527 143.827 C 44.147 142.382,45.842 138.320,47.294 134.800 C 49.805 128.715,52.937 122.477,56.133 117.200 C 56.932 115.880,57.836 114.260,58.141 113.600 C 58.447 112.940,60.776 109.340,63.318 105.600 C 76.844 85.699,97.828 66.659,119.004 55.073 C 121.143 53.903,124.131 52.266,125.646 51.435 C 127.161 50.604,131.280 48.739,134.800 47.289 C 138.320 45.840,142.382 44.147,143.827 43.527 C 145.272 42.907,147.102 42.400,147.894 42.400 C 148.686 42.400,149.603 42.130,149.933 41.801 C 150.527 41.207,153.950 40.263,164.000 37.922 C 168.958 36.767,174.044 35.956,185.600 34.476 C 194.111 33.386,206.057 33.521,217.575 34.836 " stroke="none" fill="#777777" fill-rule="evenodd"></path><path id="path3" d="M0.000 200.000 L 0.000 400.000 200.000 400.000 L 400.000 400.000 400.000 200.000 L 400.000 0.000 200.000 0.000 L 0.000 0.000 0.000 200.000 M220.000 33.663 C 221.980 34.099,225.760 34.750,228.400 35.111 C 231.040 35.472,235.000 36.219,237.200 36.771 C 246.468 39.100,250.079 40.137,251.389 40.847 C 252.153 41.261,253.413 41.602,254.189 41.605 C 254.965 41.608,256.631 42.148,257.891 42.805 C 259.152 43.462,260.479 44.000,260.840 44.000 C 262.912 44.000,277.636 51.653,278.045 52.942 C 278.635 54.801,260.375 79.456,258.095 79.879 C 257.267 80.032,255.647 79.724,254.495 79.195 C 247.103 75.796,240.752 73.662,232.800 71.903 C 230.820 71.465,228.480 70.806,227.600 70.439 C 210.467 63.288,163.113 69.409,140.541 81.693 C 134.794 84.821,132.913 85.893,130.800 87.246 C 129.480 88.091,127.860 89.036,127.200 89.346 C 126.540 89.657,125.590 90.291,125.089 90.755 C 124.587 91.220,123.179 92.320,121.959 93.200 C 114.040 98.911,104.644 107.734,98.531 115.200 C 90.484 125.027,88.561 127.922,81.693 140.541 C 65.953 169.463,63.367 211.340,75.254 244.800 C 77.066 249.899,83.061 263.061,84.000 264.000 C 84.523 264.523,85.912 266.852,88.017 270.737 C 89.523 273.517,94.086 279.800,98.790 285.576 C 105.484 293.793,120.996 307.158,129.984 312.453 C 136.453 316.264,136.966 316.542,142.400 319.175 C 150.390 323.047,152.058 323.748,156.800 325.228 C 159.220 325.984,162.100 326.951,163.200 327.378 C 164.300 327.805,166.820 328.460,168.800 328.834 C 170.780 329.208,174.020 329.844,176.000 330.248 C 198.621 334.860,229.527 331.910,249.200 323.261 C 284.956 307.541,306.881 285.803,322.686 250.400 C 328.492 237.395,332.244 218.114,332.339 200.800 C 332.399 189.737,330.817 173.799,329.523 172.440 C 327.202 170.000,328.795 165.249,333.820 159.629 C 336.559 156.565,341.706 150.805,345.258 146.829 C 354.546 136.433,356.030 136.678,359.640 149.200 C 360.401 151.840,361.309 154.720,361.658 155.600 C 362.006 156.480,362.446 158.280,362.635 159.600 C 362.824 160.920,363.367 163.620,363.841 165.600 C 367.463 180.731,368.629 211.847,365.984 222.800 C 365.347 225.440,364.819 228.906,364.812 230.502 C 364.806 232.099,364.260 234.697,363.600 236.277 C 362.940 237.856,362.400 240.219,362.400 241.527 C 362.400 242.835,362.080 244.103,361.688 244.345 C 361.297 244.587,360.802 245.959,360.589 247.393 C 360.194 250.048,359.022 253.690,357.176 258.000 C 356.611 259.320,355.057 263.100,353.722 266.400 C 350.429 274.547,346.076 282.899,342.600 287.740 C 341.610 289.119,340.800 290.469,340.800 290.740 C 340.800 296.793,296.793 340.800,290.740 340.800 C 290.469 340.800,289.119 341.610,287.740 342.600 C 282.899 346.076,274.547 350.429,266.400 353.722 C 263.100 355.057,259.320 356.611,258.000 357.176 C 253.690 359.022,250.048 360.194,247.393 360.589 C 245.959 360.802,244.587 361.297,244.345 361.688 C 244.103 362.080,242.835 362.400,241.527 362.400 C 240.219 362.400,237.856 362.940,236.277 363.600 C 234.697 364.260,232.099 364.806,230.502 364.812 C 228.906 364.819,225.440 365.347,222.800 365.984 C 211.891 368.618,180.856 367.451,165.600 363.833 C 163.620 363.363,160.920 362.824,159.600 362.635 C 158.280 362.446,156.480 362.001,155.600 361.646 C 154.720 361.291,151.300 360.184,148.000 359.186 C 144.700 358.188,141.658 357.063,141.240 356.686 C 140.822 356.309,140.037 356.000,139.496 356.000 C 138.955 356.000,136.178 354.920,133.326 353.600 C 130.475 352.280,127.779 351.200,127.337 351.200 C 126.895 351.200,126.413 350.930,126.267 350.600 C 126.120 350.270,123.480 348.744,120.400 347.209 C 94.715 334.408,65.670 305.307,52.686 279.366 C 51.209 276.415,49.730 273.880,49.400 273.733 C 49.070 273.587,48.800 273.105,48.800 272.663 C 48.800 272.221,47.720 269.525,46.400 266.674 C 45.080 263.822,44.000 261.195,44.000 260.836 C 44.000 260.477,43.462 259.152,42.805 257.891 C 42.148 256.631,41.608 254.965,41.605 254.189 C 41.602 253.413,41.266 252.153,40.858 251.389 C 39.740 249.298,37.600 241.912,37.600 240.147 C 37.600 239.294,37.060 237.303,36.400 235.723 C 35.740 234.144,35.200 231.670,35.200 230.225 C 35.200 228.781,34.666 225.080,34.014 222.000 C 32.583 215.246,32.345 186.488,33.665 179.909 C 34.140 177.539,34.810 173.620,35.152 171.200 C 35.495 168.780,36.226 165.000,36.776 162.800 C 38.746 154.921,40.133 149.974,40.815 148.400 C 41.195 147.520,41.736 145.630,42.017 144.200 C 42.298 142.770,42.859 141.600,43.264 141.600 C 43.669 141.600,44.000 140.858,44.000 139.951 C 44.000 138.597,51.721 121.936,54.358 117.600 C 54.759 116.940,56.770 113.610,58.827 110.200 C 60.883 106.790,62.888 104.000,63.283 104.000 C 63.677 104.000,64.000 103.602,64.000 103.115 C 64.000 102.370,68.173 96.480,69.607 95.200 C 69.853 94.980,70.885 93.720,71.899 92.400 C 75.631 87.543,87.289 75.958,93.636 70.800 C 99.601 65.953,102.323 64.000,103.115 64.000 C 103.602 64.000,104.000 63.677,104.000 63.283 C 104.000 62.888,106.790 60.883,110.200 58.827 C 113.610 56.770,116.940 54.759,117.600 54.358 C 121.936 51.721,138.597 44.000,139.951 44.000 C 140.858 44.000,141.600 43.669,141.600 43.264 C 141.600 42.859,142.770 42.298,144.200 42.017 C 145.630 41.736,147.520 41.195,148.400 40.815 C 149.925 40.155,154.515 38.860,162.400 36.864 C 164.380 36.363,168.340 35.594,171.200 35.154 C 174.060 34.714,177.840 34.046,179.600 33.669 C 184.088 32.708,215.643 32.703,220.000 33.663 M313.885 56.192 C 329.499 68.398,353.600 95.694,353.600 101.172 C 353.600 102.760,349.240 108.005,331.630 127.600 C 328.466 131.120,323.402 136.880,320.376 140.400 C 317.351 143.920,314.290 147.340,313.574 148.000 C 312.859 148.660,308.986 152.980,304.966 157.600 C 296.687 167.116,288.994 175.873,285.286 180.000 C 283.903 181.540,278.661 187.480,273.638 193.200 C 268.615 198.920,263.941 204.171,263.252 204.870 C 262.564 205.568,260.020 208.425,257.600 211.219 C 249.403 220.682,246.120 224.390,242.744 228.000 C 240.892 229.980,238.349 232.860,237.093 234.400 C 235.838 235.940,234.448 237.598,234.005 238.085 C 230.179 242.289,220.628 252.983,215.145 259.200 C 211.460 263.380,208.254 266.980,208.021 267.200 C 207.788 267.420,205.259 270.297,202.399 273.593 C 190.645 287.142,188.993 288.800,187.238 288.800 C 185.062 288.800,110.400 213.467,110.400 211.272 C 110.400 209.509,128.386 178.928,130.903 176.411 C 132.826 174.489,134.078 175.548,157.070 198.535 C 180.222 221.682,180.627 222.004,182.653 218.912 C 183.333 217.874,184.386 216.524,184.992 215.912 C 186.125 214.770,198.587 198.265,202.705 192.453 C 203.973 190.664,205.267 189.020,205.581 188.800 C 205.894 188.580,208.953 184.620,212.378 180.000 C 215.802 175.380,219.368 170.660,220.302 169.511 C 221.236 168.362,222.540 166.625,223.200 165.649 C 223.860 164.674,225.180 162.914,226.134 161.738 C 227.088 160.562,231.666 154.560,236.308 148.400 C 240.950 142.240,245.042 136.840,245.403 136.400 C 245.763 135.960,252.874 126.600,261.204 115.600 C 269.535 104.600,276.644 95.240,277.002 94.800 C 277.360 94.360,281.446 88.960,286.083 82.800 C 290.720 76.640,295.123 70.880,295.868 70.000 C 296.613 69.120,298.100 67.140,299.173 65.600 C 301.709 61.959,307.376 54.965,308.400 54.212 C 309.728 53.237,310.428 53.489,313.885 56.192 " stroke="none" fill="#ffffff" fill-rule="evenodd"></path><path id="path4" d="M308.400 54.212 C 307.376 54.965,301.709 61.959,299.173 65.600 C 298.100 67.140,296.613 69.120,295.868 70.000 C 295.123 70.880,290.720 76.640,286.083 82.800 C 281.446 88.960,277.360 94.360,277.002 94.800 C 276.644 95.240,269.535 104.600,261.204 115.600 C 252.874 126.600,245.763 135.960,245.403 136.400 C 245.042 136.840,240.950 142.240,236.308 148.400 C 231.666 154.560,227.088 160.562,226.134 161.738 C 225.180 162.914,223.860 164.674,223.200 165.649 C 222.540 166.625,221.236 168.362,220.302 169.511 C 219.368 170.660,215.802 175.380,212.378 180.000 C 208.953 184.620,205.894 188.580,205.581 188.800 C 205.267 189.020,203.973 190.664,202.705 192.453 C 198.587 198.265,186.125 214.770,184.992 215.912 C 184.386 216.524,183.333 217.874,182.653 218.912 C 180.627 222.004,180.222 221.682,157.070 198.535 C 134.078 175.548,132.826 174.489,130.903 176.411 C 128.386 178.928,110.400 209.509,110.400 211.272 C 110.400 213.467,185.062 288.800,187.238 288.800 C 188.993 288.800,190.645 287.142,202.399 273.593 C 205.259 270.297,207.788 267.420,208.021 267.200 C 208.254 266.980,211.460 263.380,215.145 259.200 C 220.628 252.983,230.179 242.289,234.005 238.085 C 234.448 237.598,235.838 235.940,237.093 234.400 C 238.349 232.860,240.892 229.980,242.744 228.000 C 246.120 224.390,249.403 220.682,257.600 211.219 C 260.020 208.425,262.564 205.568,263.252 204.870 C 263.941 204.171,268.615 198.920,273.638 193.200 C 278.661 187.480,283.903 181.540,285.286 180.000 C 288.994 175.873,296.687 167.116,304.966 157.600 C 308.986 152.980,312.859 148.660,313.574 148.000 C 314.290 147.340,317.351 143.920,320.376 140.400 C 323.402 136.880,328.466 131.120,331.630 127.600 C 349.240 108.005,353.600 102.760,353.600 101.172 C 353.600 95.694,329.499 68.398,313.885 56.192 C 310.428 53.489,309.728 53.237,308.400 54.212 " stroke="none" fill="#29e271" fill-rule="evenodd"></path></g></svg>