<svg id="svg" version="1.1" width="500" height="869" xmlns="http://www.w3.org/2000/svg" xmlns:xlink="http://www.w3.org/1999/xlink" style="display: block;"><g id="svgg"><path id="path0" d="M197.600 0.800 C 197.600 1.240,196.880 1.600,196.000 1.600 C 194.769 1.600,194.400 2.133,194.400 3.914 C 194.400 5.234,193.884 6.427,193.200 6.689 C 192.499 6.958,192.000 8.157,192.000 9.575 C 192.000 11.197,191.603 12.000,190.800 12.000 C 189.970 12.000,189.600 12.834,189.600 14.707 C 189.600 16.741,189.202 17.517,188.000 17.832 C 186.835 18.136,186.400 18.923,186.400 20.725 C 186.400 22.392,186.008 23.200,185.200 23.200 C 184.410 23.200,184.000 23.990,184.000 25.514 C 184.000 26.834,183.484 28.027,182.800 28.289 C 182.113 28.553,181.600 29.747,181.600 31.082 C 181.600 32.741,181.138 33.534,180.000 33.832 C 178.835 34.136,178.400 34.923,178.400 36.725 C 178.400 38.392,178.008 39.200,177.200 39.200 C 176.362 39.200,176.000 40.044,176.000 42.000 C 176.000 43.886,175.629 44.800,174.864 44.800 C 174.239 44.800,173.495 45.855,173.212 47.145 C 172.929 48.434,172.180 49.918,171.549 50.443 C 170.917 50.967,170.400 52.213,170.400 53.212 C 170.400 54.211,169.860 55.236,169.200 55.489 C 168.499 55.758,168.000 56.957,168.000 58.375 C 168.000 59.964,167.599 60.800,166.836 60.800 C 166.140 60.800,165.462 61.924,165.147 63.600 C 164.858 65.140,164.331 66.400,163.975 66.400 C 163.618 66.400,163.075 67.550,162.766 68.955 C 162.457 70.360,161.709 72.005,161.102 72.612 C 160.496 73.218,160.000 74.586,160.000 75.650 C 160.000 76.720,159.284 78.034,158.400 78.586 C 157.332 79.253,156.800 80.451,156.800 82.192 C 156.800 83.977,156.421 84.800,155.600 84.800 C 154.800 84.800,154.400 85.600,154.400 87.200 C 154.400 88.800,154.000 89.600,153.200 89.600 C 152.362 89.600,152.000 90.444,152.000 92.400 C 152.000 94.667,151.695 95.200,150.400 95.200 C 149.105 95.200,148.800 95.733,148.800 98.000 C 148.800 99.956,148.438 100.800,147.600 100.800 C 146.762 100.800,146.400 101.644,146.400 103.600 C 146.400 105.556,146.038 106.400,145.200 106.400 C 144.411 106.400,144.000 107.190,144.000 108.707 C 144.000 110.341,143.533 111.135,142.400 111.432 C 141.235 111.736,140.800 112.523,140.800 114.325 C 140.800 115.992,140.408 116.800,139.600 116.800 C 138.762 116.800,138.400 117.644,138.400 119.600 C 138.400 121.486,138.029 122.400,137.264 122.400 C 136.639 122.400,135.897 123.450,135.615 124.733 C 135.333 126.016,134.584 127.265,133.951 127.508 C 133.300 127.758,132.800 129.003,132.800 130.375 C 132.800 131.997,132.403 132.800,131.600 132.800 C 130.762 132.800,130.400 133.644,130.400 135.600 C 130.400 137.460,130.026 138.400,129.286 138.400 C 128.062 138.400,127.200 140.081,127.200 142.465 C 127.200 143.309,126.660 144.000,126.000 144.000 C 125.210 144.000,124.800 144.790,124.800 146.314 C 124.800 147.634,124.284 148.827,123.600 149.089 C 122.899 149.358,122.400 150.557,122.400 151.975 C 122.400 153.514,121.993 154.400,121.286 154.400 C 120.062 154.400,119.200 156.081,119.200 158.465 C 119.200 159.309,118.660 160.000,118.000 160.000 C 117.197 160.000,116.800 160.803,116.800 162.425 C 116.800 163.843,116.301 165.042,115.600 165.311 C 114.916 165.573,114.400 166.766,114.400 168.086 C 114.400 169.531,113.981 170.400,113.286 170.400 C 112.078 170.400,111.200 172.076,111.200 174.380 C 111.200 175.177,110.660 176.036,110.000 176.289 C 109.299 176.558,108.800 177.757,108.800 179.175 C 108.800 180.797,108.403 181.600,107.600 181.600 C 106.762 181.600,106.400 182.444,106.400 184.400 C 106.400 186.286,106.029 187.200,105.264 187.200 C 104.636 187.200,103.876 188.344,103.566 189.755 C 103.257 191.160,102.509 192.805,101.902 193.412 C 101.296 194.018,100.800 195.350,100.800 196.372 C 100.800 197.393,100.260 198.436,99.600 198.689 C 98.940 198.943,98.400 200.061,98.400 201.175 C 98.400 202.289,97.680 203.920,96.800 204.800 C 95.920 205.680,95.200 207.300,95.200 208.400 C 95.200 209.644,94.747 210.400,94.000 210.400 C 93.170 210.400,92.800 211.234,92.800 213.107 C 92.800 215.141,92.402 215.917,91.200 216.232 C 90.035 216.536,89.600 217.323,89.600 219.125 C 89.600 220.792,89.208 221.600,88.400 221.600 C 87.562 221.600,87.200 222.444,87.200 224.400 C 87.200 226.356,86.838 227.200,86.000 227.200 C 85.211 227.200,84.800 227.990,84.800 229.507 C 84.800 231.141,84.333 231.935,83.200 232.232 C 82.035 232.536,81.600 233.323,81.600 235.125 C 81.600 236.792,81.208 237.600,80.400 237.600 C 79.562 237.600,79.200 238.444,79.200 240.400 C 79.200 242.356,78.838 243.200,78.000 243.200 C 77.211 243.200,76.800 243.990,76.800 245.507 C 76.800 247.141,76.333 247.935,75.200 248.232 C 74.035 248.536,73.600 249.323,73.600 251.125 C 73.600 252.792,73.208 253.600,72.400 253.600 C 71.562 253.600,71.200 254.444,71.200 256.400 C 71.200 258.356,70.838 259.200,70.000 259.200 C 69.162 259.200,68.800 260.044,68.800 262.000 C 68.800 264.267,68.495 264.800,67.200 264.800 C 65.969 264.800,65.600 265.333,65.600 267.114 C 65.600 268.434,65.084 269.627,64.400 269.889 C 63.699 270.158,63.200 271.357,63.200 272.775 C 63.200 274.397,62.803 275.200,62.000 275.200 C 61.162 275.200,60.800 276.044,60.800 278.000 C 60.800 280.267,60.495 280.800,59.200 280.800 C 57.952 280.800,57.600 281.333,57.600 283.225 C 57.600 284.643,57.101 285.842,56.400 286.111 C 55.716 286.373,55.200 287.566,55.200 288.886 C 55.200 290.327,54.781 291.200,54.089 291.200 C 53.459 291.200,52.757 292.378,52.467 293.923 C 52.186 295.420,51.426 296.849,50.778 297.098 C 50.099 297.358,49.600 298.577,49.600 299.975 C 49.600 301.597,49.203 302.400,48.400 302.400 C 47.597 302.400,47.200 303.203,47.200 304.825 C 47.200 306.197,46.700 307.442,46.049 307.692 C 45.416 307.935,44.673 309.159,44.397 310.412 C 44.122 311.664,43.380 313.118,42.749 313.643 C 42.117 314.167,41.600 315.408,41.600 316.400 C 41.600 317.392,41.060 318.652,40.400 319.200 C 39.740 319.748,39.200 320.996,39.200 321.974 C 39.200 322.952,38.480 324.404,37.600 325.200 C 36.720 325.996,36.000 327.503,36.000 328.549 C 36.000 329.595,35.460 330.657,34.800 330.911 C 34.060 331.195,33.600 332.411,33.600 334.086 C 33.600 335.965,33.231 336.800,32.400 336.800 C 31.562 336.800,31.200 337.644,31.200 339.600 C 31.200 341.867,30.895 342.400,29.600 342.400 C 28.305 342.400,28.000 342.933,28.000 345.200 C 28.000 347.156,27.638 348.000,26.800 348.000 C 26.000 348.000,25.600 348.800,25.600 350.400 C 25.600 352.000,25.200 352.800,24.400 352.800 C 23.562 352.800,23.200 353.644,23.200 355.600 C 23.200 357.867,22.895 358.400,21.600 358.400 C 20.305 358.400,20.000 358.933,20.000 361.200 C 20.000 363.156,19.638 364.000,18.800 364.000 C 18.000 364.000,17.600 364.800,17.600 366.400 C 17.600 367.967,17.196 368.800,16.436 368.800 C 15.740 368.800,15.062 369.924,14.747 371.600 C 14.446 373.204,13.747 374.400,13.111 374.400 C 12.375 374.400,12.000 375.344,12.000 377.200 C 12.000 379.156,11.638 380.000,10.800 380.000 C 9.970 380.000,9.600 380.834,9.600 382.707 C 9.600 384.741,9.202 385.517,8.000 385.832 C 6.941 386.109,6.400 386.923,6.400 388.240 C 6.400 389.334,5.860 390.436,5.200 390.689 C 4.499 390.958,4.000 392.157,4.000 393.575 C 4.000 395.628,3.693 396.000,2.000 396.000 L 0.000 396.000 0.000 404.000 L 0.000 412.000 2.000 412.000 C 3.244 412.000,4.000 412.453,4.000 413.200 C 4.000 413.860,4.498 414.400,5.107 414.400 C 5.715 414.400,6.402 415.120,6.632 416.000 C 6.862 416.880,7.624 417.600,8.325 417.600 C 9.208 417.600,9.600 418.337,9.600 420.000 C 9.600 421.600,10.000 422.400,10.800 422.400 C 11.467 422.400,12.000 423.111,12.000 424.000 C 12.000 424.880,12.511 425.600,13.136 425.600 C 13.761 425.600,14.510 426.680,14.800 428.000 C 15.090 429.320,15.839 430.400,16.464 430.400 C 17.089 430.400,17.600 431.120,17.600 432.000 C 17.600 432.889,18.133 433.600,18.800 433.600 C 19.558 433.600,20.000 434.364,20.000 435.675 C 20.000 437.077,20.519 437.885,21.600 438.168 C 22.486 438.400,23.200 439.259,23.200 440.093 C 23.200 440.922,23.740 441.600,24.400 441.600 C 25.200 441.600,25.600 442.400,25.600 444.000 C 25.600 445.600,26.000 446.400,26.800 446.400 C 27.467 446.400,28.000 447.111,28.000 448.000 C 28.000 449.067,28.533 449.600,29.600 449.600 C 30.844 449.600,31.200 450.133,31.200 452.000 C 31.200 453.600,31.600 454.400,32.400 454.400 C 33.067 454.400,33.600 455.111,33.600 456.000 C 33.600 456.880,34.111 457.600,34.736 457.600 C 35.361 457.600,36.110 458.680,36.400 460.000 C 36.690 461.320,37.439 462.400,38.064 462.400 C 38.689 462.400,39.200 463.120,39.200 464.000 C 39.200 464.880,39.711 465.600,40.336 465.600 C 40.961 465.600,41.710 466.680,42.000 468.000 C 42.290 469.320,42.817 470.400,43.170 470.400 C 43.524 470.400,44.002 471.120,44.232 472.000 C 44.462 472.880,45.224 473.600,45.925 473.600 C 46.639 473.600,47.200 474.261,47.200 475.102 C 47.200 475.928,47.740 477.052,48.400 477.600 C 49.060 478.148,49.600 479.272,49.600 480.098 C 49.600 480.924,50.098 481.600,50.707 481.600 C 51.315 481.600,52.002 482.320,52.232 483.200 C 52.462 484.080,53.224 484.800,53.925 484.800 C 54.808 484.800,55.200 485.537,55.200 487.200 C 55.200 488.800,55.600 489.600,56.400 489.600 C 57.067 489.600,57.600 490.311,57.600 491.200 C 57.600 492.267,58.133 492.800,59.200 492.800 C 60.444 492.800,60.800 493.333,60.800 495.200 C 60.800 496.800,61.200 497.600,62.000 497.600 C 62.667 497.600,63.200 498.311,63.200 499.200 C 63.200 500.089,63.733 500.800,64.400 500.800 C 65.158 500.800,65.600 501.564,65.600 502.875 C 65.600 504.277,66.119 505.085,67.200 505.368 C 68.086 505.600,68.800 506.459,68.800 507.293 C 68.800 508.122,69.340 508.800,70.000 508.800 C 70.800 508.800,71.200 509.600,71.200 511.200 C 71.200 512.800,71.600 513.600,72.400 513.600 C 73.067 513.600,73.600 514.311,73.600 515.200 C 73.600 516.267,74.133 516.800,75.200 516.800 C 76.444 516.800,76.800 517.333,76.800 519.200 C 76.800 520.800,77.200 521.600,78.000 521.600 C 78.667 521.600,79.200 522.311,79.200 523.200 C 79.200 524.080,79.711 524.800,80.336 524.800 C 80.961 524.800,81.710 525.880,82.000 527.200 C 82.290 528.520,83.039 529.600,83.664 529.600 C 84.289 529.600,84.800 530.320,84.800 531.200 C 84.800 532.089,85.333 532.800,86.000 532.800 C 86.751 532.800,87.200 533.558,87.200 534.825 C 87.200 535.939,87.705 537.044,88.321 537.280 C 88.938 537.517,89.624 538.406,89.846 539.255 C 90.068 540.105,90.824 540.800,91.525 540.800 C 92.356 540.800,92.800 541.505,92.800 542.825 C 92.800 543.939,93.340 545.057,94.000 545.311 C 94.660 545.564,95.200 546.453,95.200 547.286 C 95.200 548.267,95.763 548.800,96.800 548.800 C 97.979 548.800,98.400 549.333,98.400 550.825 C 98.400 551.939,98.940 553.057,99.600 553.311 C 100.260 553.564,100.800 554.453,100.800 555.286 C 100.800 556.119,101.340 556.800,102.000 556.800 C 102.660 556.800,103.200 557.327,103.200 557.972 C 103.200 558.616,103.920 559.529,104.800 560.000 C 105.736 560.501,106.400 561.675,106.400 562.828 C 106.400 564.048,106.858 564.800,107.600 564.800 C 108.267 564.800,108.800 565.511,108.800 566.400 C 108.800 567.289,109.333 568.000,110.000 568.000 C 110.758 568.000,111.200 568.764,111.200 570.075 C 111.200 571.477,111.719 572.285,112.800 572.568 C 113.686 572.800,114.400 573.659,114.400 574.493 C 114.400 575.322,114.940 576.000,115.600 576.000 C 116.400 576.000,116.800 576.800,116.800 578.400 C 116.800 580.000,117.200 580.800,118.000 580.800 C 118.660 580.800,119.200 581.374,119.200 582.075 C 119.200 582.776,119.920 583.538,120.800 583.768 C 121.933 584.065,122.400 584.859,122.400 586.493 C 122.400 588.010,122.811 588.800,123.600 588.800 C 124.267 588.800,124.800 589.511,124.800 590.400 C 124.800 591.280,125.311 592.000,125.936 592.000 C 126.561 592.000,127.310 593.080,127.600 594.400 C 127.890 595.720,128.639 596.800,129.264 596.800 C 129.889 596.800,130.400 597.520,130.400 598.400 C 130.400 599.289,130.933 600.000,131.600 600.000 C 132.351 600.000,132.800 600.758,132.800 602.025 C 132.800 603.139,133.326 604.252,133.970 604.499 C 134.613 604.746,135.357 605.635,135.623 606.474 C 135.890 607.313,136.624 608.000,137.254 608.000 C 137.994 608.000,138.400 608.850,138.400 610.400 C 138.400 612.000,138.800 612.800,139.600 612.800 C 140.267 612.800,140.800 613.511,140.800 614.400 C 140.800 615.467,141.333 616.000,142.400 616.000 C 143.644 616.000,144.000 616.533,144.000 618.400 C 144.000 620.000,144.400 620.800,145.200 620.800 C 145.867 620.800,146.400 621.511,146.400 622.400 C 146.400 623.280,146.911 624.000,147.536 624.000 C 148.161 624.000,148.910 625.080,149.200 626.400 C 149.490 627.720,150.239 628.800,150.864 628.800 C 151.489 628.800,152.000 629.520,152.000 630.400 C 152.000 631.289,152.533 632.000,153.200 632.000 C 153.860 632.000,154.400 632.694,154.400 633.543 C 154.400 634.391,154.870 635.561,155.445 636.143 C 156.019 636.724,156.728 637.830,157.020 638.600 C 157.311 639.370,158.101 640.000,158.775 640.000 C 159.449 640.000,160.000 640.681,160.000 641.514 C 160.000 642.347,160.540 643.236,161.200 643.489 C 161.860 643.743,162.400 644.861,162.400 645.975 C 162.400 647.242,162.849 648.000,163.600 648.000 C 164.260 648.000,164.800 648.574,164.800 649.275 C 164.800 649.976,165.520 650.738,166.400 650.968 C 167.533 651.265,168.000 652.059,168.000 653.693 C 168.000 655.210,168.411 656.000,169.200 656.000 C 169.867 656.000,170.400 656.711,170.400 657.600 C 170.400 658.480,170.911 659.200,171.536 659.200 C 172.161 659.200,172.910 660.280,173.200 661.600 C 173.490 662.920,174.239 664.000,174.864 664.000 C 175.489 664.000,176.000 664.720,176.000 665.600 C 176.000 666.489,176.533 667.200,177.200 667.200 C 178.000 667.200,178.400 668.000,178.400 669.600 C 178.400 671.467,178.756 672.000,180.000 672.000 C 181.067 672.000,181.600 672.533,181.600 673.600 C 181.600 674.489,182.133 675.200,182.800 675.200 C 183.600 675.200,184.000 676.000,184.000 677.600 C 184.000 679.200,184.400 680.000,185.200 680.000 C 185.867 680.000,186.400 680.711,186.400 681.600 C 186.400 682.667,186.933 683.200,188.000 683.200 C 189.244 683.200,189.600 683.733,189.600 685.600 C 189.600 687.200,190.000 688.000,190.800 688.000 C 191.467 688.000,192.000 688.711,192.000 689.600 C 192.000 690.489,192.533 691.200,193.200 691.200 C 193.947 691.200,194.400 691.956,194.400 693.200 C 194.400 695.128,194.587 695.200,199.591 695.200 C 205.372 695.200,208.000 693.769,208.000 690.622 C 208.000 689.536,208.485 688.800,209.200 688.800 C 209.860 688.800,210.400 688.122,210.400 687.293 C 210.400 686.459,211.114 685.600,212.000 685.368 C 213.081 685.085,213.600 684.277,213.600 682.875 C 213.600 681.564,214.042 680.800,214.800 680.800 C 215.467 680.800,216.000 680.089,216.000 679.200 C 216.000 678.311,216.533 677.600,217.200 677.600 C 218.038 677.600,218.400 676.756,218.400 674.800 C 218.400 672.533,218.705 672.000,220.000 672.000 C 220.889 672.000,221.600 671.467,221.600 670.800 C 221.600 670.140,222.140 669.600,222.800 669.600 C 223.638 669.600,224.000 668.756,224.000 666.800 C 224.000 664.533,224.305 664.000,225.600 664.000 C 226.480 664.000,227.200 663.499,227.200 662.886 C 227.200 662.273,227.740 661.564,228.400 661.311 C 229.101 661.042,229.600 659.843,229.600 658.425 C 229.600 656.803,229.997 656.000,230.800 656.000 C 231.460 656.000,232.000 655.460,232.000 654.800 C 232.000 654.140,232.549 653.600,233.220 653.600 C 233.943 653.600,234.641 652.594,234.934 651.131 C 235.205 649.773,235.916 648.475,236.514 648.246 C 237.111 648.016,237.600 647.327,237.600 646.714 C 237.600 646.101,238.140 645.600,238.800 645.600 C 239.460 645.600,240.000 644.936,240.000 644.124 C 240.000 643.312,240.720 641.996,241.600 641.200 C 242.480 640.404,243.200 639.268,243.200 638.676 C 243.200 638.084,243.740 637.600,244.400 637.600 C 245.060 637.600,245.600 637.034,245.600 636.343 C 245.600 635.651,246.140 634.546,246.800 633.886 C 247.460 633.226,248.000 632.033,248.000 631.236 C 248.000 630.439,248.720 629.598,249.600 629.368 C 250.480 629.138,251.200 628.415,251.200 627.760 C 251.200 627.106,251.740 626.364,252.400 626.111 C 253.060 625.857,253.600 624.739,253.600 623.625 C 253.600 622.358,254.049 621.600,254.800 621.600 C 255.467 621.600,256.000 620.889,256.000 620.000 C 256.000 619.099,256.533 618.400,257.220 618.400 C 257.936 618.400,258.638 617.408,258.920 616.000 C 259.184 614.680,259.895 613.600,260.500 613.600 C 261.105 613.600,261.600 612.880,261.600 612.000 C 261.600 611.120,262.111 610.400,262.736 610.400 C 263.361 610.400,264.103 609.350,264.385 608.067 C 264.667 606.784,265.416 605.535,266.049 605.292 C 266.682 605.049,267.200 604.299,267.200 603.625 C 267.200 602.951,267.740 602.400,268.400 602.400 C 269.189 602.400,269.600 601.610,269.600 600.093 C 269.600 598.459,270.067 597.665,271.200 597.368 C 272.080 597.138,272.800 596.415,272.800 595.760 C 272.800 595.106,273.340 594.364,274.000 594.111 C 274.701 593.842,275.200 592.643,275.200 591.225 C 275.200 589.603,275.597 588.800,276.400 588.800 C 277.060 588.800,277.600 588.302,277.600 587.693 C 277.600 587.085,278.320 586.398,279.200 586.168 C 280.365 585.864,280.800 585.077,280.800 583.275 C 280.800 581.608,281.192 580.800,282.000 580.800 C 282.660 580.800,283.200 580.260,283.200 579.600 C 283.200 578.940,283.740 578.400,284.400 578.400 C 285.238 578.400,285.600 577.556,285.600 575.600 C 285.600 573.333,285.905 572.800,287.200 572.800 C 288.089 572.800,288.800 572.267,288.800 571.600 C 288.800 570.940,289.340 570.400,290.000 570.400 C 290.730 570.400,291.200 569.655,291.200 568.498 C 291.200 567.452,291.740 566.148,292.400 565.600 C 293.060 565.052,293.600 564.108,293.600 563.502 C 293.600 562.896,294.133 562.400,294.785 562.400 C 295.436 562.400,296.786 560.607,297.785 558.416 C 298.783 556.225,300.043 554.425,300.585 554.416 C 301.126 554.407,302.386 552.607,303.385 550.416 C 304.383 548.225,305.650 546.425,306.200 546.416 C 306.750 546.407,307.200 545.860,307.200 545.200 C 307.200 544.540,307.920 543.280,308.800 542.400 C 309.680 541.520,310.400 540.260,310.400 539.600 C 310.400 538.940,310.940 538.400,311.600 538.400 C 312.260 538.400,312.800 537.719,312.800 536.886 C 312.800 536.053,313.340 535.164,314.000 534.911 C 314.660 534.657,315.200 533.539,315.200 532.425 C 315.200 531.105,315.644 530.400,316.475 530.400 C 317.176 530.400,317.932 529.705,318.154 528.855 C 318.376 528.006,319.062 527.117,319.679 526.880 C 320.295 526.644,320.800 525.539,320.800 524.425 C 320.800 523.158,321.249 522.400,322.000 522.400 C 322.667 522.400,323.200 521.689,323.200 520.800 C 323.200 519.899,323.733 519.200,324.420 519.200 C 325.130 519.200,325.837 518.217,326.110 516.851 C 326.368 515.559,327.079 514.311,327.690 514.076 C 328.300 513.842,328.800 513.099,328.800 512.425 C 328.800 511.751,329.340 511.200,330.000 511.200 C 330.838 511.200,331.200 510.356,331.200 508.400 C 331.200 506.133,331.505 505.600,332.800 505.600 C 333.689 505.600,334.400 505.067,334.400 504.400 C 334.400 503.740,334.940 503.200,335.600 503.200 C 336.438 503.200,336.800 502.356,336.800 500.400 C 336.800 498.444,337.162 497.600,338.000 497.600 C 338.660 497.600,339.200 497.102,339.200 496.493 C 339.200 495.885,339.920 495.198,340.800 494.968 C 341.965 494.664,342.400 493.877,342.400 492.075 C 342.400 490.408,342.792 489.600,343.600 489.600 C 344.260 489.600,344.800 489.060,344.800 488.400 C 344.800 487.740,345.349 487.200,346.020 487.200 C 346.743 487.200,347.441 486.194,347.734 484.731 C 348.005 483.373,348.716 482.075,349.314 481.846 C 349.911 481.616,350.400 480.927,350.400 480.314 C 350.400 479.701,350.940 479.200,351.600 479.200 C 352.260 479.200,352.800 478.536,352.800 477.724 C 352.800 476.912,353.520 475.596,354.400 474.800 C 355.280 474.004,356.000 472.868,356.000 472.276 C 356.000 471.684,356.540 471.200,357.200 471.200 C 357.860 471.200,358.400 470.519,358.400 469.686 C 358.400 468.853,358.940 467.964,359.600 467.711 C 360.260 467.457,360.800 466.339,360.800 465.225 C 360.800 463.905,361.244 463.200,362.075 463.200 C 362.776 463.200,363.532 462.505,363.754 461.655 C 363.976 460.806,364.662 459.917,365.279 459.680 C 365.895 459.444,366.400 458.339,366.400 457.225 C 366.400 455.958,366.849 455.200,367.600 455.200 C 368.267 455.200,368.800 454.489,368.800 453.600 C 368.800 452.699,369.333 452.000,370.020 452.000 C 370.730 452.000,371.437 451.017,371.710 449.651 C 371.968 448.359,372.679 447.111,373.290 446.876 C 373.900 446.642,374.400 445.899,374.400 445.225 C 374.400 444.551,374.940 444.000,375.600 444.000 C 376.400 444.000,376.800 443.200,376.800 441.600 C 376.800 439.937,377.192 439.200,378.075 439.200 C 378.776 439.200,379.538 438.480,379.768 437.600 C 379.998 436.720,380.685 436.000,381.293 436.000 C 381.990 436.000,382.400 435.110,382.400 433.600 C 382.400 431.937,382.792 431.200,383.675 431.200 C 384.376 431.200,385.132 430.505,385.354 429.655 C 385.576 428.806,386.262 427.917,386.879 427.680 C 387.499 427.442,388.000 426.167,388.000 424.825 C 388.000 423.203,388.397 422.400,389.200 422.400 C 389.860 422.400,390.400 421.860,390.400 421.200 C 390.400 420.540,390.901 420.000,391.514 420.000 C 392.738 420.000,393.600 418.319,393.600 415.935 C 393.600 415.091,394.140 414.400,394.800 414.400 C 395.460 414.400,396.000 413.860,396.000 413.200 C 396.000 412.453,396.756 412.000,398.000 412.000 C 399.995 412.000,400.000 411.981,400.000 404.292 C 400.000 397.097,399.867 396.460,398.000 394.730 C 396.863 393.676,396.000 391.986,396.000 390.813 C 396.000 389.678,395.482 388.551,394.849 388.308 C 394.216 388.065,393.462 386.792,393.173 385.479 C 392.885 384.166,392.143 382.898,391.525 382.660 C 390.906 382.423,390.400 381.187,390.400 379.914 C 390.400 378.390,389.990 377.600,389.200 377.600 C 388.397 377.600,388.000 376.797,388.000 375.175 C 388.000 373.833,387.499 372.558,386.879 372.319 C 386.262 372.083,385.526 370.654,385.242 369.145 C 384.936 367.512,384.256 366.400,383.564 366.400 C 382.801 366.400,382.400 365.564,382.400 363.975 C 382.400 362.557,381.901 361.358,381.200 361.089 C 380.516 360.827,380.000 359.634,380.000 358.314 C 380.000 356.533,379.631 356.000,378.400 356.000 C 377.105 356.000,376.800 355.467,376.800 353.200 C 376.800 351.244,376.438 350.400,375.600 350.400 C 374.762 350.400,374.400 349.556,374.400 347.600 C 374.400 345.644,374.038 344.800,373.200 344.800 C 372.411 344.800,372.000 344.010,372.000 342.493 C 372.000 340.859,371.533 340.065,370.400 339.768 C 369.235 339.464,368.800 338.677,368.800 336.875 C 368.800 335.208,368.408 334.400,367.600 334.400 C 366.762 334.400,366.400 333.556,366.400 331.600 C 366.400 329.644,366.038 328.800,365.200 328.800 C 364.392 328.800,364.000 327.992,364.000 326.325 C 364.000 324.523,363.565 323.736,362.400 323.432 C 361.267 323.135,360.800 322.341,360.800 320.707 C 360.800 319.190,360.389 318.400,359.600 318.400 C 358.762 318.400,358.400 317.556,358.400 315.600 C 358.400 313.644,358.038 312.800,357.200 312.800 C 356.392 312.800,356.000 311.992,356.000 310.325 C 356.000 308.523,355.565 307.736,354.400 307.432 C 353.285 307.140,352.800 306.341,352.800 304.792 C 352.800 303.556,352.268 302.367,351.600 302.111 C 350.899 301.842,350.400 300.643,350.400 299.225 C 350.400 297.603,350.003 296.800,349.200 296.800 C 348.401 296.800,348.000 296.001,348.000 294.407 C 348.000 292.880,347.421 291.652,346.400 291.014 C 345.457 290.425,344.800 289.149,344.800 287.906 C 344.800 286.745,344.260 285.348,343.600 284.800 C 342.940 284.252,342.400 283.128,342.400 282.302 C 342.400 281.476,341.680 280.080,340.800 279.200 C 339.920 278.320,339.200 276.689,339.200 275.575 C 339.200 274.461,338.660 273.343,338.000 273.089 C 337.312 272.825,336.800 271.631,336.800 270.289 C 336.800 268.948,336.288 267.753,335.600 267.489 C 334.940 267.236,334.400 266.347,334.400 265.514 C 334.400 264.681,333.680 263.280,332.800 262.400 C 331.920 261.520,331.200 259.900,331.200 258.800 C 331.200 257.556,330.747 256.800,330.000 256.800 C 329.197 256.800,328.800 255.997,328.800 254.375 C 328.800 252.957,328.301 251.758,327.600 251.489 C 326.940 251.236,326.400 250.377,326.400 249.580 C 326.400 247.276,325.522 245.600,324.314 245.600 C 323.607 245.600,323.200 244.714,323.200 243.175 C 323.200 241.757,322.701 240.558,322.000 240.289 C 321.316 240.027,320.800 238.834,320.800 237.514 C 320.800 235.990,320.390 235.200,319.600 235.200 C 318.792 235.200,318.400 234.392,318.400 232.725 C 318.400 230.923,317.965 230.136,316.800 229.832 C 315.598 229.517,315.200 228.741,315.200 226.707 C 315.200 224.834,314.830 224.000,314.000 224.000 C 313.200 224.000,312.800 223.200,312.800 221.600 C 312.800 220.000,312.400 219.200,311.600 219.200 C 310.792 219.200,310.400 218.392,310.400 216.725 C 310.400 214.923,309.965 214.136,308.800 213.832 C 307.598 213.517,307.200 212.741,307.200 210.707 C 307.200 208.834,306.830 208.000,306.000 208.000 C 305.197 208.000,304.800 207.197,304.800 205.575 C 304.800 204.157,304.301 202.958,303.600 202.689 C 302.940 202.436,302.400 201.334,302.400 200.240 C 302.400 198.923,301.859 198.109,300.800 197.832 C 299.598 197.517,299.200 196.741,299.200 194.707 C 299.200 192.834,298.830 192.000,298.000 192.000 C 297.192 192.000,296.800 191.192,296.800 189.525 C 296.800 187.723,296.365 186.936,295.200 186.632 C 294.067 186.335,293.600 185.541,293.600 183.907 C 293.600 182.390,293.189 181.600,292.400 181.600 C 291.562 181.600,291.200 180.756,291.200 178.800 C 291.200 176.844,290.838 176.000,290.000 176.000 C 289.162 176.000,288.800 175.156,288.800 173.200 C 288.800 170.933,288.495 170.400,287.200 170.400 C 285.914 170.400,285.600 169.867,285.600 167.686 C 285.600 166.011,285.140 164.795,284.400 164.511 C 283.740 164.257,283.200 163.208,283.200 162.178 C 283.200 161.148,282.671 159.607,282.025 158.753 C 281.379 157.899,280.839 156.570,280.825 155.800 C 280.811 155.030,280.080 153.680,279.200 152.800 C 278.320 151.920,277.600 150.524,277.600 149.698 C 277.600 148.872,277.060 147.748,276.400 147.200 C 275.740 146.652,275.200 145.337,275.200 144.277 C 275.200 143.217,274.695 142.156,274.079 141.919 C 273.462 141.683,272.726 140.254,272.442 138.745 C 272.136 137.112,271.456 136.000,270.764 136.000 C 269.967 136.000,269.600 135.117,269.600 133.200 C 269.600 131.244,269.238 130.400,268.400 130.400 C 267.597 130.400,267.200 129.597,267.200 127.975 C 267.200 126.603,266.700 125.358,266.049 125.108 C 265.416 124.865,264.662 123.592,264.373 122.279 C 264.085 120.966,263.343 119.698,262.725 119.460 C 262.106 119.223,261.600 117.987,261.600 116.714 C 261.600 115.190,261.190 114.400,260.400 114.400 C 259.592 114.400,259.200 113.592,259.200 111.925 C 259.200 110.123,258.765 109.336,257.600 109.032 C 256.398 108.717,256.000 107.941,256.000 105.907 C 256.000 104.034,255.630 103.200,254.800 103.200 C 254.000 103.200,253.600 102.400,253.600 100.800 C 253.600 99.200,253.200 98.400,252.400 98.400 C 251.562 98.400,251.200 97.556,251.200 95.600 C 251.200 93.333,250.895 92.800,249.600 92.800 C 248.305 92.800,248.000 92.267,248.000 90.000 C 248.000 88.044,247.638 87.200,246.800 87.200 C 245.997 87.200,245.600 86.397,245.600 84.775 C 245.600 83.357,245.101 82.158,244.400 81.889 C 243.716 81.627,243.200 80.434,243.200 79.114 C 243.200 77.333,242.831 76.800,241.600 76.800 C 240.305 76.800,240.000 76.267,240.000 74.000 C 240.000 72.044,239.638 71.200,238.800 71.200 C 237.962 71.200,237.600 70.356,237.600 68.400 C 237.600 66.444,237.238 65.600,236.400 65.600 C 235.600 65.600,235.200 64.800,235.200 63.200 C 235.200 61.333,234.844 60.800,233.600 60.800 C 232.305 60.800,232.000 60.267,232.000 58.000 C 232.000 56.044,231.638 55.200,230.800 55.200 C 229.962 55.200,229.600 54.356,229.600 52.400 C 229.600 50.444,229.238 49.600,228.400 49.600 C 227.592 49.600,227.200 48.792,227.200 47.125 C 227.200 45.323,226.765 44.536,225.600 44.232 C 224.548 43.957,224.000 43.141,224.000 41.850 C 224.000 40.769,223.460 39.346,222.800 38.686 C 222.140 38.026,221.600 36.667,221.600 35.667 C 221.600 34.666,220.880 33.196,220.000 32.400 C 219.120 31.604,218.400 30.152,218.400 29.174 C 218.400 28.196,217.860 26.948,217.200 26.400 C 216.540 25.852,216.000 24.537,216.000 23.477 C 216.000 22.417,215.495 21.356,214.879 21.119 C 214.262 20.883,213.526 19.454,213.242 17.945 C 212.936 16.312,212.256 15.200,211.564 15.200 C 210.801 15.200,210.400 14.364,210.400 12.775 C 210.400 11.357,209.901 10.158,209.200 9.889 C 208.512 9.625,208.000 8.431,208.000 7.089 C 208.000 5.748,207.488 4.553,206.800 4.289 C 206.140 4.036,205.600 3.327,205.600 2.714 C 205.600 2.101,204.880 1.600,204.000 1.600 C 203.120 1.600,202.400 1.240,202.400 0.800 C 202.400 0.360,201.320 0.000,200.000 0.000 C 198.680 0.000,197.600 0.360,197.600 0.800 M202.068 11.400 C 203.460 13.010,208.133 21.920,210.355 27.200 C 210.818 28.300,211.557 29.830,211.998 30.600 C 212.439 31.370,213.161 32.630,213.602 33.400 C 214.043 34.170,214.765 35.700,215.207 36.800 C 215.649 37.900,216.548 39.756,217.205 40.923 C 217.862 42.091,218.400 43.467,218.400 43.981 C 218.400 44.494,218.940 45.454,219.600 46.114 C 220.260 46.774,220.800 48.020,220.800 48.882 C 220.800 49.745,221.340 50.657,222.000 50.911 C 222.660 51.164,223.202 51.963,223.205 52.686 C 223.208 53.409,223.926 55.080,224.800 56.400 C 225.674 57.720,226.392 59.386,226.395 60.102 C 226.398 60.818,226.940 61.852,227.600 62.400 C 228.260 62.948,228.800 64.028,228.800 64.800 C 228.800 65.572,229.340 66.652,230.000 67.200 C 230.660 67.748,231.200 68.846,231.200 69.641 C 231.200 70.436,231.722 71.608,232.361 72.246 C 232.999 72.884,233.754 74.335,234.039 75.471 C 234.324 76.606,235.062 77.953,235.678 78.465 C 236.295 78.977,236.800 79.782,236.800 80.253 C 236.800 80.724,239.277 86.170,242.305 92.355 C 245.332 98.540,248.030 104.140,248.300 104.800 C 248.569 105.460,249.126 106.540,249.537 107.200 C 249.948 107.860,250.488 108.940,250.737 109.600 C 250.986 110.260,251.520 111.340,251.924 112.000 C 253.673 114.858,261.600 131.768,261.600 132.640 C 261.600 133.168,261.931 133.600,262.336 133.600 C 262.741 133.600,263.305 134.655,263.588 135.945 C 263.871 137.234,264.620 138.718,265.251 139.243 C 265.883 139.767,266.400 140.828,266.400 141.600 C 266.400 142.372,266.917 143.433,267.549 143.957 C 268.180 144.482,268.929 145.966,269.212 147.255 C 269.495 148.545,270.059 149.600,270.464 149.600 C 270.869 149.600,271.200 150.032,271.200 150.560 C 271.200 151.088,273.141 155.498,275.514 160.360 C 277.887 165.222,280.045 169.740,280.309 170.400 C 280.573 171.060,281.209 172.320,281.721 173.200 C 283.557 176.354,284.025 177.228,284.932 179.200 C 288.959 187.953,291.643 193.241,292.173 193.467 C 292.518 193.613,292.800 194.143,292.800 194.643 C 292.800 195.144,295.279 200.604,298.310 206.776 C 301.340 212.949,304.038 218.540,304.305 219.200 C 304.572 219.860,305.152 220.940,305.595 221.600 C 306.038 222.260,306.760 223.700,307.199 224.800 C 307.637 225.900,308.321 227.340,308.718 228.000 C 309.115 228.660,311.312 233.160,313.600 238.000 C 315.888 242.840,318.061 247.340,318.429 248.000 C 319.505 249.926,322.914 256.881,324.799 260.996 C 325.756 263.083,326.867 264.994,327.269 265.243 C 327.671 265.491,328.000 266.367,328.000 267.190 C 328.000 268.013,328.522 269.208,329.161 269.846 C 329.799 270.484,330.580 272.037,330.895 273.295 C 331.211 274.554,331.949 276.063,332.535 276.649 C 333.121 277.235,333.600 278.387,333.600 279.210 C 333.600 280.033,333.980 280.941,334.445 281.228 C 335.154 281.666,336.836 284.999,339.478 291.200 C 339.760 291.860,340.409 293.120,340.921 294.000 C 342.802 297.231,343.220 298.040,344.026 300.000 C 345.137 302.705,345.467 303.398,346.315 304.800 C 346.714 305.460,348.912 309.960,351.200 314.800 C 353.488 319.640,355.669 324.140,356.047 324.800 C 357.814 327.888,360.800 334.389,360.800 335.150 C 360.800 335.618,361.131 336.000,361.536 336.000 C 361.941 336.000,362.505 337.055,362.788 338.345 C 363.071 339.634,363.820 341.118,364.451 341.643 C 365.083 342.167,365.624 343.182,365.653 343.898 C 365.682 344.614,366.761 347.000,368.050 349.200 C 369.339 351.400,370.598 353.740,370.848 354.400 C 371.098 355.060,371.784 356.680,372.374 358.000 C 372.963 359.320,373.658 360.940,373.918 361.600 C 374.177 362.260,374.752 363.340,375.195 364.000 C 375.638 364.660,376.360 366.100,376.799 367.200 C 377.237 368.300,378.014 369.920,378.524 370.800 C 380.421 374.071,380.823 374.846,381.631 376.800 C 382.694 379.371,387.202 388.835,388.109 390.400 C 388.491 391.060,389.170 392.500,389.618 393.600 C 390.066 394.700,390.846 396.409,391.351 397.399 C 391.856 398.388,391.999 399.468,391.668 399.799 C 390.974 400.492,14.157 401.073,11.318 400.384 C 9.274 399.889,9.365 395.495,11.475 392.800 C 12.465 391.535,14.600 387.362,15.977 384.000 C 16.427 382.900,17.131 381.460,17.540 380.800 C 17.950 380.140,18.488 379.060,18.737 378.400 C 18.986 377.740,19.516 376.660,19.915 376.000 C 21.668 373.100,28.811 357.914,28.806 357.098 C 28.803 356.602,29.317 355.767,29.949 355.243 C 30.580 354.718,31.323 353.259,31.600 352.000 C 31.877 350.741,32.620 349.282,33.251 348.757 C 33.883 348.233,34.400 347.154,34.400 346.359 C 34.400 345.564,34.940 344.374,35.600 343.714 C 36.260 343.054,36.800 342.148,36.800 341.699 C 36.800 340.858,40.264 334.049,41.488 332.484 C 41.868 331.998,42.416 330.610,42.705 329.400 C 42.994 328.190,43.584 327.200,44.015 327.200 C 44.447 327.200,44.800 326.641,44.800 325.958 C 44.800 324.890,45.647 322.999,48.903 316.800 C 49.575 315.522,52.707 309.004,55.341 303.404 C 56.220 301.537,57.267 299.806,57.669 299.557 C 58.071 299.309,58.400 298.433,58.400 297.610 C 58.400 296.787,58.940 295.574,59.600 294.914 C 60.260 294.254,60.800 293.452,60.800 293.132 C 60.800 292.812,62.579 288.916,64.753 284.475 C 66.927 280.034,69.086 275.500,69.551 274.400 C 70.016 273.300,70.733 271.860,71.145 271.200 C 71.556 270.540,75.009 263.520,78.818 255.600 C 82.627 247.680,86.053 240.660,86.432 240.000 C 87.090 238.855,89.100 234.696,91.071 230.400 C 91.575 229.300,92.325 227.860,92.736 227.200 C 93.148 226.540,93.688 225.460,93.937 224.800 C 94.186 224.140,94.716 223.060,95.115 222.400 C 95.907 221.090,103.550 205.140,104.316 203.200 C 104.577 202.540,105.152 201.460,105.595 200.800 C 106.038 200.140,106.760 198.700,107.199 197.600 C 107.637 196.500,108.357 194.970,108.798 194.200 C 109.239 193.430,109.961 192.170,110.402 191.400 C 110.843 190.630,111.582 189.100,112.045 188.000 C 114.073 183.180,118.800 173.977,119.373 173.733 C 119.718 173.587,120.000 172.938,120.000 172.292 C 120.000 171.275,120.665 169.799,124.097 163.200 C 124.440 162.540,125.499 160.380,126.449 158.400 C 127.399 156.420,130.660 149.760,133.697 143.600 C 136.734 137.440,139.214 131.994,139.209 131.498 C 139.204 131.002,139.705 130.177,140.322 129.665 C 140.938 129.153,141.676 127.806,141.961 126.671 C 142.246 125.535,143.001 124.084,143.639 123.446 C 144.278 122.808,144.800 121.636,144.800 120.841 C 144.800 120.046,145.340 118.948,146.000 118.400 C 146.660 117.852,147.200 117.039,147.200 116.593 C 147.200 115.440,153.679 102.446,154.510 101.932 C 154.889 101.698,155.200 100.671,155.200 99.651 C 155.200 98.631,155.705 97.377,156.322 96.865 C 156.938 96.353,157.676 95.006,157.961 93.871 C 158.246 92.735,159.001 91.284,159.639 90.646 C 160.278 90.008,160.800 88.836,160.800 88.041 C 160.800 87.246,161.340 86.148,162.000 85.600 C 162.660 85.052,163.200 83.972,163.200 83.200 C 163.200 82.428,163.740 81.348,164.400 80.800 C 165.060 80.252,165.624 79.218,165.653 78.502 C 165.682 77.786,166.761 75.400,168.050 73.200 C 169.339 71.000,170.600 68.660,170.853 68.000 C 171.105 67.340,172.354 64.640,173.627 62.000 C 174.900 59.360,176.314 56.300,176.769 55.200 C 177.224 54.100,177.957 52.570,178.398 51.800 C 178.839 51.030,179.561 49.770,180.002 49.000 C 180.443 48.230,181.184 46.700,181.650 45.600 C 184.217 39.530,199.396 9.600,199.907 9.600 C 200.239 9.600,201.212 10.410,202.068 11.400 M392.958 405.200 C 392.826 406.520,392.281 407.960,391.749 408.400 C 391.216 408.840,390.331 410.100,389.781 411.200 C 388.833 413.099,382.462 422.641,380.934 424.450 C 380.539 424.918,379.751 426.171,379.182 427.234 C 378.613 428.297,377.754 429.580,377.274 430.085 C 376.793 430.591,375.963 431.678,375.430 432.502 C 374.896 433.326,372.466 437.001,370.030 440.668 C 367.593 444.336,365.600 447.627,365.600 447.983 C 365.600 448.338,365.060 448.836,364.400 449.089 C 363.740 449.343,363.200 449.936,363.200 450.407 C 363.200 451.140,360.425 455.575,359.200 456.800 C 358.226 457.774,355.200 462.389,355.200 462.900 C 355.200 463.211,354.639 464.036,353.953 464.733 C 353.267 465.430,351.540 467.800,350.115 470.000 C 348.690 472.200,346.192 475.886,344.562 478.192 C 342.933 480.497,341.600 482.747,341.600 483.192 C 341.600 483.636,341.231 484.000,340.780 484.000 C 340.329 484.000,339.615 484.910,339.192 486.021 C 338.769 487.133,338.052 488.483,337.597 489.021 C 334.459 492.737,333.592 493.966,333.170 495.295 C 332.907 496.123,332.356 496.800,331.946 496.800 C 331.536 496.800,331.176 497.250,331.146 497.800 C 331.117 498.350,329.492 500.960,327.536 503.600 C 325.580 506.240,323.662 509.135,323.273 510.033 C 322.885 510.931,321.989 512.145,321.283 512.731 C 320.578 513.317,320.000 514.253,320.000 514.812 C 320.000 515.371,319.460 516.036,318.800 516.289 C 318.140 516.543,317.600 517.136,317.600 517.607 C 317.600 518.340,314.825 522.775,313.600 524.000 C 312.375 525.225,309.600 529.660,309.600 530.393 C 309.600 530.864,309.060 531.457,308.400 531.711 C 307.740 531.964,307.200 532.496,307.200 532.894 C 307.200 533.291,305.940 535.413,304.400 537.608 C 302.860 539.804,300.340 543.396,298.800 545.592 C 297.260 547.787,296.000 549.947,296.000 550.392 C 296.000 550.836,295.621 551.200,295.158 551.200 C 294.695 551.200,293.940 552.280,293.480 553.600 C 293.020 554.920,292.307 556.000,291.897 556.000 C 291.486 556.000,290.915 556.630,290.629 557.400 C 289.971 559.168,286.995 563.513,286.200 563.867 C 285.870 564.013,285.600 564.431,285.600 564.795 C 285.600 565.852,281.383 572.000,280.658 572.000 C 280.296 572.000,280.000 572.364,280.000 572.808 C 280.000 573.253,278.740 575.409,277.200 577.600 C 275.660 579.791,274.400 581.947,274.400 582.392 C 274.400 582.836,274.031 583.200,273.580 583.200 C 273.129 583.200,272.415 584.110,271.992 585.221 C 271.569 586.333,270.852 587.683,270.397 588.221 C 267.376 591.799,266.400 593.112,266.400 593.600 C 266.400 593.905,265.687 595.020,264.815 596.078 C 262.265 599.170,262.038 599.499,261.009 601.600 C 260.470 602.700,258.427 605.760,256.468 608.400 C 254.510 611.040,252.883 613.650,252.854 614.200 C 252.824 614.750,252.429 615.200,251.975 615.200 C 251.521 615.200,250.915 615.830,250.629 616.600 C 250.153 617.879,247.357 622.243,246.400 623.200 C 245.175 624.425,242.400 628.860,242.400 629.593 C 242.400 630.064,241.860 630.657,241.200 630.911 C 240.540 631.164,239.976 631.783,239.946 632.286 C 239.917 632.789,238.290 635.360,236.332 638.000 C 234.373 640.640,232.335 643.700,231.802 644.800 C 231.270 645.900,230.376 647.088,229.817 647.440 C 229.258 647.792,228.800 648.563,228.800 649.154 C 228.800 649.745,228.260 650.436,227.600 650.689 C 226.940 650.943,226.400 651.646,226.400 652.252 C 226.400 652.859,225.687 654.220,224.815 655.278 C 223.943 656.335,222.912 657.583,222.523 658.050 C 222.134 658.518,221.359 659.755,220.800 660.800 C 220.241 661.845,219.461 663.082,219.066 663.550 C 217.486 665.420,211.179 674.902,210.496 676.433 C 210.095 677.331,209.189 678.545,208.483 679.131 C 207.778 679.717,207.200 680.692,207.200 681.298 C 207.200 681.904,206.821 682.400,206.358 682.400 C 205.895 682.400,205.158 683.430,204.719 684.690 C 203.017 689.569,195.200 687.926,195.200 682.688 C 195.200 682.163,194.930 681.613,194.600 681.467 C 194.270 681.320,192.920 679.580,191.600 677.600 C 190.280 675.620,188.750 673.524,188.200 672.943 C 187.650 672.361,187.200 671.371,187.200 670.743 C 187.200 670.114,186.904 669.600,186.542 669.600 C 185.791 669.600,181.600 663.433,181.600 662.328 C 181.600 661.928,181.231 661.600,180.780 661.600 C 180.329 661.600,179.624 660.790,179.212 659.800 C 178.801 658.810,177.008 656.020,175.228 653.600 C 173.448 651.180,171.749 648.660,171.453 648.000 C 171.157 647.340,169.719 645.218,168.257 643.285 C 166.796 641.352,165.600 639.282,165.600 638.685 C 165.600 638.088,165.231 637.600,164.780 637.600 C 164.329 637.600,163.618 636.700,163.200 635.600 C 162.782 634.500,162.071 633.600,161.620 633.600 C 161.169 633.600,160.800 633.272,160.800 632.872 C 160.800 631.767,156.609 625.600,155.858 625.600 C 155.496 625.600,155.200 625.251,155.200 624.824 C 155.200 624.397,153.400 621.395,151.200 618.152 C 149.000 614.910,147.200 612.019,147.200 611.728 C 147.200 611.438,146.570 610.523,145.800 609.695 C 143.262 606.966,141.600 604.490,141.600 603.437 C 141.600 602.867,141.274 602.400,140.876 602.400 C 140.478 602.400,139.160 600.690,137.948 598.600 C 136.736 596.510,135.261 594.512,134.672 594.160 C 134.082 593.808,133.600 593.201,133.600 592.810 C 133.600 592.419,131.260 588.648,128.400 584.430 C 125.540 580.212,123.200 576.489,123.200 576.158 C 123.200 575.827,122.480 574.939,121.600 574.186 C 120.720 573.432,120.000 572.272,120.000 571.608 C 120.000 570.944,119.631 570.400,119.180 570.400 C 118.729 570.400,118.018 569.500,117.600 568.400 C 117.182 567.300,116.506 566.400,116.098 566.400 C 115.690 566.400,114.970 565.410,114.498 564.200 C 114.025 562.990,111.646 559.300,109.210 556.000 C 106.774 552.700,104.430 549.280,104.001 548.400 C 103.572 547.520,101.620 544.640,99.664 542.000 C 97.708 539.360,96.083 536.750,96.054 536.200 C 96.024 535.650,95.676 535.200,95.279 535.200 C 94.644 535.200,91.390 530.572,90.496 528.400 C 90.316 527.960,89.140 526.288,87.884 524.685 C 86.628 523.082,85.600 521.427,85.600 521.009 C 85.600 520.590,84.880 519.596,84.000 518.800 C 83.120 518.004,82.400 516.898,82.400 516.343 C 82.400 515.788,82.130 515.213,81.800 515.067 C 81.470 514.920,80.120 513.180,78.800 511.200 C 77.480 509.220,75.950 507.124,75.400 506.543 C 74.850 505.961,74.400 504.971,74.400 504.343 C 74.400 503.714,74.031 503.200,73.580 503.200 C 73.129 503.200,72.418 502.300,72.000 501.200 C 71.582 500.100,70.878 499.200,70.435 499.200 C 69.993 499.200,69.405 498.300,69.129 497.200 C 68.852 496.100,68.294 495.200,67.888 495.200 C 67.482 495.200,66.911 494.570,66.618 493.800 C 66.111 492.463,59.674 482.759,53.358 473.808 C 51.731 471.503,50.400 469.241,50.400 468.783 C 50.400 468.325,49.860 467.743,49.200 467.489 C 48.540 467.236,48.000 466.740,48.000 466.386 C 48.000 465.343,43.775 459.200,43.058 459.200 C 42.696 459.200,42.400 458.834,42.400 458.388 C 42.400 457.519,37.067 449.106,35.400 447.343 C 34.850 446.761,34.400 445.771,34.400 445.143 C 34.400 444.514,34.104 444.000,33.742 444.000 C 32.991 444.000,28.800 437.833,28.800 436.728 C 28.800 436.328,28.429 436.000,27.975 436.000 C 27.521 436.000,26.915 435.370,26.629 434.600 C 26.126 433.249,23.262 428.820,22.360 428.000 C 22.118 427.780,20.427 425.260,18.602 422.400 C 16.777 419.540,14.995 416.840,14.642 416.400 C 14.289 415.960,12.921 413.980,11.602 412.000 C 10.283 410.020,8.997 408.220,8.744 408.000 C 7.830 407.207,7.260 404.775,7.711 403.598 C 8.120 402.533,30.060 402.420,200.686 402.598 L 393.200 402.800 392.958 405.200 " stroke="none" fill="#ffffff" fill-rule="evenodd"></path><path id="path1" d="M11.658 406.306 C 11.418 406.694,11.937 407.921,12.811 409.032 C 13.685 410.143,14.400 411.446,14.400 411.926 C 14.400 412.407,14.769 412.800,15.220 412.800 C 15.671 412.800,16.385 413.710,16.808 414.821 C 17.231 415.933,17.947 417.283,18.400 417.821 C 20.392 420.189,24.800 426.345,24.800 426.760 C 24.800 427.011,26.060 429.009,27.600 431.200 C 29.140 433.391,30.400 435.547,30.400 435.992 C 30.400 436.436,30.696 436.800,31.058 436.800 C 31.775 436.800,36.000 442.943,36.000 443.986 C 36.000 444.340,36.540 444.836,37.200 445.089 C 37.860 445.343,38.400 445.925,38.400 446.383 C 38.400 446.841,39.727 449.103,41.349 451.408 C 47.285 459.845,52.000 466.956,52.000 467.472 C 52.000 467.762,52.630 468.677,53.400 469.505 C 55.890 472.182,57.600 474.702,57.600 475.696 C 57.600 476.230,57.870 476.787,58.200 476.933 C 58.530 477.080,59.879 478.820,61.198 480.800 C 62.517 482.780,63.780 484.580,64.006 484.800 C 65.129 485.896,76.000 502.633,76.000 503.266 C 76.000 503.670,76.296 504.000,76.658 504.000 C 77.409 504.000,81.600 510.167,81.600 511.272 C 81.600 511.672,81.971 512.000,82.425 512.000 C 82.879 512.000,83.485 512.630,83.771 513.400 C 84.247 514.679,87.043 519.043,88.000 520.000 C 88.889 520.889,92.000 525.568,92.000 526.016 C 92.000 526.280,93.260 528.146,94.800 530.163 C 96.340 532.180,97.600 534.318,97.600 534.915 C 97.600 535.512,97.969 536.000,98.420 536.000 C 98.871 536.000,99.582 536.900,100.000 538.000 C 100.418 539.100,101.122 540.000,101.565 540.000 C 102.007 540.000,102.589 540.874,102.857 541.942 C 103.125 543.010,103.852 544.079,104.472 544.317 C 105.092 544.555,105.600 545.136,105.600 545.607 C 105.600 546.340,108.375 550.775,109.600 552.000 C 110.825 553.225,113.600 557.660,113.600 558.393 C 113.600 558.864,114.140 559.457,114.800 559.711 C 115.460 559.964,116.000 560.496,116.000 560.894 C 116.000 561.291,117.260 563.409,118.800 565.600 C 120.340 567.791,121.600 569.947,121.600 570.392 C 121.600 570.836,121.951 571.200,122.379 571.200 C 122.808 571.200,123.719 572.190,124.404 573.400 C 126.222 576.614,127.982 579.323,131.800 584.785 C 133.670 587.461,135.200 589.960,135.200 590.340 C 135.200 590.719,135.740 591.236,136.400 591.489 C 137.060 591.743,137.600 592.325,137.600 592.783 C 137.600 593.241,138.860 595.409,140.400 597.600 C 141.940 599.791,143.200 601.909,143.200 602.306 C 143.200 602.704,143.740 603.236,144.400 603.489 C 145.060 603.743,145.600 604.445,145.600 605.051 C 145.600 605.657,146.320 606.804,147.200 607.600 C 148.080 608.396,148.800 609.494,148.800 610.038 C 148.800 610.583,149.340 611.236,150.000 611.489 C 150.660 611.743,151.200 612.336,151.200 612.807 C 151.200 613.773,154.476 618.656,155.400 619.067 C 155.730 619.213,156.000 619.788,156.000 620.343 C 156.000 620.898,156.720 622.004,157.600 622.800 C 158.480 623.596,159.200 624.574,159.200 624.972 C 159.200 625.370,160.460 627.346,162.000 629.363 C 163.540 631.380,164.800 633.338,164.800 633.715 C 164.800 634.092,165.430 635.077,166.200 635.905 C 168.676 638.567,170.400 641.100,170.400 642.077 C 170.400 642.601,170.940 643.236,171.600 643.489 C 172.260 643.743,172.800 644.354,172.800 644.849 C 172.800 645.343,173.430 646.573,174.200 647.581 C 174.970 648.590,176.050 650.086,176.600 650.907 C 177.151 651.728,180.121 656.109,183.200 660.643 C 186.280 665.176,188.800 669.226,188.800 669.643 C 188.800 670.059,189.126 670.400,189.524 670.400 C 189.922 670.400,191.240 672.110,192.452 674.200 C 193.664 676.290,195.139 678.288,195.728 678.640 C 196.318 678.992,196.800 679.636,196.800 680.072 C 196.800 682.348,200.225 685.473,201.706 684.548 C 202.528 684.035,203.200 683.213,203.200 682.723 C 203.200 682.232,204.460 680.180,206.000 678.163 C 207.540 676.146,208.800 674.280,208.800 674.016 C 208.800 673.566,211.918 668.879,212.802 668.000 C 213.023 667.780,214.283 665.980,215.602 664.000 C 216.921 662.020,218.287 660.040,218.638 659.600 C 218.988 659.160,220.445 657.000,221.875 654.800 C 223.305 652.600,225.808 648.914,227.438 646.608 C 229.067 644.303,230.400 642.053,230.400 641.608 C 230.400 641.164,230.670 640.793,231.000 640.785 C 231.330 640.777,232.680 638.983,234.000 636.800 C 235.320 634.617,236.626 632.823,236.903 632.815 C 237.180 632.807,237.853 631.720,238.400 630.400 C 238.947 629.080,239.710 628.000,240.097 628.000 C 240.484 628.000,240.800 627.478,240.800 626.840 C 240.800 626.202,241.258 625.392,241.817 625.040 C 242.376 624.688,243.270 623.500,243.802 622.400 C 244.335 621.300,246.373 618.240,248.332 615.600 C 250.290 612.960,251.917 610.389,251.946 609.886 C 251.976 609.383,252.540 608.764,253.200 608.511 C 253.860 608.257,254.400 607.664,254.400 607.193 C 254.400 606.460,257.175 602.025,258.400 600.800 C 259.357 599.843,262.153 595.479,262.629 594.200 C 262.915 593.430,263.521 592.800,263.975 592.800 C 264.429 592.800,264.824 592.350,264.854 591.800 C 264.883 591.250,266.508 588.640,268.464 586.000 C 270.420 583.360,272.338 580.465,272.727 579.567 C 273.115 578.669,274.011 577.455,274.717 576.869 C 275.422 576.283,276.000 575.347,276.000 574.788 C 276.000 574.229,276.540 573.564,277.200 573.311 C 277.860 573.057,278.400 572.417,278.400 571.888 C 278.400 571.359,278.998 570.265,279.729 569.457 C 281.169 567.866,282.660 565.442,283.946 562.600 C 284.394 561.610,285.129 560.800,285.580 560.800 C 286.031 560.800,286.400 560.472,286.400 560.072 C 286.400 558.967,290.591 552.800,291.342 552.800 C 291.704 552.800,292.000 552.436,292.000 551.992 C 292.000 551.547,293.260 549.391,294.800 547.200 C 296.340 545.009,297.600 542.853,297.600 542.408 C 297.600 541.964,297.971 541.600,298.425 541.600 C 298.879 541.600,299.485 540.970,299.771 540.200 C 300.247 538.921,303.043 534.557,304.000 533.600 C 305.225 532.375,308.000 527.940,308.000 527.207 C 308.000 526.736,308.540 526.143,309.200 525.889 C 309.860 525.636,310.400 525.140,310.400 524.786 C 310.400 523.743,314.625 517.600,315.342 517.600 C 315.704 517.600,316.000 517.233,316.000 516.784 C 316.000 516.335,316.990 514.484,318.200 512.670 C 319.410 510.856,320.764 508.793,321.210 508.086 C 323.301 504.765,325.204 501.963,325.616 501.600 C 325.865 501.380,327.133 499.491,328.434 497.401 C 329.736 495.312,331.070 493.602,331.400 493.601 C 331.730 493.601,332.000 493.236,332.000 492.792 C 332.000 492.347,333.260 490.187,334.800 487.992 C 336.340 485.796,338.860 482.204,340.400 480.008 C 341.940 477.813,343.200 475.691,343.200 475.294 C 343.200 474.896,343.740 474.364,344.400 474.111 C 345.060 473.857,345.600 473.246,345.600 472.751 C 345.600 472.257,346.230 471.027,347.000 470.019 C 347.770 469.010,348.838 467.514,349.374 466.693 C 349.910 465.872,352.610 461.846,355.374 457.748 C 358.138 453.649,360.760 449.671,361.200 448.909 C 361.640 448.146,363.170 446.048,364.600 444.246 C 366.030 442.444,367.200 440.737,367.200 440.452 C 367.200 439.977,370.273 435.327,371.200 434.400 C 372.425 433.175,375.200 428.740,375.200 428.007 C 375.200 427.536,375.740 426.943,376.400 426.689 C 377.060 426.436,377.600 425.904,377.600 425.506 C 377.600 425.109,378.860 422.991,380.400 420.800 C 381.940 418.609,383.200 416.491,383.200 416.094 C 383.200 415.696,383.740 415.164,384.400 414.911 C 385.060 414.657,385.600 413.955,385.600 413.349 C 385.600 412.743,386.320 411.596,387.200 410.800 C 388.080 410.004,388.800 408.868,388.800 408.276 C 388.800 407.684,389.181 407.200,389.647 407.200 C 390.113 407.200,390.272 406.840,390.000 406.400 C 389.368 405.378,12.289 405.284,11.658 406.306 " stroke="none" fill="#499fea" fill-rule="evenodd"></path><path id="path2" d="M10.020 406.972 C 10.703 408.607,11.522 410.137,11.839 410.372 C 12.156 410.607,14.951 414.580,18.049 419.200 C 23.026 426.622,29.009 435.468,51.052 468.000 C 54.183 472.620,57.028 476.760,57.374 477.200 C 57.721 477.640,61.408 483.040,65.568 489.200 C 69.728 495.360,76.387 505.196,80.366 511.057 C 84.345 516.918,88.140 522.558,88.800 523.590 C 89.460 524.622,93.994 531.347,98.875 538.533 C 103.757 545.720,110.083 555.038,112.933 559.240 C 115.783 563.442,118.859 567.942,119.768 569.240 C 121.489 571.698,126.723 579.564,128.800 582.815 C 129.460 583.848,132.520 588.317,135.600 592.747 C 138.680 597.176,141.564 601.431,142.010 602.200 C 143.288 604.410,145.919 608.361,146.406 608.800 C 146.649 609.020,149.247 612.800,152.178 617.200 C 155.110 621.600,159.333 627.720,161.563 630.800 C 163.792 633.880,165.859 636.940,166.154 637.600 C 166.689 638.793,169.636 643.236,170.400 644.000 C 170.620 644.220,173.927 649.080,177.749 654.800 C 186.171 667.403,199.242 686.675,199.676 687.128 C 200.650 688.146,204.736 682.585,221.964 656.800 C 225.932 650.860,229.375 645.820,229.614 645.600 C 229.853 645.380,232.918 640.880,236.423 635.600 C 239.929 630.320,243.085 625.640,243.436 625.200 C 243.788 624.760,245.245 622.600,246.675 620.400 C 248.105 618.200,250.608 614.510,252.238 612.200 C 259.806 601.470,260.800 599.969,260.800 599.275 C 260.800 598.867,261.073 598.413,261.407 598.267 C 261.899 598.050,274.374 579.906,279.200 572.387 C 279.860 571.359,283.797 565.541,287.950 559.459 C 298.211 544.428,312.932 522.692,314.400 520.404 C 315.697 518.383,326.283 502.782,336.388 488.000 C 339.847 482.940,347.055 472.320,352.406 464.400 C 366.761 443.152,373.465 433.299,374.181 432.400 C 374.531 431.960,377.671 427.280,381.159 422.000 C 384.646 416.720,388.548 411.043,389.829 409.384 C 394.380 403.494,412.215 404.000,200.014 404.000 L 8.779 404.000 10.020 406.972 M390.000 406.400 C 390.272 406.840,390.113 407.200,389.647 407.200 C 389.181 407.200,388.800 407.684,388.800 408.276 C 388.800 408.868,388.080 410.004,387.200 410.800 C 386.320 411.596,385.600 412.743,385.600 413.349 C 385.600 413.955,385.060 414.657,384.400 414.911 C 383.740 415.164,383.200 415.696,383.200 416.094 C 383.200 416.491,381.940 418.609,380.400 420.800 C 378.860 422.991,377.600 425.109,377.600 425.506 C 377.600 425.904,377.060 426.436,376.400 426.689 C 375.740 426.943,375.200 427.536,375.200 428.007 C 375.200 428.740,372.425 433.175,371.200 434.400 C 370.273 435.327,367.200 439.977,367.200 440.452 C 367.200 440.737,366.030 442.444,364.600 444.246 C 363.170 446.048,361.640 448.146,361.200 448.909 C 360.760 449.671,358.138 453.649,355.374 457.748 C 352.610 461.846,349.910 465.872,349.374 466.693 C 348.838 467.514,347.770 469.010,347.000 470.019 C 346.230 471.027,345.600 472.257,345.600 472.751 C 345.600 473.246,345.060 473.857,344.400 474.111 C 343.740 474.364,343.200 474.896,343.200 475.294 C 343.200 475.691,341.940 477.813,340.400 480.008 C 338.860 482.204,336.340 485.796,334.800 487.992 C 333.260 490.187,332.000 492.347,332.000 492.792 C 332.000 493.236,331.730 493.601,331.400 493.601 C 331.070 493.602,329.736 495.312,328.434 497.401 C 327.133 499.491,325.865 501.380,325.616 501.600 C 325.204 501.963,323.301 504.765,321.210 508.086 C 320.764 508.793,319.410 510.856,318.200 512.670 C 316.990 514.484,316.000 516.335,316.000 516.784 C 316.000 517.233,315.704 517.600,315.342 517.600 C 314.625 517.600,310.400 523.743,310.400 524.786 C 310.400 525.140,309.860 525.636,309.200 525.889 C 308.540 526.143,308.000 526.736,308.000 527.207 C 308.000 527.940,305.225 532.375,304.000 533.600 C 303.043 534.557,300.247 538.921,299.771 540.200 C 299.485 540.970,298.879 541.600,298.425 541.600 C 297.971 541.600,297.600 541.964,297.600 542.408 C 297.600 542.853,296.340 545.009,294.800 547.200 C 293.260 549.391,292.000 551.547,292.000 551.992 C 292.000 552.436,291.704 552.800,291.342 552.800 C 290.591 552.800,286.400 558.967,286.400 560.072 C 286.400 560.472,286.031 560.800,285.580 560.800 C 285.129 560.800,284.394 561.610,283.946 562.600 C 282.660 565.442,281.169 567.866,279.729 569.457 C 278.998 570.265,278.400 571.359,278.400 571.888 C 278.400 572.417,277.860 573.057,277.200 573.311 C 276.540 573.564,276.000 574.229,276.000 574.788 C 276.000 575.347,275.422 576.283,274.717 576.869 C 274.011 577.455,273.115 578.669,272.727 579.567 C 272.338 580.465,270.420 583.360,268.464 586.000 C 266.508 588.640,264.883 591.250,264.854 591.800 C 264.824 592.350,264.429 592.800,263.975 592.800 C 263.521 592.800,262.915 593.430,262.629 594.200 C 262.153 595.479,259.357 599.843,258.400 600.800 C 257.175 602.025,254.400 606.460,254.400 607.193 C 254.400 607.664,253.860 608.257,253.200 608.511 C 252.540 608.764,251.976 609.383,251.946 609.886 C 251.917 610.389,250.290 612.960,248.332 615.600 C 246.373 618.240,244.335 621.300,243.802 622.400 C 243.270 623.500,242.376 624.688,241.817 625.040 C 241.258 625.392,240.800 626.202,240.800 626.840 C 240.800 627.478,240.484 628.000,240.097 628.000 C 239.710 628.000,238.947 629.080,238.400 630.400 C 237.853 631.720,237.180 632.807,236.903 632.815 C 236.626 632.823,235.320 634.617,234.000 636.800 C 232.680 638.983,231.330 640.777,231.000 640.785 C 230.670 640.793,230.400 641.164,230.400 641.608 C 230.400 642.053,229.067 644.303,227.438 646.608 C 225.808 648.914,223.305 652.600,221.875 654.800 C 220.445 657.000,218.988 659.160,218.638 659.600 C 218.287 660.040,216.921 662.020,215.602 664.000 C 214.283 665.980,213.023 667.780,212.802 668.000 C 211.918 668.879,208.800 673.566,208.800 674.016 C 208.800 674.280,207.540 676.146,206.000 678.163 C 204.460 680.180,203.200 682.232,203.200 682.723 C 203.200 683.213,202.528 684.035,201.706 684.548 C 200.225 685.473,196.800 682.348,196.800 680.072 C 196.800 679.636,196.318 678.992,195.728 678.640 C 195.139 678.288,193.664 676.290,192.452 674.200 C 191.240 672.110,189.922 670.400,189.524 670.400 C 189.126 670.400,188.800 670.059,188.800 669.643 C 188.800 669.226,186.280 665.176,183.200 660.643 C 180.121 656.109,177.151 651.728,176.600 650.907 C 176.050 650.086,174.970 648.590,174.200 647.581 C 173.430 646.573,172.800 645.343,172.800 644.849 C 172.800 644.354,172.260 643.743,171.600 643.489 C 170.940 643.236,170.400 642.601,170.400 642.077 C 170.400 641.100,168.676 638.567,166.200 635.905 C 165.430 635.077,164.800 634.092,164.800 633.715 C 164.800 633.338,163.540 631.380,162.000 629.363 C 160.460 627.346,159.200 625.370,159.200 624.972 C 159.200 624.574,158.480 623.596,157.600 622.800 C 156.720 622.004,156.000 620.898,156.000 620.343 C 156.000 619.788,155.730 619.213,155.400 619.067 C 154.476 618.656,151.200 613.773,151.200 612.807 C 151.200 612.336,150.660 611.743,150.000 611.489 C 149.340 611.236,148.800 610.583,148.800 610.038 C 148.800 609.494,148.080 608.396,147.200 607.600 C 146.320 606.804,145.600 605.657,145.600 605.051 C 145.600 604.445,145.060 603.743,144.400 603.489 C 143.740 603.236,143.200 602.704,143.200 602.306 C 143.200 601.909,141.940 599.791,140.400 597.600 C 138.860 595.409,137.600 593.241,137.600 592.783 C 137.600 592.325,137.060 591.743,136.400 591.489 C 135.740 591.236,135.200 590.719,135.200 590.340 C 135.200 589.960,133.670 587.461,131.800 584.785 C 127.982 579.323,126.222 576.614,124.404 573.400 C 123.719 572.190,122.808 571.200,122.379 571.200 C 121.951 571.200,121.600 570.836,121.600 570.392 C 121.600 569.947,120.340 567.791,118.800 565.600 C 117.260 563.409,116.000 561.291,116.000 560.894 C 116.000 560.496,115.460 559.964,114.800 559.711 C 114.140 559.457,113.600 558.864,113.600 558.393 C 113.600 557.660,110.825 553.225,109.600 552.000 C 108.375 550.775,105.600 546.340,105.600 545.607 C 105.600 545.136,105.092 544.555,104.472 544.317 C 103.852 544.079,103.125 543.010,102.857 541.942 C 102.589 540.874,102.007 540.000,101.565 540.000 C 101.122 540.000,100.418 539.100,100.000 538.000 C 99.582 536.900,98.871 536.000,98.420 536.000 C 97.969 536.000,97.600 535.512,97.600 534.915 C 97.600 534.318,96.340 532.180,94.800 530.163 C 93.260 528.146,92.000 526.280,92.000 526.016 C 92.000 525.568,88.889 520.889,88.000 520.000 C 87.043 519.043,84.247 514.679,83.771 513.400 C 83.485 512.630,82.879 512.000,82.425 512.000 C 81.971 512.000,81.600 511.672,81.600 511.272 C 81.600 510.167,77.409 504.000,76.658 504.000 C 76.296 504.000,76.000 503.670,76.000 503.266 C 76.000 502.633,65.129 485.896,64.006 484.800 C 63.780 484.580,62.517 482.780,61.198 480.800 C 59.879 478.820,58.530 477.080,58.200 476.933 C 57.870 476.787,57.600 476.230,57.600 475.696 C 57.600 474.702,55.890 472.182,53.400 469.505 C 52.630 468.677,52.000 467.762,52.000 467.472 C 52.000 466.956,47.285 459.845,41.349 451.408 C 39.727 449.103,38.400 446.841,38.400 446.383 C 38.400 445.925,37.860 445.343,37.200 445.089 C 36.540 444.836,36.000 444.340,36.000 443.986 C 36.000 442.943,31.775 436.800,31.058 436.800 C 30.696 436.800,30.400 436.436,30.400 435.992 C 30.400 435.547,29.140 433.391,27.600 431.200 C 26.060 429.009,24.800 427.011,24.800 426.760 C 24.800 426.345,20.392 420.189,18.400 417.821 C 17.947 417.283,17.231 415.933,16.808 414.821 C 16.385 413.710,15.671 412.800,15.220 412.800 C 14.769 412.800,14.400 412.407,14.400 411.926 C 14.400 411.446,13.685 410.143,12.811 409.032 C 11.937 407.921,11.418 406.694,11.658 406.306 C 12.289 405.284,389.368 405.378,390.000 406.400 " stroke="none" fill="#88bef0" fill-rule="evenodd"></path><path id="path3" d="M190.899 26.600 C 186.277 35.950,182.115 44.500,181.650 45.600 C 181.184 46.700,180.443 48.230,180.002 49.000 C 179.561 49.770,178.839 51.030,178.398 51.800 C 177.957 52.570,177.224 54.100,176.769 55.200 C 176.314 56.300,174.900 59.360,173.627 62.000 C 172.354 64.640,171.105 67.340,170.853 68.000 C 170.600 68.660,169.339 71.000,168.050 73.200 C 166.761 75.400,165.682 77.786,165.653 78.502 C 165.624 79.218,165.060 80.252,164.400 80.800 C 163.740 81.348,163.200 82.428,163.200 83.200 C 163.200 83.972,162.660 85.052,162.000 85.600 C 161.340 86.148,160.800 87.246,160.800 88.041 C 160.800 88.836,160.278 90.008,159.639 90.646 C 159.001 91.284,158.246 92.735,157.961 93.871 C 157.676 95.006,156.938 96.353,156.322 96.865 C 155.705 97.377,155.205 98.562,155.212 99.498 C 155.224 101.249,156.338 99.887,158.073 96.000 C 158.368 95.340,162.122 87.600,166.415 78.800 C 170.709 70.000,178.612 53.800,183.978 42.800 C 197.813 14.438,199.481 11.200,200.255 11.200 C 201.088 11.200,203.936 14.510,203.973 15.521 C 203.988 15.918,207.011 22.398,210.692 29.921 C 214.372 37.445,217.626 44.140,217.923 44.800 C 219.417 48.121,220.777 49.952,220.788 48.657 C 220.795 47.919,220.260 46.774,219.600 46.114 C 218.940 45.454,218.400 44.494,218.400 43.981 C 218.400 43.467,217.862 42.091,217.205 40.923 C 216.548 39.756,215.649 37.900,215.207 36.800 C 214.765 35.700,214.043 34.170,213.602 33.400 C 213.161 32.630,212.439 31.370,211.998 30.600 C 211.557 29.830,210.818 28.300,210.355 27.200 C 206.500 18.038,201.491 9.600,199.907 9.600 C 199.574 9.600,195.521 17.250,190.899 26.600 M221.468 51.818 C 221.856 52.578,224.094 57.133,226.440 61.939 C 228.787 66.746,230.855 70.235,231.036 69.693 C 231.216 69.151,230.787 68.070,230.082 67.291 C 229.377 66.512,228.800 65.316,228.800 64.635 C 228.800 63.953,228.260 62.948,227.600 62.400 C 226.940 61.852,226.398 60.818,226.395 60.102 C 226.392 59.386,225.674 57.720,224.800 56.400 C 223.926 55.080,223.208 53.409,223.205 52.686 C 223.202 51.963,222.652 51.161,221.981 50.904 C 221.042 50.543,220.924 50.752,221.468 51.818 M231.200 71.434 C 231.200 71.626,232.812 75.026,234.781 78.990 C 236.751 82.954,238.730 87.053,239.179 88.099 C 239.629 89.145,240.324 90.540,240.725 91.200 C 241.125 91.860,245.047 99.780,249.439 108.800 C 253.832 117.820,261.556 133.660,266.605 144.000 C 271.654 154.340,277.161 165.658,278.842 169.152 C 280.523 172.645,282.049 175.054,282.232 174.505 C 282.414 173.957,281.987 172.870,281.282 172.091 C 280.577 171.312,280.000 170.329,280.000 169.908 C 280.000 169.487,278.021 165.195,275.602 160.371 C 273.182 155.547,271.202 151.150,271.202 150.600 C 271.201 150.050,270.869 149.600,270.464 149.600 C 270.059 149.600,269.495 148.545,269.212 147.255 C 268.929 145.966,268.180 144.482,267.549 143.957 C 266.917 143.433,266.400 142.372,266.400 141.600 C 266.400 140.828,265.883 139.767,265.251 139.243 C 264.620 138.718,263.871 137.234,263.588 135.945 C 263.305 134.655,262.741 133.600,262.336 133.600 C 261.931 133.600,261.600 133.168,261.600 132.640 C 261.600 131.768,253.673 114.858,251.924 112.000 C 251.520 111.340,250.986 110.260,250.737 109.600 C 250.488 108.940,249.948 107.860,249.537 107.200 C 249.126 106.540,248.569 105.460,248.300 104.800 C 248.030 104.140,245.332 98.540,242.305 92.355 C 239.277 86.170,236.800 80.724,236.800 80.253 C 236.800 79.782,236.295 78.977,235.678 78.465 C 235.062 77.953,234.324 76.606,234.039 75.471 C 233.607 73.748,231.200 70.326,231.200 71.434 M153.906 102.547 C 152.434 104.917,147.223 115.653,147.212 116.337 C 147.205 116.742,146.623 117.712,145.918 118.491 C 145.213 119.270,144.780 120.340,144.956 120.868 C 145.132 121.396,147.492 117.380,150.201 111.944 C 154.360 103.597,156.285 98.716,153.906 102.547 M143.432 123.612 C 142.900 124.190,142.235 125.579,141.954 126.699 C 141.673 127.818,140.938 129.153,140.322 129.665 C 139.705 130.177,139.204 131.002,139.209 131.498 C 139.214 131.994,136.734 137.440,133.697 143.600 C 130.660 149.760,127.399 156.420,126.449 158.400 C 125.499 160.380,124.440 162.540,124.097 163.200 C 120.665 169.799,120.000 171.275,120.000 172.292 C 120.000 172.938,119.718 173.587,119.373 173.733 C 118.800 173.977,114.073 183.180,112.045 188.000 C 111.222 189.957,110.809 190.750,108.924 194.000 C 108.414 194.880,107.637 196.500,107.199 197.600 C 106.760 198.700,106.038 200.140,105.595 200.800 C 105.152 201.460,104.577 202.540,104.316 203.200 C 104.056 203.860,102.075 208.000,99.916 212.400 C 97.756 216.800,95.991 220.732,95.994 221.137 C 95.997 221.542,95.423 222.512,94.718 223.291 C 94.013 224.070,93.575 225.126,93.746 225.639 C 93.917 226.151,94.727 225.182,95.545 223.485 C 96.364 221.788,97.342 219.860,97.719 219.200 C 98.096 218.540,98.742 217.222,99.155 216.271 C 100.579 212.994,118.479 176.398,119.244 175.200 C 119.665 174.540,120.214 173.460,120.463 172.800 C 120.712 172.140,121.250 171.060,121.660 170.400 C 122.069 169.740,122.779 168.300,123.236 167.200 C 124.345 164.537,134.351 143.926,135.276 142.400 C 135.676 141.740,136.371 140.345,136.821 139.299 C 137.270 138.253,139.253 134.147,141.227 130.174 C 144.810 122.962,145.258 121.629,143.432 123.612 M282.470 176.448 C 282.651 176.914,285.550 182.854,288.911 189.648 C 292.272 196.441,298.887 209.920,303.610 219.600 C 308.333 229.280,316.293 245.529,321.299 255.708 C 326.305 265.887,330.400 274.429,330.400 274.689 C 330.400 274.949,331.119 276.340,331.997 277.781 C 332.988 279.406,333.595 279.890,333.597 279.057 C 333.599 278.319,333.121 277.235,332.535 276.649 C 331.949 276.063,331.211 274.554,330.895 273.295 C 330.580 272.037,329.799 270.484,329.161 269.846 C 328.522 269.208,328.000 268.013,328.000 267.190 C 328.000 266.367,327.671 265.491,327.269 265.243 C 326.867 264.994,325.756 263.083,324.799 260.996 C 322.914 256.881,319.505 249.926,318.429 248.000 C 317.559 246.441,309.901 230.364,309.284 228.800 C 309.023 228.140,308.448 227.060,308.005 226.400 C 307.562 225.740,306.840 224.300,306.401 223.200 C 305.963 222.100,305.273 220.660,304.868 220.000 C 303.114 217.139,292.800 195.468,292.800 194.643 C 292.800 194.143,292.518 193.613,292.173 193.467 C 291.477 193.171,286.045 182.197,285.245 179.472 C 284.966 178.522,284.153 177.262,283.439 176.672 C 282.724 176.083,282.288 175.981,282.470 176.448 M91.682 228.926 C 90.977 229.933,90.400 231.159,90.400 231.652 C 90.400 232.145,89.505 234.135,88.410 236.074 C 87.316 238.013,86.198 240.140,85.925 240.800 C 84.991 243.061,71.894 269.999,71.145 271.200 C 70.733 271.860,70.016 273.300,69.551 274.400 C 69.086 275.500,66.927 280.034,64.753 284.475 C 62.579 288.916,60.800 292.812,60.800 293.132 C 60.800 293.452,60.260 294.254,59.600 294.914 C 58.940 295.574,58.400 296.787,58.400 297.610 C 58.400 298.433,58.071 299.309,57.669 299.557 C 57.267 299.806,56.220 301.537,55.341 303.404 C 52.707 309.004,49.575 315.522,48.903 316.800 C 45.687 322.924,44.803 324.863,44.822 325.758 C 44.844 326.807,52.867 310.832,71.619 272.400 C 77.201 260.960,84.420 246.220,87.661 239.644 C 93.243 228.319,94.553 224.827,91.682 228.926 M333.696 281.289 C 333.863 281.680,337.020 288.120,340.711 295.600 C 344.402 303.080,352.791 320.180,359.355 333.600 C 365.918 347.020,371.689 358.809,372.178 359.799 C 372.668 360.788,373.246 361.420,373.463 361.204 C 373.680 360.987,373.282 359.637,372.580 358.205 C 371.877 356.772,371.098 355.060,370.848 354.400 C 370.598 353.740,369.339 351.400,368.050 349.200 C 366.761 347.000,365.682 344.614,365.653 343.898 C 365.624 343.182,365.083 342.167,364.451 341.643 C 363.820 341.118,363.071 339.634,362.788 338.345 C 362.505 337.055,361.941 336.000,361.536 336.000 C 361.131 336.000,360.800 335.618,360.800 335.150 C 360.800 334.389,357.814 327.888,356.047 324.800 C 355.669 324.140,353.488 319.640,351.200 314.800 C 348.912 309.960,346.714 305.460,346.315 304.800 C 345.467 303.398,345.137 302.705,344.026 300.000 C 343.574 298.900,342.869 297.460,342.460 296.800 C 342.050 296.140,341.512 295.060,341.263 294.400 C 341.014 293.740,340.461 292.660,340.034 292.000 C 339.608 291.340,338.366 288.764,337.274 286.275 C 336.183 283.787,334.863 281.486,334.341 281.164 C 333.819 280.841,333.529 280.897,333.696 281.289 M42.781 328.860 C 42.010 331.290,42.789 331.539,43.853 329.203 C 44.355 328.102,44.438 327.200,44.037 327.200 C 43.636 327.200,43.071 327.947,42.781 328.860 M41.084 332.987 C 39.363 335.773,36.800 340.984,36.800 341.699 C 36.800 342.148,36.260 343.054,35.600 343.714 C 34.940 344.374,34.400 345.564,34.400 346.359 C 34.400 347.154,33.883 348.233,33.251 348.757 C 32.620 349.282,31.877 350.741,31.600 352.000 C 31.323 353.259,30.580 354.718,29.949 355.243 C 29.317 355.767,28.800 356.634,28.800 357.170 C 28.800 357.705,27.000 361.679,24.800 366.000 C 22.600 370.321,20.800 374.220,20.800 374.665 C 20.800 375.110,20.223 376.112,19.518 376.891 C 18.813 377.670,18.384 378.751,18.564 379.293 C 18.745 379.835,20.724 376.526,22.962 371.939 C 25.199 367.353,30.358 356.760,34.425 348.400 C 38.493 340.040,41.972 332.930,42.157 332.600 C 42.731 331.580,41.732 331.940,41.084 332.987 M373.670 362.803 C 373.851 363.244,376.052 367.764,378.560 372.846 C 381.068 377.928,383.514 382.967,383.995 384.043 C 385.501 387.415,387.176 390.040,387.188 389.049 C 387.195 388.525,385.942 385.645,384.404 382.649 C 382.866 379.652,381.606 376.794,381.604 376.298 C 381.602 375.802,381.060 374.948,380.400 374.400 C 379.740 373.852,379.200 372.772,379.200 372.000 C 379.200 371.228,378.683 370.167,378.051 369.643 C 377.420 369.118,376.677 367.659,376.400 366.400 C 376.123 365.141,375.322 363.636,374.618 363.055 C 373.915 362.475,373.488 362.361,373.670 362.803 M16.947 381.773 C 16.426 382.294,16.000 383.059,16.000 383.472 C 16.000 384.480,12.714 391.293,11.501 392.800 C 9.370 395.448,9.263 399.886,11.318 400.384 C 14.078 401.053,390.964 400.503,391.638 399.829 C 391.952 399.514,391.622 398.020,390.905 396.508 C 390.187 394.995,389.600 393.407,389.600 392.977 C 389.600 392.547,389.060 391.748,388.400 391.200 C 386.830 389.897,386.870 390.088,389.147 394.790 C 390.550 397.688,390.822 398.944,390.139 399.378 C 388.144 400.647,11.192 400.109,10.703 398.836 C 10.458 398.197,12.079 393.986,14.305 389.480 C 18.297 381.401,18.807 379.913,16.947 381.773 M7.711 403.598 C 7.260 404.775,7.830 407.207,8.744 408.000 C 8.997 408.220,10.283 410.020,11.602 412.000 C 12.921 413.980,14.289 415.960,14.642 416.400 C 14.995 416.840,16.777 419.540,18.602 422.400 C 20.427 425.260,22.118 427.780,22.360 428.000 C 23.262 428.820,26.126 433.249,26.629 434.600 C 26.915 435.370,27.521 436.000,27.975 436.000 C 28.429 436.000,28.800 436.328,28.800 436.728 C 28.800 437.833,32.991 444.000,33.742 444.000 C 34.104 444.000,34.400 444.514,34.400 445.143 C 34.400 445.771,34.850 446.761,35.400 447.343 C 37.067 449.106,42.400 457.519,42.400 458.388 C 42.400 458.834,42.696 459.200,43.058 459.200 C 43.775 459.200,48.000 465.343,48.000 466.386 C 48.000 466.740,48.540 467.236,49.200 467.489 C 49.860 467.743,50.400 468.325,50.400 468.783 C 50.400 469.241,51.731 471.503,53.358 473.808 C 59.674 482.759,66.111 492.463,66.618 493.800 C 66.911 494.570,67.482 495.200,67.888 495.200 C 68.294 495.200,68.852 496.100,69.129 497.200 C 69.405 498.300,69.993 499.200,70.435 499.200 C 70.878 499.200,71.582 500.100,72.000 501.200 C 72.418 502.300,73.129 503.200,73.580 503.200 C 74.031 503.200,74.400 503.714,74.400 504.343 C 74.400 504.971,74.850 505.961,75.400 506.543 C 75.950 507.124,77.480 509.220,78.800 511.200 C 80.120 513.180,81.470 514.920,81.800 515.067 C 82.130 515.213,82.400 515.788,82.400 516.343 C 82.400 516.898,83.120 518.004,84.000 518.800 C 84.880 519.596,85.600 520.590,85.600 521.009 C 85.600 521.427,86.628 523.082,87.884 524.685 C 89.140 526.288,90.316 527.960,90.496 528.400 C 91.390 530.572,94.644 535.200,95.279 535.200 C 95.676 535.200,96.024 535.650,96.054 536.200 C 96.083 536.750,97.708 539.360,99.664 542.000 C 101.620 544.640,103.572 547.520,104.001 548.400 C 104.430 549.280,106.774 552.700,109.210 556.000 C 111.646 559.300,114.025 562.990,114.498 564.200 C 114.970 565.410,115.690 566.400,116.098 566.400 C 116.506 566.400,117.182 567.300,117.600 568.400 C 118.018 569.500,118.729 570.400,119.180 570.400 C 119.631 570.400,120.000 570.944,120.000 571.608 C 120.000 572.272,120.720 573.432,121.600 574.186 C 122.480 574.939,123.200 575.827,123.200 576.158 C 123.200 576.489,125.540 580.212,128.400 584.430 C 131.260 588.648,133.600 592.419,133.600 592.810 C 133.600 593.201,134.082 593.808,134.672 594.160 C 135.261 594.512,136.736 596.510,137.948 598.600 C 139.160 600.690,140.478 602.400,140.876 602.400 C 141.274 602.400,141.600 602.867,141.600 603.437 C 141.600 604.490,143.262 606.966,145.800 609.695 C 146.570 610.523,147.200 611.438,147.200 611.728 C 147.200 612.019,149.000 614.910,151.200 618.152 C 153.400 621.395,155.200 624.397,155.200 624.824 C 155.200 625.251,155.496 625.600,155.858 625.600 C 156.609 625.600,160.800 631.767,160.800 632.872 C 160.800 633.272,161.169 633.600,161.620 633.600 C 162.071 633.600,162.782 634.500,163.200 635.600 C 163.618 636.700,164.329 637.600,164.780 637.600 C 165.231 637.600,165.600 638.088,165.600 638.685 C 165.600 639.282,166.796 641.352,168.257 643.285 C 169.719 645.218,171.157 647.340,171.453 648.000 C 171.749 648.660,173.448 651.180,175.228 653.600 C 177.008 656.020,178.801 658.810,179.212 659.800 C 179.624 660.790,180.329 661.600,180.780 661.600 C 181.231 661.600,181.600 661.928,181.600 662.328 C 181.600 663.433,185.791 669.600,186.542 669.600 C 186.904 669.600,187.200 670.114,187.200 670.743 C 187.200 671.371,187.650 672.361,188.200 672.943 C 188.750 673.524,190.280 675.620,191.600 677.600 C 192.920 679.580,194.270 681.320,194.600 681.467 C 194.930 681.613,195.200 682.163,195.200 682.688 C 195.200 687.926,203.017 689.569,204.719 684.690 C 205.158 683.430,205.895 682.400,206.358 682.400 C 206.821 682.400,207.200 681.904,207.200 681.298 C 207.200 680.692,207.778 679.717,208.483 679.131 C 209.189 678.545,210.095 677.331,210.496 676.433 C 211.179 674.902,217.486 665.420,219.066 663.550 C 219.461 663.082,220.241 661.845,220.800 660.800 C 221.359 659.755,222.134 658.518,222.523 658.050 C 222.912 657.583,223.943 656.335,224.815 655.278 C 225.687 654.220,226.400 652.859,226.400 652.252 C 226.400 651.646,226.940 650.943,227.600 650.689 C 228.260 650.436,228.800 649.745,228.800 649.154 C 228.800 648.563,229.258 647.792,229.817 647.440 C 230.376 647.088,231.270 645.900,231.802 644.800 C 232.335 643.700,234.373 640.640,236.332 638.000 C 238.290 635.360,239.917 632.789,239.946 632.286 C 239.976 631.783,240.540 631.164,241.200 630.911 C 241.860 630.657,242.400 630.064,242.400 629.593 C 242.400 628.860,245.175 624.425,246.400 623.200 C 247.357 622.243,250.153 617.879,250.629 616.600 C 250.915 615.830,251.521 615.200,251.975 615.200 C 252.429 615.200,252.824 614.750,252.854 614.200 C 252.883 613.650,254.510 611.040,256.468 608.400 C 258.427 605.760,260.470 602.700,261.009 601.600 C 262.038 599.499,262.265 599.170,264.815 596.078 C 265.687 595.020,266.400 593.905,266.400 593.600 C 266.400 593.112,267.376 591.799,270.397 588.221 C 270.852 587.683,271.569 586.333,271.992 585.221 C 272.415 584.110,273.129 583.200,273.580 583.200 C 274.031 583.200,274.400 582.836,274.400 582.392 C 274.400 581.947,275.660 579.791,277.200 577.600 C 278.740 575.409,280.000 573.253,280.000 572.808 C 280.000 572.364,280.296 572.000,280.658 572.000 C 281.383 572.000,285.600 565.852,285.600 564.795 C 285.600 564.431,285.870 564.013,286.200 563.867 C 286.995 563.513,289.971 559.168,290.629 557.400 C 290.915 556.630,291.486 556.000,291.897 556.000 C 292.307 556.000,293.020 554.920,293.480 553.600 C 293.940 552.280,294.695 551.200,295.158 551.200 C 295.621 551.200,296.000 550.836,296.000 550.392 C 296.000 549.947,297.260 547.787,298.800 545.592 C 300.340 543.396,302.860 539.804,304.400 537.608 C 305.940 535.413,307.200 533.291,307.200 532.894 C 307.200 532.496,307.740 531.964,308.400 531.711 C 309.060 531.457,309.600 530.864,309.600 530.393 C 309.600 529.660,312.375 525.225,313.600 524.000 C 314.825 522.775,317.600 518.340,317.600 517.607 C 317.600 517.136,318.140 516.543,318.800 516.289 C 319.460 516.036,320.000 515.371,320.000 514.812 C 320.000 514.253,320.578 513.317,321.283 512.731 C 321.989 512.145,322.885 510.931,323.273 510.033 C 323.662 509.135,325.580 506.240,327.536 503.600 C 329.492 500.960,331.117 498.350,331.146 497.800 C 331.176 497.250,331.536 496.800,331.946 496.800 C 332.356 496.800,332.907 496.123,333.170 495.295 C 333.592 493.966,334.459 492.737,337.597 489.021 C 338.052 488.483,338.769 487.133,339.192 486.021 C 339.615 484.910,340.329 484.000,340.780 484.000 C 341.231 484.000,341.600 483.636,341.600 483.192 C 341.600 482.747,342.933 480.497,344.562 478.192 C 346.192 475.886,348.690 472.200,350.115 470.000 C 351.540 467.800,353.267 465.430,353.953 464.733 C 354.639 464.036,355.200 463.211,355.200 462.900 C 355.200 462.389,358.226 457.774,359.200 456.800 C 360.425 455.575,363.200 451.140,363.200 450.407 C 363.200 449.936,363.740 449.343,364.400 449.089 C 365.060 448.836,365.600 448.338,365.600 447.983 C 365.600 447.627,367.593 444.336,370.030 440.668 C 372.466 437.001,374.896 433.326,375.430 432.502 C 375.963 431.678,376.793 430.591,377.274 430.085 C 377.754 429.580,378.613 428.297,379.182 427.234 C 379.751 426.171,380.539 424.918,380.934 424.450 C 382.462 422.641,388.833 413.099,389.781 411.200 C 390.331 410.100,391.216 408.840,391.749 408.400 C 392.281 407.960,392.826 406.520,392.958 405.200 L 393.200 402.800 200.686 402.598 C 30.060 402.420,8.120 402.533,7.711 403.598 M391.705 405.184 C 391.955 405.836,391.111 407.726,389.829 409.384 C 388.548 411.043,384.646 416.720,381.159 422.000 C 377.671 427.280,374.531 431.960,374.181 432.400 C 373.465 433.299,366.761 443.152,352.406 464.400 C 347.055 472.320,339.847 482.940,336.388 488.000 C 326.283 502.782,315.697 518.383,314.400 520.404 C 312.932 522.692,298.211 544.428,287.950 559.459 C 283.797 565.541,279.860 571.359,279.200 572.387 C 274.374 579.906,261.899 598.050,261.407 598.267 C 261.073 598.413,260.800 598.867,260.800 599.275 C 260.800 599.969,259.806 601.470,252.238 612.200 C 250.608 614.510,248.105 618.200,246.675 620.400 C 245.245 622.600,243.788 624.760,243.436 625.200 C 243.085 625.640,239.929 630.320,236.423 635.600 C 232.918 640.880,229.853 645.380,229.614 645.600 C 229.375 645.820,225.932 650.860,221.964 656.800 C 204.736 682.585,200.650 688.146,199.676 687.128 C 199.242 686.675,186.171 667.403,177.749 654.800 C 173.927 649.080,170.620 644.220,170.400 644.000 C 169.636 643.236,166.689 638.793,166.154 637.600 C 165.859 636.940,163.792 633.880,161.563 630.800 C 159.333 627.720,155.110 621.600,152.178 617.200 C 149.247 612.800,146.649 609.020,146.406 608.800 C 145.919 608.361,143.288 604.410,142.010 602.200 C 141.564 601.431,138.680 597.176,135.600 592.747 C 132.520 588.317,129.460 583.848,128.800 582.815 C 126.723 579.564,121.489 571.698,119.768 569.240 C 118.859 567.942,115.783 563.442,112.933 559.240 C 110.083 555.038,103.757 545.720,98.875 538.533 C 93.994 531.347,89.460 524.622,88.800 523.590 C 88.140 522.558,84.345 516.918,80.366 511.057 C 76.387 505.196,69.728 495.360,65.568 489.200 C 61.408 483.040,57.721 477.640,57.374 477.200 C 57.028 476.760,54.183 472.620,51.052 468.000 C 29.009 435.468,23.026 426.622,18.049 419.200 C 14.951 414.580,12.156 410.607,11.839 410.372 C 11.522 410.137,10.703 408.607,10.020 406.972 L 8.779 404.000 200.014 404.000 C 368.143 404.000,391.305 404.143,391.705 405.184 " stroke="none" fill="#c1ddf7" fill-rule="evenodd"></path><path id="path4" d="M192.709 25.430 C 188.918 33.223,182.029 47.340,177.398 56.800 C 172.768 66.260,164.969 82.193,160.068 92.206 C 155.166 102.219,150.807 111.219,150.380 112.206 C 149.953 113.193,149.263 114.540,148.847 115.200 C 148.430 115.860,143.976 124.860,138.949 135.200 C 124.342 165.245,115.697 182.958,104.787 205.200 C 82.398 250.844,75.902 264.143,75.169 265.834 C 74.748 266.805,74.075 268.140,73.673 268.800 C 73.271 269.460,69.827 276.480,66.018 284.400 C 62.209 292.320,58.756 299.340,58.345 300.000 C 57.933 300.660,57.212 302.100,56.742 303.200 C 56.272 304.300,51.914 313.300,47.056 323.200 C 34.538 348.713,20.129 378.134,15.241 388.161 C 12.946 392.870,11.192 397.370,11.345 398.161 C 11.618 399.582,382.850 400.990,388.645 399.592 C 390.112 399.238,390.383 398.783,389.968 397.373 C 389.490 395.754,379.191 374.012,377.570 371.200 C 377.190 370.540,376.091 368.380,375.127 366.400 C 369.586 355.010,354.575 324.283,346.793 308.400 C 328.969 272.017,317.307 248.145,310.254 233.600 C 306.306 225.460,302.744 218.260,302.337 217.600 C 301.929 216.940,301.248 215.596,300.823 214.613 C 300.397 213.630,296.094 204.785,291.260 194.957 C 286.425 185.129,282.095 176.214,281.637 175.144 C 281.179 174.075,280.479 172.660,280.082 172.000 C 279.684 171.340,276.230 164.320,272.406 156.400 C 268.582 148.480,265.125 141.460,264.724 140.800 C 264.324 140.140,263.644 138.786,263.214 137.791 C 262.327 135.737,252.133 114.843,235.994 82.000 C 212.087 33.349,206.400 21.611,206.400 20.918 C 206.400 20.521,205.860 19.748,205.200 19.200 C 204.540 18.652,204.000 17.577,204.000 16.810 C 204.000 15.370,201.101 11.177,200.142 11.230 C 199.844 11.246,196.499 17.636,192.709 25.430 " stroke="none" fill="#f875ef" fill-rule="evenodd"></path></g></svg>