<svg id="svg" version="1.1" width="500" height="500" xmlns="http://www.w3.org/2000/svg" xmlns:xlink="http://www.w3.org/1999/xlink" style="display: block;"><g id="svgg"><path id="path0" d="M7.977 4.428 C 6.587 6.102,7.746 6.997,9.296 5.447 C 10.044 4.699,10.235 3.992,9.767 3.703 C 9.335 3.436,8.529 3.762,7.977 4.428 M330.064 3.896 C 329.520 4.777,331.831 6.836,332.553 6.114 C 332.835 5.831,332.625 5.600,332.086 5.600 C 331.547 5.600,331.313 5.265,331.566 4.855 C 331.819 4.446,331.685 3.900,331.268 3.642 C 330.852 3.385,330.310 3.499,330.064 3.896 M4.105 8.274 C 3.615 8.864,3.448 9.581,3.733 9.867 C 4.334 10.467,6.400 8.945,6.400 7.902 C 6.400 6.849,5.115 7.057,4.105 8.274 M333.600 7.902 C 333.600 8.925,335.952 10.714,336.533 10.133 C 337.114 9.552,335.325 7.200,334.302 7.200 C 333.916 7.200,333.600 7.516,333.600 7.902 M213.600 28.753 C 213.600 29.618,215.107 30.680,216.669 30.917 C 217.411 31.029,217.312 30.608,216.345 29.539 C 214.851 27.888,213.600 27.530,213.600 28.753 M356.289 34.212 C 355.624 34.641,355.667 35.069,356.446 35.792 C 357.119 36.416,357.697 36.491,358.005 35.992 C 358.274 35.556,358.092 35.200,357.600 35.200 C 357.108 35.200,356.928 34.840,357.200 34.400 C 357.783 33.457,357.538 33.407,356.289 34.212 M363.212 46.076 C 363.199 47.014,365.236 48.987,367.200 49.938 C 368.124 50.385,368.106 50.275,367.121 49.459 C 366.417 48.877,365.787 48.130,365.721 47.800 C 365.654 47.470,365.370 47.231,365.089 47.268 C 364.809 47.306,364.274 46.856,363.902 46.268 C 363.524 45.673,363.219 45.587,363.212 46.076 M261.468 50.302 C 262.056 50.674,262.487 51.299,262.426 51.689 C 262.365 52.080,262.965 52.532,263.758 52.693 C 265.110 52.968,265.104 52.880,263.676 51.293 C 262.838 50.362,261.758 49.606,261.276 49.612 C 260.787 49.619,260.873 49.924,261.468 50.302 M81.278 94.273 C 80.458 95.601,82.102 96.923,83.091 95.731 C 83.838 94.831,83.786 94.489,82.846 94.128 C 82.189 93.876,81.483 93.941,81.278 94.273 M110.796 227.205 C 109.997 228.088,109.581 229.048,109.872 229.338 C 110.162 229.629,110.400 229.447,110.400 228.933 C 110.400 228.420,110.724 228.090,111.120 228.200 C 111.516 228.310,111.845 228.080,111.852 227.689 C 111.858 227.299,112.344 226.674,112.932 226.302 C 113.527 225.924,113.613 225.619,113.124 225.612 C 112.642 225.606,111.594 226.322,110.796 227.205 M143.684 274.536 C 144.071 275.162,143.830 275.306,142.957 274.971 C 141.510 274.416,140.427 275.549,141.204 276.806 C 141.511 277.303,142.179 277.135,142.946 276.368 C 144.072 275.243,144.334 275.254,145.700 276.490 C 146.530 277.242,147.448 277.619,147.738 277.328 C 148.029 277.038,147.847 276.800,147.333 276.800 C 146.820 276.800,146.490 276.350,146.600 275.800 C 146.710 275.250,146.350 274.890,145.800 275.000 C 145.250 275.110,144.800 274.840,144.800 274.400 C 144.800 273.960,144.419 273.600,143.953 273.600 C 143.487 273.600,143.366 274.021,143.684 274.536 M364.533 296.133 C 363.727 297.013,363.274 297.941,363.528 298.195 C 364.067 298.734,367.200 296.073,367.200 295.076 C 367.200 293.983,366.107 294.417,364.533 296.133 M355.984 309.219 C 355.427 309.890,355.203 310.670,355.486 310.953 C 355.769 311.235,356.000 311.025,356.000 310.486 C 356.000 309.947,356.416 309.762,356.924 310.076 C 357.470 310.414,357.631 310.297,357.319 309.792 C 357.028 309.322,357.242 308.754,357.795 308.531 C 358.421 308.279,358.460 308.103,357.898 308.063 C 357.402 308.028,356.541 308.549,355.984 309.219 M334.384 334.819 C 333.827 335.490,333.595 336.261,333.867 336.533 C 334.448 337.114,336.800 335.325,336.800 334.302 C 336.800 333.200,335.496 333.479,334.384 334.819 M7.200 338.353 C 7.200 339.218,8.707 340.280,10.269 340.517 C 11.011 340.629,10.912 340.208,9.945 339.139 C 8.451 337.488,7.200 337.130,7.200 338.353 M330.055 339.139 C 328.728 340.606,328.731 340.669,330.131 340.463 C 330.939 340.345,331.479 339.962,331.332 339.613 C 331.184 339.264,331.544 338.674,332.132 338.302 C 332.727 337.924,332.813 337.619,332.324 337.612 C 331.842 337.606,330.821 338.293,330.055 339.139 " stroke="none" fill="#000000" fill-rule="evenodd"></path><path id="path1" d="M328.800 5.200 C 328.800 5.860,329.384 6.400,330.098 6.400 C 331.161 6.400,331.216 6.183,330.400 5.200 C 329.852 4.540,329.268 4.000,329.102 4.000 C 328.936 4.000,328.800 4.540,328.800 5.200 M162.384 25.219 C 161.827 25.890,161.603 26.670,161.886 26.953 C 162.169 27.235,162.400 27.025,162.400 26.486 C 162.400 25.947,162.816 25.762,163.324 26.076 C 163.870 26.414,164.031 26.297,163.719 25.792 C 163.428 25.322,163.642 24.754,164.195 24.531 C 164.821 24.279,164.860 24.103,164.298 24.063 C 163.802 24.028,162.941 24.549,162.384 25.219 M215.200 28.302 C 215.200 28.468,215.740 29.052,216.400 29.600 C 217.383 30.416,217.600 30.361,217.600 29.298 C 217.600 28.584,217.060 28.000,216.400 28.000 C 215.740 28.000,215.200 28.136,215.200 28.302 M363.200 48.400 C 363.200 49.060,363.784 49.600,364.498 49.600 C 365.561 49.600,365.616 49.383,364.800 48.400 C 364.252 47.740,363.668 47.200,363.502 47.200 C 363.336 47.200,363.200 47.740,363.200 48.400 M169.000 54.151 C 169.770 54.353,171.030 54.353,171.800 54.151 C 172.570 53.950,171.940 53.786,170.400 53.786 C 168.860 53.786,168.230 53.950,169.000 54.151 M167.360 176.160 C 166.107 177.413,166.138 178.400,167.430 178.400 C 167.996 178.400,168.514 177.680,168.580 176.800 C 168.721 174.930,168.635 174.885,167.360 176.160 M109.600 226.898 C 109.600 227.961,109.817 228.016,110.800 227.200 C 111.460 226.652,112.000 226.068,112.000 225.902 C 112.000 225.736,111.460 225.600,110.800 225.600 C 110.140 225.600,109.600 226.184,109.600 226.898 M143.196 276.002 C 141.661 276.951,142.622 277.794,144.863 277.465 C 146.382 277.241,146.482 277.050,145.505 276.246 C 144.781 275.650,143.915 275.558,143.196 276.002 M363.200 295.698 C 363.200 296.761,363.417 296.816,364.400 296.000 C 365.060 295.452,365.600 294.868,365.600 294.702 C 365.600 294.536,365.060 294.400,364.400 294.400 C 363.740 294.400,363.200 294.984,363.200 295.698 M328.800 338.898 C 328.800 339.961,329.017 340.016,330.000 339.200 C 330.660 338.652,331.200 338.068,331.200 337.902 C 331.200 337.736,330.660 337.600,330.000 337.600 C 329.340 337.600,328.800 338.184,328.800 338.898 " stroke="none" fill="#800000" fill-rule="evenodd"></path><path id="path2" d="M330.371 7.072 C 331.480 7.402,332.598 8.520,332.928 9.629 C 333.465 11.435,333.501 11.399,333.357 9.200 C 333.222 7.141,332.859 6.778,330.800 6.643 C 328.601 6.499,328.565 6.535,330.371 7.072 M344.058 19.702 C 344.161 20.926,346.806 25.020,347.289 24.704 C 347.545 24.537,348.358 24.901,349.095 25.513 C 350.266 26.484,350.372 26.459,349.933 25.313 C 349.656 24.591,348.747 24.000,347.914 24.000 C 346.966 24.000,346.400 23.438,346.400 22.498 C 346.400 21.672,345.860 20.548,345.200 20.000 C 344.540 19.452,344.026 19.318,344.058 19.702 M159.819 25.530 C 159.230 26.372,157.679 27.218,156.374 27.410 L 154.000 27.760 156.555 27.880 C 158.256 27.960,159.861 27.340,161.355 26.025 C 163.082 24.506,163.287 24.045,162.245 24.025 C 161.500 24.011,160.408 24.689,159.819 25.530 M192.533 25.467 C 192.744 26.273,193.341 26.939,193.858 26.946 C 194.376 26.953,196.060 27.209,197.600 27.514 C 200.029 27.996,200.188 27.939,198.800 27.087 C 197.920 26.546,196.724 25.630,196.143 25.052 C 194.509 23.426,192.073 23.706,192.533 25.467 M217.618 29.314 C 217.608 30.257,218.192 31.256,218.915 31.533 C 220.825 32.266,220.882 31.825,219.163 29.588 C 217.685 27.664,217.635 27.655,217.618 29.314 M133.204 30.395 C 131.977 31.752,131.944 32.000,132.990 32.000 C 133.672 32.000,134.456 31.408,134.733 30.685 C 135.489 28.716,134.837 28.592,133.204 30.395 M350.400 29.468 C 350.400 29.835,351.480 31.098,352.800 32.274 C 354.120 33.450,355.200 34.283,355.200 34.126 C 355.200 32.114,353.160 28.800,351.922 28.800 C 351.085 28.800,350.400 29.100,350.400 29.468 M118.112 33.942 C 117.412 35.010,116.201 36.041,115.420 36.234 C 113.891 36.611,117.345 36.265,119.247 35.850 C 120.447 35.588,122.331 33.631,122.375 32.600 C 122.435 31.175,119.272 32.170,118.112 33.942 M230.441 32.800 C 230.421 34.229,231.753 36.514,232.291 35.976 C 232.499 35.768,232.171 34.698,231.563 33.599 C 230.922 32.440,230.450 32.104,230.441 32.800 M107.892 38.431 C 106.733 39.734,106.077 40.800,106.435 40.800 C 107.296 40.800,109.600 38.471,109.600 37.602 C 109.600 37.225,110.230 36.753,111.000 36.551 C 111.975 36.297,112.036 36.167,111.200 36.124 C 110.540 36.090,109.051 37.128,107.892 38.431 M239.200 37.257 C 239.200 38.130,241.285 39.792,243.105 40.370 C 244.908 40.942,244.915 40.920,243.576 38.875 C 242.409 37.094,239.200 35.907,239.200 37.257 M248.331 42.090 C 248.532 43.462,250.810 45.085,251.933 44.657 C 252.303 44.515,252.301 43.590,251.928 42.600 C 251.144 40.513,248.035 40.072,248.331 42.090 M99.598 42.403 C 99.289 42.903,98.263 43.624,97.318 44.005 C 95.700 44.658,95.723 44.702,97.714 44.749 C 98.973 44.779,100.033 44.268,100.333 43.485 C 100.937 41.913,100.395 41.114,99.598 42.403 M361.010 42.106 C 361.785 42.335,362.214 42.854,361.963 43.261 C 361.711 43.667,361.917 44.000,362.419 44.000 C 363.958 44.000,362.770 42.010,361.134 41.846 C 359.840 41.716,359.820 41.757,361.010 42.106 M256.417 46.487 C 256.875 48.867,257.017 48.947,261.360 49.296 C 265.614 49.639,265.233 49.204,260.600 48.429 C 258.806 48.129,257.600 47.479,257.600 46.811 C 257.600 46.197,257.259 45.484,256.842 45.226 C 256.421 44.966,256.232 45.527,256.417 46.487 M91.200 46.800 C 91.200 47.460,90.840 48.000,90.400 48.000 C 89.960 48.000,89.600 48.349,89.600 48.775 C 89.600 49.201,90.105 49.356,90.721 49.120 C 91.996 48.630,93.032 45.600,91.925 45.600 C 91.526 45.600,91.200 46.140,91.200 46.800 M161.469 55.307 C 158.509 56.391,157.848 58.400,160.450 58.400 C 161.550 58.400,162.657 57.862,162.909 57.205 C 163.161 56.547,163.665 56.193,164.029 56.418 C 164.392 56.642,164.916 56.460,165.192 56.013 C 166.150 54.462,178.554 55.043,182.000 56.800 C 185.833 58.754,186.314 58.780,186.056 57.019 C 185.699 54.589,166.987 53.286,161.469 55.307 M368.000 56.150 C 368.000 57.077,368.673 57.926,369.600 58.168 C 370.480 58.398,371.200 59.145,371.200 59.827 C 371.200 60.509,371.382 60.884,371.606 60.661 C 371.829 60.438,371.790 59.150,371.520 57.799 C 370.940 54.902,368.000 53.525,368.000 56.150 M272.050 57.756 C 272.737 58.330,273.549 59.464,273.854 60.276 C 274.159 61.088,275.126 61.940,276.004 62.169 C 276.882 62.399,277.600 63.075,277.600 63.673 C 277.600 64.270,278.634 65.294,279.898 65.947 C 281.162 66.601,282.389 67.870,282.623 68.768 C 282.862 69.680,283.700 70.389,284.525 70.376 C 285.910 70.353,285.914 70.302,284.600 69.536 C 283.830 69.087,283.200 68.353,283.200 67.903 C 283.200 67.454,282.660 66.546,282.000 65.886 C 281.340 65.226,280.800 64.961,280.800 65.297 C 280.800 65.633,279.854 64.766,278.697 63.370 C 277.541 61.975,276.307 61.010,275.955 61.228 C 275.603 61.445,275.085 60.898,274.803 60.011 C 274.522 59.124,273.506 58.019,272.546 57.555 C 271.062 56.838,270.988 56.868,272.050 57.756 M73.600 58.847 C 73.600 59.619,73.218 59.875,72.600 59.519 C 72.050 59.202,71.865 59.236,72.188 59.593 C 72.824 60.296,69.317 62.400,67.509 62.400 C 66.899 62.400,66.400 62.940,66.400 63.600 C 66.400 64.693,66.899 64.947,68.600 64.720 C 68.930 64.676,69.122 64.351,69.026 63.999 C 68.931 63.646,70.101 62.765,71.626 62.041 C 73.938 60.944,75.726 57.600,74.000 57.600 C 73.780 57.600,73.600 58.161,73.600 58.847 M136.486 59.665 C 135.650 61.844,136.004 62.861,137.098 61.421 C 137.674 60.663,139.012 59.696,140.073 59.272 C 141.931 58.529,141.910 58.500,139.486 58.451 C 137.896 58.419,136.793 58.865,136.486 59.665 M204.867 58.692 C 206.480 60.103,209.104 60.946,208.102 59.731 C 207.498 58.999,206.448 58.400,205.769 58.400 C 205.089 58.400,204.683 58.531,204.867 58.692 M372.000 63.186 C 372.000 63.590,372.482 64.208,373.071 64.560 C 373.660 64.912,374.567 65.920,375.087 66.800 C 375.953 68.265,376.015 68.204,375.817 66.086 C 375.616 63.947,372.000 61.199,372.000 63.186 M123.212 65.000 C 123.221 66.326,123.407 66.512,123.918 65.706 C 124.299 65.104,125.104 64.299,125.706 63.918 C 126.512 63.407,126.326 63.221,125.000 63.212 C 123.659 63.203,123.203 63.659,123.212 65.000 M219.225 63.733 C 219.239 64.100,219.808 65.120,220.488 66.000 C 221.700 67.567,221.720 67.560,221.463 65.663 C 221.226 63.914,219.165 62.137,219.225 63.733 M62.195 67.899 C 61.889 69.069,62.145 69.308,63.369 68.988 C 64.471 68.699,64.644 68.398,63.952 67.970 C 63.255 67.540,63.410 67.249,64.484 66.974 C 65.829 66.629,65.808 66.575,64.293 66.493 C 63.247 66.436,62.435 66.980,62.195 67.899 M58.298 71.754 C 57.694 72.498,57.619 72.856,58.132 72.549 C 58.644 72.241,59.208 72.425,59.385 72.956 C 59.635 73.706,59.839 73.707,60.301 72.961 C 60.627 72.432,60.492 72.000,60.000 72.000 C 59.508 72.000,59.328 71.640,59.600 71.200 C 60.405 69.898,59.487 70.288,58.298 71.754 M108.200 71.765 C 107.044 71.987,106.400 72.688,106.400 73.722 C 106.400 75.693,107.857 75.324,109.429 72.956 C 110.070 71.990,110.461 71.249,110.298 71.309 C 110.134 71.369,109.190 71.574,108.200 71.765 M233.400 71.730 C 233.950 71.952,234.400 72.823,234.400 73.667 C 234.400 74.510,234.731 75.200,235.135 75.200 C 235.539 75.200,236.412 75.408,237.076 75.663 C 239.177 76.469,237.680 73.093,235.495 72.098 C 234.411 71.604,233.272 71.228,232.962 71.263 C 232.653 71.298,232.850 71.508,233.400 71.730 M286.652 72.800 C 286.763 74.302,287.298 74.847,288.800 74.990 C 290.775 75.177,290.778 75.168,289.038 74.285 C 288.070 73.792,287.103 72.807,286.891 72.095 C 286.678 71.383,286.571 71.700,286.652 72.800 M376.000 71.640 C 376.000 71.831,376.810 72.913,377.800 74.044 C 378.790 75.175,379.853 77.248,380.162 78.650 C 380.530 80.322,380.607 79.717,380.386 76.892 C 380.201 74.522,379.907 72.441,379.733 72.266 C 379.254 71.787,376.000 71.241,376.000 71.640 M54.300 75.502 C 54.245 75.776,54.142 76.270,54.072 76.600 C 53.778 77.975,51.649 81.269,50.469 82.175 C 49.380 83.011,49.370 83.151,50.400 83.162 C 51.927 83.179,53.754 82.035,53.678 81.111 C 53.554 79.617,54.546 77.596,55.202 78.001 C 56.458 78.778,56.803 76.998,55.591 75.993 C 54.936 75.449,54.355 75.228,54.300 75.502 M95.728 81.458 C 94.110 83.247,94.044 84.000,95.507 84.000 C 96.115 84.000,96.821 83.206,97.075 82.235 C 97.688 79.890,97.333 79.685,95.728 81.458 M244.818 80.600 C 244.828 80.930,245.546 82.100,246.415 83.200 L 247.995 85.200 247.119 82.600 C 246.352 80.321,244.769 78.946,244.818 80.600 M381.333 81.333 C 381.040 81.627,380.800 82.587,380.800 83.467 C 380.800 84.347,381.037 84.830,381.326 84.540 C 381.616 84.251,382.345 84.422,382.946 84.921 C 383.547 85.420,384.295 85.572,384.607 85.259 C 384.920 84.946,384.281 83.964,383.188 83.076 C 382.095 82.188,381.706 81.728,382.324 82.054 C 383.065 82.445,383.253 82.333,382.876 81.724 C 382.214 80.652,382.055 80.612,381.333 81.333 M296.400 86.400 C 298.035 88.206,299.300 88.498,299.000 87.000 C 298.748 85.739,297.531 84.828,296.076 84.812 C 295.221 84.803,295.298 85.183,296.400 86.400 M90.000 87.200 C 88.587 88.762,88.603 88.800,90.676 88.800 C 92.267 88.800,92.800 88.398,92.800 87.200 C 92.800 86.320,92.496 85.600,92.124 85.600 C 91.752 85.600,90.796 86.320,90.000 87.200 M252.024 89.585 C 251.257 90.059,251.423 90.623,252.706 91.906 C 254.614 93.814,256.809 94.339,255.305 92.526 C 254.815 91.936,254.554 91.306,254.726 91.126 C 255.419 90.402,252.966 89.003,252.024 89.585 M86.560 90.560 C 85.150 91.970,85.387 92.800,87.200 92.800 C 88.267 92.800,88.800 92.267,88.800 91.200 C 88.800 89.387,87.970 89.150,86.560 90.560 M41.627 93.093 C 40.327 94.393,40.660 95.879,42.200 95.653 C 42.970 95.540,43.606 95.122,43.612 94.724 C 43.619 94.326,43.873 93.610,44.177 93.133 C 44.882 92.028,42.726 91.994,41.627 93.093 M384.800 93.307 C 384.800 93.508,385.700 94.573,386.800 95.673 C 388.738 97.611,389.549 96.823,388.052 94.456 C 387.380 93.396,384.800 92.484,384.800 93.307 M257.200 97.756 C 258.080 98.255,259.064 99.054,259.388 99.532 C 259.781 100.112,259.980 100.122,259.988 99.560 C 260.006 98.316,258.258 96.797,256.840 96.824 C 255.921 96.842,256.014 97.083,257.200 97.756 M305.200 100.545 C 306.080 100.787,307.097 101.393,307.461 101.893 C 307.898 102.492,308.012 102.393,307.798 101.600 C 307.620 100.940,306.603 100.334,305.537 100.252 C 304.010 100.136,303.938 100.198,305.200 100.545 M75.200 104.874 C 75.200 105.502,74.529 106.434,73.709 106.946 C 71.315 108.441,70.880 111.311,73.208 110.251 C 74.901 109.479,76.604 105.137,75.606 104.139 C 75.383 103.916,75.200 104.247,75.200 104.874 M261.600 105.902 C 261.600 106.068,262.140 106.652,262.800 107.200 C 263.783 108.016,264.000 107.961,264.000 106.898 C 264.000 106.184,263.460 105.600,262.800 105.600 C 262.140 105.600,261.600 105.736,261.600 105.902 M389.410 107.399 C 389.664 108.390,390.507 109.654,391.283 110.209 C 392.060 110.764,392.845 112.204,393.028 113.409 C 393.341 115.475,393.367 115.454,393.480 113.047 C 393.546 111.643,393.230 110.266,392.779 109.987 C 392.327 109.708,392.057 108.885,392.179 108.158 C 392.300 107.431,392.040 106.822,391.600 106.806 C 391.160 106.789,390.384 106.511,389.875 106.187 C 389.234 105.779,389.091 106.152,389.410 107.399 M308.000 109.497 C 308.000 111.138,309.952 113.600,311.252 113.600 C 312.606 113.600,311.519 110.374,309.748 109.133 C 308.127 107.998,308.000 108.024,308.000 109.497 M137.901 114.770 C 137.654 115.413,136.765 116.157,135.926 116.423 C 135.087 116.690,134.400 117.225,134.400 117.612 C 134.400 119.094,138.865 116.724,138.982 115.181 C 139.121 113.324,138.541 113.103,137.901 114.770 M158.132 115.060 C 158.516 116.530,163.713 118.954,164.593 118.073 C 164.854 117.813,164.508 117.600,163.825 117.600 C 163.143 117.600,161.994 116.700,161.274 115.600 C 159.737 113.255,157.562 112.881,158.132 115.060 M68.457 115.657 C 66.854 117.261,66.689 119.820,68.274 118.505 C 68.864 118.015,69.642 117.881,70.002 118.207 C 70.362 118.533,70.388 118.334,70.059 117.765 C 69.731 117.196,69.897 116.206,70.429 115.565 C 71.759 113.963,70.072 114.042,68.457 115.657 M264.609 116.214 C 264.857 117.196,265.928 118.817,266.989 119.817 L 268.918 121.633 268.353 119.817 C 268.043 118.817,267.474 117.879,267.089 117.732 C 266.705 117.584,266.582 117.152,266.817 116.772 C 267.052 116.391,266.550 115.708,265.701 115.254 C 264.351 114.532,264.214 114.652,264.609 116.214 M165.651 119.714 C 165.603 121.319,167.720 122.947,168.648 122.019 C 168.878 121.788,168.635 121.600,168.108 121.600 C 167.580 121.600,166.823 120.790,166.425 119.800 C 165.709 118.020,165.701 118.019,165.651 119.714 M130.400 120.314 C 130.400 121.073,130.040 121.472,129.600 121.200 C 129.160 120.928,128.800 121.087,128.800 121.553 C 128.800 122.019,129.171 122.400,129.625 122.400 C 130.624 122.400,131.598 120.131,130.899 119.432 C 130.624 119.158,130.400 119.555,130.400 120.314 M312.132 121.600 C 312.073 123.140,312.289 124.760,312.612 125.200 C 313.488 126.392,316.000 126.616,316.000 125.502 C 316.000 124.969,315.777 124.756,315.505 125.029 C 314.666 125.867,312.948 123.569,312.585 121.122 C 312.266 118.974,312.232 119.009,312.132 121.600 M65.760 124.160 C 65.232 124.688,64.800 125.434,64.800 125.817 C 64.800 126.201,64.260 127.054,63.600 127.714 C 62.940 128.374,62.443 129.879,62.495 131.057 C 62.588 133.167,62.597 133.163,63.097 130.800 C 63.391 129.410,64.351 128.072,65.378 127.621 C 66.692 127.043,67.916 123.200,66.786 123.200 C 66.749 123.200,66.288 123.632,65.760 124.160 M393.600 125.635 C 393.600 126.094,394.500 127.440,395.600 128.627 C 397.881 131.087,398.149 130.583,396.379 127.160 C 395.184 124.849,393.600 123.980,393.600 125.635 M170.509 128.107 C 170.407 130.077,173.121 131.945,174.330 130.737 C 174.550 130.517,173.956 130.134,173.010 129.887 C 172.064 129.639,171.139 128.664,170.954 127.718 C 170.673 126.280,170.600 126.344,170.509 128.107 M25.800 130.355 C 24.810 131.181,24.000 132.665,24.000 133.653 C 24.000 135.373,24.084 135.351,25.999 133.124 C 28.982 129.656,28.849 127.811,25.800 130.355 M116.000 138.000 C 115.184 138.983,115.239 139.200,116.302 139.200 C 117.016 139.200,117.600 138.660,117.600 138.000 C 117.600 137.340,117.464 136.800,117.298 136.800 C 117.132 136.800,116.548 137.340,116.000 138.000 M316.333 154.000 C 316.334 162.360,316.453 165.671,316.597 161.358 C 316.741 157.046,316.740 150.206,316.596 146.158 C 316.451 142.111,316.333 145.640,316.333 154.000 M59.360 140.960 C 58.832 141.488,58.449 143.018,58.509 144.360 C 58.595 146.295,58.691 146.421,58.969 144.970 C 59.161 143.963,60.012 142.706,60.860 142.177 C 61.707 141.648,62.400 140.942,62.400 140.608 C 62.400 139.663,60.428 139.892,59.360 140.960 M23.402 146.000 C 23.411 147.760,23.574 148.386,23.766 147.391 C 23.957 146.396,23.950 144.956,23.750 144.191 C 23.549 143.426,23.393 144.240,23.402 146.000 M112.000 148.360 C 112.000 148.998,111.370 149.879,110.600 150.316 C 109.358 151.022,109.397 151.098,110.945 150.990 C 111.904 150.923,112.528 150.607,112.332 150.289 C 112.135 149.971,112.340 149.484,112.787 149.208 C 113.833 148.562,113.841 147.200,112.800 147.200 C 112.360 147.200,112.000 147.722,112.000 148.360 M21.966 156.745 C 22.219 157.154,22.099 157.692,21.699 157.939 C 20.732 158.536,20.630 167.801,21.584 168.390 C 21.994 168.644,22.127 169.380,21.879 170.026 C 21.632 170.672,21.792 171.200,22.237 171.200 C 22.727 171.200,23.027 168.212,23.000 163.600 C 22.975 159.420,22.629 156.000,22.230 156.000 C 21.832 156.000,21.713 156.335,21.966 156.745 M170.676 162.835 C 169.924 164.794,170.788 164.945,172.794 163.205 L 174.645 161.600 172.897 161.600 C 171.936 161.600,170.937 162.156,170.676 162.835 M316.202 175.600 C 316.211 177.360,316.374 177.986,316.566 176.991 C 316.757 175.996,316.750 174.556,316.550 173.791 C 316.349 173.026,316.193 173.840,316.202 175.600 M22.992 178.965 C 23.441 185.285,23.863 186.115,23.925 180.800 C 23.953 178.380,23.680 175.934,23.319 175.365 C 22.953 174.788,22.808 176.379,22.992 178.965 M168.705 176.200 C 168.653 176.750,168.653 177.470,168.705 177.800 C 168.757 178.130,168.299 178.400,167.686 178.400 C 166.548 178.400,165.237 180.704,165.962 181.429 C 166.182 181.649,166.589 181.237,166.867 180.515 C 167.144 179.792,168.053 179.200,168.886 179.200 C 169.968 179.200,170.400 178.629,170.400 177.200 C 170.400 175.202,168.885 174.308,168.705 176.200 M266.600 186.113 C 264.915 187.933,264.170 190.400,265.306 190.400 C 266.325 190.400,268.800 186.913,268.800 185.478 C 268.800 183.700,268.847 183.686,266.600 186.113 M110.400 187.886 C 110.400 188.295,110.912 188.825,111.538 189.065 C 112.164 189.306,112.835 190.334,113.029 191.351 C 113.347 193.017,113.393 192.985,113.491 191.028 C 113.563 189.599,113.053 188.563,112.000 188.000 C 111.098 187.517,110.400 187.467,110.400 187.886 M313.324 188.663 C 312.524 189.547,312.032 191.368,312.082 193.263 L 312.164 196.400 312.788 193.767 C 313.131 192.319,313.994 190.491,314.706 189.704 C 315.418 188.918,316.000 188.032,316.000 187.737 C 316.000 186.730,314.651 187.197,313.324 188.663 M58.822 191.592 C 59.424 194.445,62.400 196.781,62.400 194.400 C 62.400 193.960,62.051 193.600,61.626 193.600 C 61.200 193.600,60.281 192.610,59.584 191.400 L 58.317 189.200 58.822 191.592 M162.133 192.533 C 161.840 192.827,161.642 193.997,161.693 195.133 C 161.754 196.489,161.911 196.718,162.151 195.800 C 162.353 195.030,162.872 194.400,163.306 194.400 C 163.740 194.400,163.891 194.071,163.642 193.668 C 163.394 193.266,163.642 192.754,164.195 192.531 C 164.857 192.265,164.767 192.105,163.933 192.063 C 163.237 192.028,162.427 192.240,162.133 192.533 M25.151 197.065 C 25.952 197.651,26.880 199.541,27.212 201.265 L 27.816 204.400 27.908 201.160 C 28.003 197.804,26.947 196.000,24.887 196.000 C 23.962 196.000,24.021 196.239,25.151 197.065 M62.657 201.193 C 62.759 202.897,63.261 203.667,64.400 203.865 C 65.860 204.119,65.883 204.050,64.667 203.072 C 63.935 202.482,63.150 201.280,62.924 200.400 C 62.684 199.467,62.573 199.798,62.657 201.193 M263.613 202.324 C 263.313 204.101,262.827 205.476,262.533 205.378 C 262.240 205.280,261.941 205.520,261.868 205.911 C 261.796 206.301,261.256 206.926,260.668 207.298 C 259.956 207.750,259.915 207.980,260.543 207.988 C 262.766 208.017,266.091 201.024,264.575 199.509 C 264.346 199.280,263.913 200.546,263.613 202.324 M113.600 201.953 C 113.600 202.587,114.016 203.362,114.524 203.676 C 115.135 204.054,115.228 203.893,114.800 203.200 C 114.359 202.487,114.464 202.345,115.129 202.756 C 115.870 203.214,115.804 203.691,114.852 204.742 C 112.835 206.971,113.233 208.133,115.638 207.037 C 118.657 205.662,117.855 200.852,114.600 200.812 C 114.050 200.806,113.600 201.319,113.600 201.953 M159.385 205.468 C 158.827 205.823,158.040 207.264,157.637 208.672 C 157.182 210.256,157.188 211.055,157.651 210.768 C 158.063 210.514,158.400 209.787,158.400 209.153 C 158.400 208.519,158.747 208.000,159.172 208.000 C 159.596 208.000,160.329 207.280,160.800 206.400 C 161.691 204.735,161.126 204.363,159.385 205.468 M309.257 206.057 C 308.566 206.749,308.013 208.279,308.028 209.457 L 308.057 211.600 309.164 209.600 C 309.772 208.500,310.561 207.600,310.917 207.600 C 311.272 207.600,311.659 206.970,311.776 206.200 C 312.042 204.461,310.917 204.398,309.257 206.057 M29.351 209.318 C 30.314 209.527,31.283 210.306,31.505 211.049 C 31.795 212.021,31.863 211.951,31.746 210.800 C 31.636 209.714,30.944 209.158,29.592 209.069 C 27.922 208.959,27.883 208.999,29.351 209.318 M67.455 210.791 C 67.551 211.723,68.277 212.449,69.209 212.545 C 70.363 212.663,70.429 212.597,69.449 212.305 C 68.706 212.083,67.917 211.294,67.695 210.551 C 67.403 209.571,67.337 209.637,67.455 210.791 M396.840 212.400 C 396.714 213.720,396.662 215.097,396.725 215.459 C 396.788 215.822,396.489 215.902,396.060 215.637 C 395.631 215.372,394.907 215.853,394.451 216.705 C 393.795 217.930,393.873 218.218,394.819 218.080 C 396.947 217.767,397.716 216.278,397.389 213.105 C 397.107 210.369,397.042 210.285,396.840 212.400 M71.224 215.346 C 71.200 216.689,74.097 218.170,74.994 217.273 C 75.254 217.013,74.885 216.800,74.173 216.800 C 73.462 216.800,72.513 216.170,72.064 215.400 C 71.320 214.123,71.247 214.118,71.224 215.346 M257.400 217.114 C 255.623 218.463,255.581 220.800,257.333 220.800 C 258.067 220.800,258.444 220.577,258.171 220.305 C 257.899 220.032,258.199 219.287,258.838 218.648 C 261.115 216.371,259.978 215.157,257.400 217.114 M307.200 217.559 C 307.200 217.976,306.300 219.289,305.200 220.476 C 303.859 221.923,303.242 223.451,303.328 225.117 L 303.456 227.600 303.779 225.003 C 304.021 223.052,304.587 222.283,306.050 221.916 C 307.766 221.485,309.185 216.800,307.600 216.800 C 307.380 216.800,307.200 217.141,307.200 217.559 M34.646 218.761 C 35.285 219.399,36.047 221.199,36.340 222.761 C 36.650 224.413,37.342 225.600,37.996 225.600 C 38.615 225.600,39.526 226.230,40.021 227.000 C 40.861 228.307,40.890 228.303,40.460 226.935 C 40.207 226.129,40.000 224.983,40.000 224.388 C 40.000 223.794,39.305 223.087,38.456 222.818 C 37.589 222.543,36.683 221.290,36.392 219.964 C 36.100 218.634,35.351 217.600,34.679 217.600 C 33.636 217.600,33.632 217.746,34.646 218.761 M112.893 221.702 C 112.842 222.419,111.990 223.570,111.000 224.260 L 109.200 225.516 111.025 225.558 C 113.014 225.604,113.949 224.118,113.360 221.847 C 113.057 220.676,112.968 220.649,112.893 221.702 M155.082 222.190 C 153.597 222.523,152.563 225.359,153.675 226.046 C 154.074 226.293,154.400 225.951,154.400 225.287 C 154.400 224.623,155.027 223.729,155.793 223.300 C 157.408 222.396,157.001 221.760,155.082 222.190 M300.022 231.573 C 298.362 233.574,299.499 234.102,301.371 232.200 C 302.512 231.041,302.761 230.400,302.069 230.400 C 301.479 230.400,300.558 230.928,300.022 231.573 M71.637 234.082 C 71.340 235.667,71.300 237.167,71.548 237.415 C 71.797 237.663,72.000 237.166,72.000 236.310 C 72.000 235.454,72.720 234.234,73.600 233.600 C 75.611 232.151,75.646 231.200,73.689 231.200 C 72.587 231.200,72.032 231.981,71.637 234.082 M391.400 233.597 C 389.654 235.013,388.778 238.202,390.413 237.192 C 390.860 236.916,390.971 236.264,390.659 235.745 C 390.348 235.225,390.722 235.311,391.492 235.935 C 392.261 236.560,392.813 236.740,392.718 236.335 C 392.623 235.931,392.828 234.954,393.172 234.165 C 394.068 232.111,393.470 231.919,391.400 233.597 M47.052 234.898 C 47.630 235.156,48.431 236.230,48.832 237.284 C 49.233 238.338,50.019 239.194,50.580 239.188 C 51.305 239.179,51.338 239.006,50.693 238.588 C 50.193 238.264,49.649 237.284,49.483 236.409 C 49.317 235.534,48.466 234.731,47.591 234.623 C 46.716 234.516,46.473 234.640,47.052 234.898 M249.833 234.899 C 250.107 235.174,249.537 236.062,248.566 236.873 C 246.626 238.492,247.220 238.874,249.653 237.572 C 251.336 236.671,251.775 234.400,250.267 234.400 C 249.753 234.400,249.558 234.625,249.833 234.899 M53.598 240.398 C 55.674 242.900,57.631 243.470,57.328 241.485 C 57.137 240.233,56.396 239.627,54.793 239.412 C 52.789 239.144,52.651 239.257,53.598 240.398 M153.176 240.674 C 153.505 242.386,155.986 245.600,156.978 245.600 C 158.207 245.600,157.559 244.125,155.237 241.640 C 153.388 239.660,152.940 239.450,153.176 240.674 M244.600 242.129 C 243.337 242.794,242.400 243.958,242.400 244.863 C 242.400 245.809,241.599 246.744,240.400 247.200 C 239.185 247.662,238.400 248.590,238.400 249.563 C 238.400 250.974,238.635 251.059,240.363 250.271 C 241.442 249.779,242.294 249.157,242.256 248.889 C 241.933 246.630,243.620 243.268,245.287 242.850 C 246.339 242.586,247.200 242.016,247.200 241.585 C 247.200 241.153,247.110 240.838,247.000 240.885 C 246.890 240.932,245.810 241.491,244.600 242.129 M105.600 244.123 C 105.600 245.917,106.910 246.713,107.722 245.413 C 108.883 243.555,108.658 242.510,107.121 242.626 C 106.257 242.691,105.600 243.338,105.600 244.123 M388.604 244.400 C 388.394 245.500,388.532 246.400,388.911 246.400 C 389.290 246.400,389.600 245.500,389.600 244.400 C 389.600 243.300,389.462 242.400,389.293 242.400 C 389.125 242.400,388.814 243.300,388.604 244.400 M63.343 245.532 C 64.613 247.566,65.531 247.694,65.254 245.800 C 65.141 245.030,64.431 244.279,63.675 244.132 C 62.474 243.897,62.432 244.073,63.343 245.532 M68.008 245.191 C 67.209 246.153,67.260 246.473,68.272 246.861 C 69.837 247.462,71.200 246.667,71.200 245.153 C 71.200 243.649,69.268 243.672,68.008 245.191 M386.742 248.468 C 385.894 249.156,385.740 249.485,386.400 249.200 C 387.060 248.915,386.901 249.248,386.047 249.941 C 384.715 251.021,384.683 251.200,385.819 251.200 C 386.548 251.200,387.546 250.449,388.037 249.531 C 389.205 247.349,388.666 246.906,386.742 248.468 M157.600 252.960 C 157.600 253.540,158.341 254.478,159.248 255.044 C 160.761 255.989,160.826 255.943,160.043 254.481 C 158.951 252.439,157.600 251.599,157.600 252.960 M233.946 255.400 C 232.308 257.270,231.262 258.260,231.621 257.600 C 232.021 256.867,231.576 257.014,230.476 257.980 C 229.460 258.872,229.063 259.688,229.565 259.855 C 231.151 260.384,232.807 259.286,233.611 257.172 C 234.043 256.035,234.717 255.301,235.108 255.543 C 235.499 255.785,236.264 255.446,236.807 254.791 C 237.351 254.136,237.482 253.594,237.098 253.588 C 236.714 253.581,236.940 253.227,237.600 252.800 C 238.294 252.351,238.405 252.019,237.862 252.012 C 237.347 252.006,235.584 253.530,233.946 255.400 M287.578 253.624 C 285.621 255.787,286.830 256.726,288.903 254.653 C 289.827 253.728,290.219 252.782,289.788 252.516 C 289.362 252.253,288.368 252.751,287.578 253.624 M104.986 256.800 C 104.986 258.340,105.150 258.970,105.351 258.200 C 105.553 257.430,105.553 256.170,105.351 255.400 C 105.150 254.630,104.986 255.260,104.986 256.800 M161.612 258.200 C 161.603 259.541,162.059 259.997,163.400 259.988 C 164.726 259.979,164.912 259.793,164.106 259.282 C 163.504 258.901,162.699 258.096,162.318 257.494 C 161.807 256.688,161.621 256.874,161.612 258.200 M381.800 259.800 C 380.593 260.202,380.479 262.107,381.620 262.812 C 382.071 263.091,382.341 262.958,382.220 262.516 C 382.099 262.074,382.678 261.208,383.506 260.590 C 385.002 259.474,384.072 259.043,381.800 259.800 M102.333 261.667 C 101.417 262.583,100.846 263.513,101.065 263.731 C 101.779 264.445,104.800 262.375,104.800 261.172 C 104.800 259.595,104.306 259.694,102.333 261.667 M165.612 261.353 C 165.605 262.317,165.984 263.343,166.453 263.633 C 167.763 264.443,167.835 263.796,166.678 261.600 C 165.667 259.682,165.623 259.672,165.612 261.353 M225.720 260.760 C 226.064 261.791,227.161 261.977,227.260 261.020 C 227.293 260.701,226.888 260.296,226.360 260.120 C 225.832 259.944,225.544 260.232,225.720 260.760 M169.400 264.530 C 169.950 264.752,170.400 265.422,170.400 266.019 C 170.400 267.378,170.911 267.677,174.400 268.360 L 177.200 268.908 174.800 267.598 C 173.481 266.877,172.113 265.773,171.761 265.144 C 171.409 264.515,170.508 264.028,169.760 264.063 C 168.927 264.102,168.787 264.283,169.400 264.530 M278.067 266.115 C 277.367 267.939,277.761 267.984,279.400 266.267 C 280.466 265.150,280.534 264.800,279.686 264.800 C 279.073 264.800,278.344 265.392,278.067 266.115 M377.736 269.855 C 375.577 272.154,375.553 272.734,377.628 272.578 C 378.608 272.504,379.442 271.713,379.724 270.590 C 380.386 267.951,379.747 267.715,377.736 269.855 M180.800 269.872 C 180.800 270.782,183.916 272.800,185.322 272.800 C 185.997 272.800,182.091 268.830,181.400 268.814 C 181.070 268.806,180.800 269.282,180.800 269.872 M206.984 269.808 C 206.704 270.538,205.288 271.477,203.838 271.895 L 201.200 272.656 203.702 272.728 C 206.313 272.803,208.387 271.162,207.822 269.467 C 207.604 268.813,207.322 268.927,206.984 269.808 M274.600 269.330 C 274.050 269.552,273.600 270.438,273.600 271.298 C 273.600 272.597,273.790 272.687,274.716 271.832 C 275.330 271.264,275.685 270.557,275.506 270.261 C 275.327 269.964,275.815 269.556,276.590 269.353 C 277.525 269.110,277.596 268.976,276.800 268.956 C 276.140 268.940,275.150 269.108,274.600 269.330 M269.325 275.365 C 268.675 277.851,269.171 277.978,270.253 275.603 C 270.755 274.502,270.855 273.600,270.476 273.600 C 270.097 273.600,269.579 274.394,269.325 275.365 M98.600 278.900 C 96.380 281.411,96.373 281.590,98.508 281.179 C 100.742 280.749,100.980 280.453,100.665 278.501 C 100.412 276.937,100.321 276.954,98.600 278.900 M375.198 277.200 C 375.095 277.640,375.062 278.297,375.125 278.659 C 375.188 279.022,374.889 279.102,374.460 278.837 C 374.031 278.572,373.290 279.085,372.812 279.978 C 372.130 281.252,372.186 281.600,373.074 281.600 C 374.705 281.600,376.194 279.514,375.759 277.838 C 375.554 277.047,375.301 276.760,375.198 277.200 M147.800 278.576 C 148.790 279.054,149.600 279.771,149.600 280.169 C 149.600 280.568,149.906 280.705,150.281 280.474 C 150.655 280.242,151.433 281.481,152.009 283.227 C 152.688 285.286,153.538 286.400,154.430 286.400 C 155.796 286.400,158.182 288.611,157.800 289.523 C 157.573 290.063,159.285 290.261,160.206 289.801 C 160.983 289.413,158.798 287.200,157.637 287.200 C 157.155 287.200,156.418 286.300,156.000 285.200 C 155.582 284.100,154.906 283.200,154.499 283.200 C 154.091 283.200,153.015 281.940,152.106 280.400 C 150.826 278.231,149.952 277.612,148.227 277.654 C 146.047 277.707,146.038 277.727,147.800 278.576 M265.076 278.835 C 264.382 280.643,265.005 280.738,266.600 279.067 C 267.785 277.826,267.811 277.600,266.775 277.600 C 266.101 277.600,265.337 278.156,265.076 278.835 M371.200 284.346 C 371.200 284.976,370.493 285.717,369.628 285.991 C 368.591 286.320,367.880 287.496,367.539 289.445 C 367.254 291.070,366.453 292.850,365.758 293.400 C 364.614 294.305,364.621 294.400,365.832 294.400 C 366.603 294.400,367.389 293.525,367.688 292.333 C 367.974 291.196,369.061 289.412,370.104 288.369 C 371.744 286.729,372.765 283.200,371.600 283.200 C 371.380 283.200,371.200 283.716,371.200 284.346 M136.828 287.947 C 135.353 290.703,135.942 291.533,138.000 289.600 C 139.100 288.567,140.000 287.424,140.000 287.061 C 140.000 285.767,137.642 286.426,136.828 287.947 M252.533 286.933 C 252.240 287.227,252.011 288.217,252.024 289.133 C 252.047 290.687,252.106 290.702,252.893 289.349 C 253.357 288.551,254.516 287.584,255.468 287.200 C 257.123 286.532,257.108 286.499,255.133 286.451 C 253.997 286.423,252.827 286.640,252.533 286.933 M162.200 291.395 C 163.190 291.862,164.000 292.549,164.000 292.922 C 164.000 293.295,164.373 293.600,164.828 293.600 C 166.563 293.600,164.087 290.748,162.266 290.648 L 160.400 290.546 162.200 291.395 M246.598 290.965 C 244.750 291.321,242.668 294.135,243.579 295.045 C 243.858 295.325,244.337 295.192,244.643 294.749 C 244.950 294.307,246.239 293.147,247.508 292.172 C 248.777 291.198,249.497 290.449,249.108 290.509 C 248.719 290.569,247.589 290.774,246.598 290.965 M96.063 295.872 C 96.028 296.461,95.282 297.541,94.405 298.272 C 93.339 299.159,93.040 299.961,93.505 300.685 C 93.989 301.442,94.366 301.503,94.747 300.885 C 95.048 300.398,94.873 300.000,94.359 300.000 C 93.844 300.000,94.234 299.343,95.225 298.541 C 96.228 297.729,96.827 296.575,96.577 295.941 C 96.228 295.059,96.112 295.043,96.063 295.872 M171.316 297.170 C 172.854 298.779,173.251 298.907,173.479 297.866 C 173.773 296.521,172.335 295.233,170.516 295.212 C 169.825 295.204,170.116 295.915,171.316 297.170 M235.360 296.160 C 234.832 296.688,234.424 297.678,234.454 298.360 C 234.491 299.193,234.787 299.022,235.359 297.838 C 235.827 296.870,236.793 295.921,237.505 295.731 C 238.611 295.436,238.619 295.372,237.560 295.293 C 236.878 295.242,235.888 295.632,235.360 296.160 M180.489 299.912 C 181.418 300.327,182.396 301.236,182.664 301.933 C 183.146 303.190,185.611 303.752,185.588 302.600 C 185.557 301.082,184.093 299.988,181.560 299.591 C 179.398 299.251,179.166 299.321,180.489 299.912 M220.122 300.694 C 218.108 302.441,217.941 303.200,219.572 303.200 C 220.216 303.200,221.116 302.505,221.570 301.656 C 222.025 300.807,223.207 299.956,224.198 299.765 C 225.834 299.450,225.808 299.408,223.922 299.309 C 222.780 299.249,221.070 299.872,220.122 300.694 M362.400 300.573 C 362.400 301.035,361.590 301.660,360.600 301.961 C 359.388 302.329,359.152 302.651,359.879 302.947 C 361.110 303.448,363.792 301.125,362.952 300.286 C 362.649 299.982,362.400 300.111,362.400 300.573 M133.911 303.984 C 132.225 304.665,130.700 308.000,132.075 308.000 C 132.474 308.000,132.800 307.504,132.800 306.898 C 132.800 306.291,133.610 305.230,134.600 304.540 C 136.614 303.134,136.414 302.973,133.911 303.984 M91.274 314.041 C 90.693 316.008,89.903 317.813,89.518 318.051 C 89.133 318.288,89.055 317.865,89.345 317.110 C 89.703 316.179,89.571 315.924,88.936 316.316 C 87.866 316.977,87.653 320.000,88.676 320.000 C 89.491 320.000,91.887 317.449,91.882 316.587 C 91.880 316.249,92.120 314.874,92.415 313.529 C 93.255 309.706,92.447 310.068,91.274 314.041 M352.244 313.133 C 352.330 313.610,351.950 313.910,351.400 313.800 C 350.850 313.690,350.400 313.960,350.400 314.400 C 350.400 315.504,352.275 315.405,353.440 314.240 C 354.720 312.960,354.651 312.267,353.244 312.267 C 352.609 312.267,352.159 312.657,352.244 313.133 M127.978 322.442 C 127.494 323.345,127.260 324.695,127.457 325.442 C 127.762 326.601,127.828 326.579,127.907 325.294 C 127.958 324.465,128.775 323.115,129.722 322.294 C 131.106 321.094,131.190 320.800,130.151 320.800 C 129.439 320.800,128.461 321.539,127.978 322.442 M332.863 334.560 C 332.828 335.308,332.170 336.287,331.400 336.736 C 330.073 337.509,330.075 337.553,331.425 337.576 C 332.985 337.602,333.989 335.845,333.339 334.226 C 333.073 333.566,332.904 333.685,332.863 334.560 M6.646 335.510 C 6.731 336.340,7.628 337.325,8.641 337.699 C 9.814 338.132,10.304 338.092,9.993 337.589 C 9.725 337.155,9.013 336.800,8.411 336.800 C 7.810 336.800,7.132 336.170,6.905 335.400 C 6.553 334.208,6.515 334.225,6.646 335.510 M124.655 338.600 C 123.325 339.663,122.046 343.513,123.275 342.754 C 123.674 342.507,124.000 341.831,124.000 341.250 C 124.000 340.670,124.810 339.630,125.800 338.940 C 126.790 338.249,127.219 337.665,126.753 337.642 C 126.287 337.619,125.343 338.050,124.655 338.600 M15.600 345.600 C 15.872 346.040,16.883 346.375,17.847 346.344 C 19.537 346.290,19.543 346.263,18.000 345.600 C 15.798 344.654,15.015 344.654,15.600 345.600 M118.886 352.465 C 118.619 353.161,118.423 354.511,118.451 355.465 C 118.499 357.124,118.535 357.116,119.272 355.273 C 119.696 354.212,120.663 352.874,121.421 352.298 C 122.694 351.332,122.668 351.249,121.086 351.225 C 120.143 351.211,119.153 351.769,118.886 352.465 M314.200 353.114 C 313.430 353.698,312.800 354.395,312.800 354.663 C 312.800 355.564,315.072 354.287,315.513 353.138 C 316.040 351.765,315.978 351.764,314.200 353.114 M27.400 354.728 C 28.170 355.305,28.800 356.325,28.800 356.995 C 28.800 358.380,31.758 359.439,32.459 358.305 C 32.712 357.895,32.455 357.659,31.889 357.780 C 31.322 357.901,30.500 357.212,30.061 356.249 C 29.622 355.286,28.529 354.314,27.631 354.089 C 26.122 353.710,26.105 353.758,27.400 354.728 M309.478 356.645 C 308.806 357.605,308.055 358.188,307.808 357.942 C 307.562 357.695,307.123 357.878,306.833 358.347 C 306.020 359.662,309.264 359.369,310.378 358.027 C 310.913 357.382,311.205 356.414,311.026 355.877 C 310.820 355.260,310.251 355.543,309.478 356.645 M34.442 360.079 C 35.390 361.850,36.800 362.098,36.800 360.493 C 36.800 359.885,36.086 359.200,35.214 358.972 C 33.865 358.619,33.749 358.784,34.442 360.079 M302.954 360.287 C 302.710 360.922,302.936 361.380,303.455 361.304 C 304.653 361.128,305.169 359.723,304.159 359.386 C 303.740 359.247,303.198 359.652,302.954 360.287 M116.234 361.591 C 116.005 362.466,115.499 362.985,115.109 362.744 C 114.719 362.503,114.400 362.911,114.400 363.650 C 114.400 365.424,117.859 363.321,118.259 361.304 C 118.632 359.424,116.731 359.693,116.234 361.591 M40.800 364.149 C 40.800 364.839,41.340 365.852,42.000 366.400 C 43.527 367.667,43.511 366.479,41.975 364.447 C 41.034 363.204,40.800 363.145,40.800 364.149 M298.400 363.810 C 298.400 365.323,295.965 367.200,294.000 367.200 C 291.965 367.200,289.325 369.308,289.998 370.396 C 290.224 370.763,289.958 371.246,289.405 371.469 C 288.653 371.772,288.644 371.890,289.372 371.937 C 289.906 371.972,290.722 371.293,291.185 370.428 C 291.648 369.564,293.431 368.436,295.148 367.921 C 297.950 367.082,299.970 364.504,298.768 363.302 C 298.566 363.099,298.400 363.328,298.400 363.810 M46.446 368.455 C 46.960 369.075,47.756 369.351,48.214 369.068 C 48.684 368.777,48.809 368.938,48.501 369.436 C 48.201 369.922,48.683 370.709,49.572 371.185 C 51.082 371.993,51.128 371.916,50.266 370.025 C 49.758 368.911,49.131 367.972,48.872 367.939 C 48.612 367.905,47.750 367.754,46.955 367.603 C 45.794 367.382,45.694 367.550,46.446 368.455 M110.933 369.333 C 109.822 370.444,110.331 373.053,111.474 372.105 C 112.064 371.615,112.842 371.481,113.202 371.807 C 113.562 372.133,113.598 371.950,113.281 371.400 C 112.965 370.850,113.087 370.400,113.553 370.400 C 114.019 370.400,114.400 370.040,114.400 369.600 C 114.400 368.706,111.763 368.503,110.933 369.333 M54.400 372.453 C 54.400 373.737,56.204 376.000,57.228 376.000 C 58.741 376.000,58.705 375.574,57.022 373.609 C 55.704 372.069,54.400 371.494,54.400 372.453 M109.600 374.872 C 109.600 375.571,108.911 376.741,108.070 377.472 C 107.228 378.202,106.281 379.700,105.967 380.800 C 105.449 382.608,105.633 382.532,107.884 380.000 C 109.992 377.630,111.324 373.600,110.000 373.600 C 109.780 373.600,109.600 374.172,109.600 374.872 M62.412 376.883 C 62.437 379.118,63.877 380.183,67.416 380.582 C 70.229 380.899,71.221 381.411,71.897 382.894 C 72.449 384.106,73.428 384.790,74.583 384.772 L 76.400 384.743 74.653 383.772 C 73.692 383.237,72.912 382.480,72.921 382.089 C 72.946 380.958,70.989 380.026,68.562 380.012 C 67.180 380.005,65.573 379.190,64.362 377.883 C 63.171 376.599,62.405 376.206,62.412 376.883 M268.533 380.533 C 268.240 380.827,268.006 381.457,268.012 381.933 C 268.020 382.509,268.222 382.492,268.612 381.881 C 268.936 381.375,270.100 380.794,271.200 380.590 L 273.200 380.218 271.133 380.109 C 269.997 380.049,268.827 380.240,268.533 380.533 M82.835 382.290 C 82.533 383.242,81.439 384.036,80.162 384.231 L 78.000 384.560 80.172 384.680 C 82.193 384.792,84.810 382.143,83.738 381.071 C 83.522 380.856,83.116 381.404,82.835 382.290 M103.400 385.365 C 102.084 385.618,101.600 386.270,101.600 387.789 C 101.600 389.758,102.760 389.706,102.836 387.733 C 102.856 387.220,103.272 386.879,103.760 386.975 C 104.249 387.071,104.851 386.621,105.099 385.975 C 105.347 385.329,105.471 384.849,105.375 384.909 C 105.279 384.969,104.390 385.174,103.400 385.365 M257.513 386.311 C 256.461 387.164,255.880 388.143,256.222 388.487 C 256.564 388.830,257.624 388.331,258.578 387.378 C 260.828 385.127,259.999 384.296,257.513 386.311 M101.625 391.385 C 101.610 392.201,102.409 392.973,103.571 393.264 C 104.656 393.536,105.747 394.404,105.997 395.191 C 106.247 395.979,107.324 396.790,108.391 396.994 C 110.069 397.315,110.224 397.166,109.542 395.891 C 108.730 394.374,104.000 391.507,104.000 392.532 C 104.000 392.848,103.471 392.407,102.825 391.553 C 101.774 390.163,101.648 390.145,101.625 391.385 M245.600 390.987 C 245.600 391.457,244.250 392.200,242.600 392.638 L 239.600 393.435 242.625 393.517 C 245.490 393.596,247.441 391.975,246.099 390.632 C 245.824 390.358,245.600 390.518,245.600 390.987 M232.492 395.649 C 232.200 396.408,231.482 396.772,230.793 396.508 C 230.137 396.256,229.600 396.399,229.600 396.825 C 229.600 397.251,230.096 397.600,230.702 397.600 C 231.945 397.600,234.050 395.384,233.413 394.746 C 233.184 394.518,232.770 394.924,232.492 395.649 M124.000 398.800 C 124.000 399.467,124.711 400.000,125.600 400.000 C 126.489 400.000,127.200 399.467,127.200 398.800 C 127.200 398.133,126.489 397.600,125.600 397.600 C 124.711 397.600,124.000 398.133,124.000 398.800 M213.600 398.800 C 213.600 399.460,214.140 400.000,214.800 400.000 C 215.460 400.000,216.000 399.460,216.000 398.800 C 216.000 398.140,215.460 397.600,214.800 397.600 C 214.140 397.600,213.600 398.140,213.600 398.800 " stroke="none" fill="#bf0000" fill-rule="evenodd"></path><path id="path3" d="M15.200 1.200 C 15.200 1.872,14.487 2.400,13.580 2.400 C 12.447 2.400,11.826 3.071,11.513 4.635 C 11.212 6.138,10.534 6.910,9.443 6.992 C 8.550 7.059,7.661 7.273,7.467 7.467 C 7.273 7.661,7.059 8.550,6.992 9.443 C 6.910 10.534,6.138 11.212,4.635 11.513 C 3.071 11.826,2.400 12.447,2.400 13.580 C 2.400 14.487,1.872 15.200,1.200 15.200 C 0.137 15.200,0.000 33.156,0.000 172.000 C 0.000 305.416,0.166 328.800,1.113 328.800 C 1.726 328.800,2.442 329.657,2.705 330.704 C 2.967 331.752,3.933 332.805,4.851 333.045 C 5.768 333.285,6.706 334.197,6.935 335.073 C 7.164 335.948,8.217 336.882,9.276 337.147 C 10.490 337.452,11.200 338.209,11.200 339.200 C 11.200 340.207,11.917 340.949,13.200 341.271 C 14.443 341.583,15.200 342.341,15.200 343.271 C 15.200 344.164,15.938 344.955,17.023 345.227 C 18.026 345.479,19.313 346.737,19.882 348.023 C 20.451 349.309,21.161 350.327,21.458 350.286 C 23.155 350.050,24.070 350.632,25.102 352.600 C 25.736 353.810,26.467 354.710,26.727 354.600 C 28.110 354.015,29.309 354.594,30.040 356.200 C 30.490 357.190,31.295 357.910,31.829 357.800 C 32.363 357.690,32.800 357.960,32.800 358.400 C 32.800 358.840,33.070 359.157,33.400 359.105 C 35.570 358.763,36.800 359.383,36.800 360.820 C 36.800 361.966,37.476 362.575,39.109 362.902 C 40.378 363.156,41.847 364.167,42.372 365.148 C 42.898 366.130,43.749 366.972,44.264 367.020 C 44.779 367.067,45.920 367.280,46.800 367.492 C 47.680 367.704,48.612 367.905,48.872 367.939 C 49.131 367.972,49.716 368.818,50.171 369.817 C 50.709 370.997,51.799 371.701,53.279 371.823 C 54.541 371.928,56.325 372.902,57.273 374.006 C 58.215 375.103,59.803 376.000,60.801 376.000 C 61.800 376.000,63.451 376.900,64.470 378.000 C 65.490 379.100,67.211 380.000,68.296 380.000 C 70.912 380.000,72.893 380.802,72.369 381.650 C 71.887 382.430,75.891 384.580,77.400 384.352 C 77.950 384.268,79.256 384.155,80.303 384.100 C 82.093 384.006,84.325 380.718,83.949 378.730 C 83.349 375.560,84.144 336.795,84.800 337.200 C 85.240 337.472,85.600 337.292,85.600 336.800 C 85.600 336.308,85.919 336.103,86.309 336.344 C 87.378 337.005,87.704 334.823,87.914 325.600 C 88.022 320.856,88.481 316.852,88.970 316.400 C 89.575 315.841,89.687 316.022,89.343 317.000 C 88.412 319.645,89.579 318.398,90.840 315.400 C 91.534 313.750,92.264 309.520,92.462 306.000 C 92.756 300.768,93.125 299.347,94.485 298.212 C 95.905 297.027,96.208 295.648,96.563 288.757 C 96.926 281.720,97.220 280.429,98.861 278.659 C 99.896 277.542,100.713 276.397,100.677 276.114 C 99.923 270.254,100.992 262.945,102.856 261.218 C 104.995 259.236,104.913 259.759,105.529 244.200 C 105.579 242.939,106.093 242.400,107.247 242.400 C 108.153 242.400,108.687 242.065,108.434 241.655 C 108.181 241.246,108.275 240.725,108.642 240.497 C 109.010 240.270,109.392 236.735,109.490 232.642 C 109.650 226.026,109.866 225.050,111.435 223.847 C 113.016 222.635,113.228 221.634,113.473 214.247 C 113.665 208.425,114.092 205.612,114.925 204.679 C 115.828 203.668,115.876 203.218,115.129 202.756 C 114.464 202.345,114.359 202.487,114.800 203.200 C 115.199 203.846,115.133 204.053,114.627 203.741 C 114.176 203.462,113.636 200.277,113.427 196.664 C 113.103 191.063,112.792 189.925,111.323 188.949 C 109.335 187.629,108.526 150.400,110.486 150.400 C 110.973 150.400,111.157 149.841,110.895 149.158 C 110.633 148.476,110.684 148.078,111.009 148.274 C 112.157 148.969,113.255 146.757,113.497 143.259 C 113.678 140.649,114.252 139.318,115.679 138.195 C 116.744 137.357,117.411 136.341,117.160 135.936 C 116.910 135.531,117.125 135.200,117.638 135.200 C 118.151 135.200,118.365 134.663,118.113 134.006 C 117.676 132.866,120.373 129.600,121.751 129.600 C 122.108 129.600,122.357 129.330,122.305 129.000 C 121.995 127.034,122.531 125.479,123.404 125.814 C 124.661 126.296,126.232 124.697,125.794 123.383 C 125.501 122.504,126.532 122.042,128.200 122.305 C 128.530 122.357,128.800 121.980,128.800 121.467 C 128.800 120.953,129.038 120.771,129.329 121.062 C 129.619 121.353,130.260 120.783,130.752 119.795 C 131.244 118.808,132.177 118.000,132.824 118.000 C 134.106 118.000,135.392 117.164,137.434 115.000 C 139.787 112.507,159.532 112.942,161.224 115.524 C 161.917 116.582,163.365 117.669,164.442 117.939 C 165.519 118.209,166.400 118.922,166.400 119.523 C 166.400 120.124,167.266 121.183,168.324 121.877 C 169.583 122.702,170.433 124.228,170.782 126.291 C 171.148 128.457,171.797 129.569,172.857 129.847 C 174.315 130.228,174.400 131.118,174.400 146.032 L 174.400 161.814 172.370 163.558 C 170.497 165.168,170.335 165.839,170.282 172.251 C 170.232 178.364,170.053 179.200,168.798 179.200 C 167.019 179.200,166.627 180.213,165.957 186.546 C 165.626 189.667,164.938 191.982,164.158 192.600 C 163.463 193.150,163.233 193.606,163.647 193.612 C 164.061 193.619,163.901 193.941,163.290 194.327 C 162.606 194.761,161.977 197.247,161.651 200.809 C 161.326 204.353,160.672 206.943,159.960 207.509 C 157.683 209.320,156.800 212.055,156.800 217.301 C 156.800 221.447,156.491 222.850,155.400 223.646 C 152.786 225.556,152.883 239.356,155.529 242.002 C 157.078 243.551,157.484 244.583,157.118 246.041 C 156.414 248.845,157.236 251.210,159.991 254.308 C 161.316 255.798,162.400 257.336,162.400 257.726 C 162.400 258.115,163.225 258.810,164.233 259.269 C 165.241 259.729,166.411 260.889,166.833 261.848 C 167.255 262.806,168.320 263.722,169.200 263.882 C 170.080 264.042,171.465 264.876,172.277 265.735 C 174.174 267.743,176.994 268.800,180.452 268.800 C 182.128 268.800,183.200 269.193,183.200 269.808 C 183.200 273.742,205.421 273.883,206.927 269.958 C 207.238 269.148,208.652 268.800,211.638 268.800 C 213.985 268.800,216.132 268.434,216.408 267.987 C 216.684 267.540,217.243 267.379,217.649 267.630 C 218.054 267.881,219.306 267.167,220.430 266.043 C 222.306 264.166,223.403 263.653,225.000 263.905 C 225.330 263.957,225.557 263.730,225.505 263.400 C 225.188 261.391,225.778 260.000,226.948 260.000 C 227.690 260.000,229.188 259.190,230.277 258.200 C 231.367 257.210,231.983 256.940,231.648 257.600 C 231.312 258.260,232.003 257.627,233.183 256.192 C 234.363 254.758,235.634 253.774,236.009 254.005 C 236.383 254.237,236.950 254.005,237.268 253.489 C 237.652 252.868,237.469 252.749,236.724 253.136 C 236.106 253.456,236.230 253.202,237.000 252.571 C 237.770 251.940,238.400 250.644,238.400 249.692 C 238.400 248.581,239.117 247.688,240.400 247.200 C 241.599 246.744,242.400 245.809,242.400 244.863 C 242.400 243.932,243.300 242.857,244.600 242.236 C 245.837 241.645,246.911 240.404,247.055 239.400 C 247.195 238.418,248.003 237.129,248.850 236.535 C 249.697 235.942,250.152 235.219,249.862 234.928 C 249.571 234.638,249.714 234.400,250.180 234.400 C 250.646 234.400,251.271 233.426,251.570 232.236 C 251.868 231.045,252.792 229.596,253.623 229.014 C 254.461 228.427,254.932 227.432,254.681 226.778 C 254.432 226.130,254.551 225.600,254.945 225.600 C 255.339 225.600,255.716 223.925,255.783 221.877 C 255.900 218.278,257.110 216.403,258.685 217.376 C 259.104 217.635,259.190 217.432,258.876 216.924 C 258.562 216.416,258.622 216.000,259.010 216.000 C 259.397 216.000,259.800 214.118,259.905 211.818 C 260.010 209.517,260.465 207.407,260.916 207.128 C 261.367 206.849,261.706 206.391,261.668 206.111 C 261.631 205.830,261.870 205.593,262.200 205.585 C 263.267 205.558,264.111 201.354,264.385 194.710 C 264.619 189.019,264.902 187.971,266.684 186.188 L 268.717 184.156 268.706 152.791 L 268.694 121.426 266.774 119.646 C 265.299 118.279,264.766 116.794,264.478 113.252 C 264.113 108.768,262.200 105.135,260.693 106.066 C 260.312 106.302,260.000 105.059,260.000 103.304 C 260.000 100.294,258.462 97.600,256.743 97.600 C 256.334 97.600,256.000 96.758,256.000 95.728 C 256.000 94.508,255.304 93.540,254.000 92.946 C 252.900 92.444,251.955 91.667,251.900 91.217 C 251.845 90.768,251.710 90.040,251.600 89.600 C 251.490 89.160,251.355 88.269,251.300 87.621 C 251.245 86.972,250.197 85.923,248.972 85.289 C 247.746 84.655,246.252 83.218,245.651 82.096 C 245.050 80.973,244.255 80.243,243.883 80.472 C 243.511 80.702,242.783 79.959,242.264 78.822 C 241.590 77.342,240.337 76.505,237.861 75.882 C 235.339 75.246,234.400 74.608,234.400 73.528 C 234.400 72.552,233.579 71.833,231.996 71.423 C 230.674 71.080,229.684 70.537,229.796 70.215 C 230.182 69.108,226.358 67.083,223.614 66.942 C 221.692 66.843,220.580 66.270,219.917 65.037 C 219.136 63.584,218.007 63.179,213.485 62.734 C 210.024 62.393,208.000 61.836,208.000 61.225 C 208.000 59.275,203.830 58.400,194.532 58.400 C 186.718 58.400,184.611 58.131,182.000 56.800 C 178.338 54.933,166.627 54.493,164.960 56.160 C 164.432 56.688,164.000 56.799,164.000 56.407 C 164.000 56.015,163.550 56.292,163.000 57.022 C 162.171 58.122,160.296 58.369,152.063 58.464 C 141.784 58.583,138.044 59.290,137.289 61.256 C 137.016 61.968,135.707 62.402,133.825 62.404 C 129.978 62.410,125.029 63.771,124.222 65.045 C 123.880 65.585,121.809 66.492,119.619 67.059 C 115.734 68.066,114.105 69.275,114.900 70.562 C 115.117 70.913,114.235 71.200,112.939 71.200 C 111.361 71.200,110.184 71.810,109.372 73.049 C 108.706 74.066,106.726 75.328,104.972 75.854 C 102.954 76.458,101.631 77.395,101.367 78.405 C 101.119 79.352,100.275 80.000,99.290 80.000 C 98.197 80.000,97.463 80.668,97.140 81.954 C 96.841 83.144,95.975 84.005,94.925 84.154 C 93.715 84.327,93.124 85.057,92.947 86.600 C 92.748 88.328,92.276 88.800,90.747 88.800 C 89.204 88.800,88.800 89.215,88.800 90.800 C 88.800 92.376,88.394 92.800,86.887 92.800 C 85.506 92.800,84.832 93.365,84.465 94.827 C 84.185 95.942,83.066 97.260,81.978 97.756 C 80.890 98.251,80.000 99.234,80.000 99.939 C 80.000 100.644,79.190 101.576,78.200 102.010 C 76.970 102.550,76.180 103.849,75.704 106.115 C 75.207 108.484,74.442 109.688,73.026 110.334 C 71.864 110.863,71.216 111.689,71.461 112.327 C 71.691 112.926,71.346 114.178,70.693 115.110 C 70.041 116.041,69.764 117.218,70.077 117.725 C 70.408 118.260,70.298 118.431,69.814 118.132 C 68.366 117.238,66.995 119.881,67.066 123.429 C 67.122 126.224,66.812 126.990,65.369 127.624 C 63.427 128.478,62.642 131.060,62.495 137.072 C 62.422 140.051,61.985 141.279,60.600 142.400 C 56.733 145.529,57.691 193.600,61.621 193.600 C 62.049 193.600,62.400 194.455,62.400 195.500 C 62.400 199.715,63.454 202.550,65.340 203.409 C 66.392 203.889,67.175 204.848,67.079 205.540 C 66.752 207.904,68.125 212.000,69.243 212.000 C 69.857 212.000,70.917 213.080,71.600 214.400 C 72.283 215.720,73.372 216.800,74.021 216.800 C 76.303 216.800,75.799 231.693,73.448 233.732 C 72.234 234.785,71.715 236.548,71.321 240.962 L 70.800 246.800 67.811 247.048 C 65.471 247.242,64.378 246.851,62.775 245.248 C 61.649 244.121,59.871 243.200,58.825 243.200 C 57.779 243.200,55.853 242.300,54.546 241.200 C 53.239 240.100,51.582 239.200,50.865 239.200 C 50.147 239.200,49.230 238.331,48.826 237.268 C 48.422 236.206,47.390 235.114,46.532 234.842 C 45.675 234.570,44.781 233.612,44.546 232.714 C 44.311 231.816,43.442 230.904,42.615 230.688 C 41.788 230.472,40.712 229.238,40.225 227.947 C 39.738 226.656,38.810 225.600,38.164 225.600 C 37.443 225.600,36.646 224.233,36.097 222.055 C 35.503 219.697,34.668 218.339,33.602 218.001 C 32.528 217.660,31.996 216.785,31.989 215.346 C 31.971 211.725,31.087 209.600,29.600 209.600 C 28.449 209.600,28.082 208.622,27.622 204.329 C 27.243 200.789,26.558 198.558,25.538 197.538 C 24.102 196.102,23.189 187.706,22.957 173.800 C 22.933 172.370,22.611 171.200,22.241 171.200 C 21.871 171.200,21.733 170.293,21.934 169.184 C 22.135 168.075,21.971 167.371,21.568 167.620 C 21.153 167.876,20.865 165.972,20.904 163.230 C 20.941 160.567,21.299 158.186,21.699 157.939 C 22.099 157.692,22.219 157.154,21.966 156.745 C 21.713 156.335,21.893 156.000,22.365 156.000 C 22.838 156.000,23.171 155.010,23.105 153.800 C 22.646 145.382,24.314 131.583,25.946 130.299 C 27.197 129.316,27.689 127.954,27.811 125.137 C 27.936 122.286,28.491 120.775,29.989 119.211 C 31.616 117.514,32.000 116.309,32.000 112.909 C 32.000 110.597,32.312 108.898,32.693 109.134 C 33.967 109.921,36.155 106.536,36.236 103.651 C 36.310 101.064,36.747 100.426,38.056 101.000 C 38.742 101.301,40.304 98.268,40.623 96.020 C 40.955 93.673,42.207 91.982,43.432 92.226 C 43.916 92.322,44.515 91.320,44.763 90.000 C 45.012 88.680,45.662 87.555,46.208 87.500 C 46.754 87.445,47.620 87.355,48.133 87.300 C 48.647 87.245,48.841 86.974,48.565 86.699 C 47.955 86.088,50.179 81.600,51.092 81.600 C 51.707 81.600,53.820 77.894,53.943 76.600 C 53.974 76.270,54.232 76.090,54.516 76.200 C 55.313 76.509,58.410 73.464,57.990 72.784 C 57.627 72.196,59.973 69.803,60.523 70.200 C 61.137 70.643,62.394 70.361,62.305 69.800 C 61.932 67.437,62.571 66.400,64.400 66.400 C 66.000 66.400,66.400 66.000,66.400 64.400 C 66.400 63.257,66.862 62.400,67.477 62.400 C 69.463 62.400,73.600 59.896,73.600 58.694 C 73.600 58.040,73.892 57.686,74.250 57.907 C 75.116 58.442,79.359 55.626,78.692 54.959 C 78.136 54.403,79.737 53.614,82.138 53.262 C 82.942 53.144,83.645 52.632,83.700 52.124 C 83.755 51.616,83.845 50.883,83.900 50.495 C 83.955 50.107,85.577 49.393,87.503 48.908 C 89.775 48.336,91.144 47.501,91.397 46.535 C 91.656 45.541,92.794 44.881,94.808 44.554 C 96.470 44.284,98.588 43.360,99.515 42.500 C 100.442 41.641,102.460 40.744,104.000 40.507 C 105.561 40.268,107.459 39.264,108.289 38.239 C 109.358 36.919,110.708 36.362,113.073 36.264 C 115.519 36.164,116.784 35.615,117.984 34.133 C 119.411 32.372,120.303 32.113,125.600 31.926 C 130.504 31.752,131.965 31.386,133.600 29.919 C 135.425 28.281,136.613 28.089,147.178 27.727 C 154.469 27.477,158.864 27.007,159.047 26.460 C 159.206 25.981,159.675 25.799,160.088 26.054 C 160.501 26.310,160.741 26.042,160.620 25.459 C 160.444 24.611,163.843 24.357,177.660 24.185 C 195.889 23.958,194.856 23.806,198.722 27.270 C 198.765 27.308,203.120 27.502,208.400 27.701 C 217.137 28.030,218.122 28.222,219.354 29.831 C 220.861 31.799,220.725 31.761,226.672 31.900 C 230.407 31.987,231.058 32.252,231.857 34.005 C 232.359 35.108,233.047 35.952,233.385 35.881 C 236.073 35.318,242.486 37.212,243.588 38.894 C 244.271 39.937,245.093 40.750,245.415 40.700 C 248.813 40.179,251.306 40.974,252.000 42.800 C 252.544 44.231,253.357 44.800,254.855 44.800 C 256.243 44.800,257.084 45.315,257.349 46.326 C 257.756 47.885,259.787 48.770,263.000 48.789 C 263.990 48.795,264.845 49.160,264.900 49.600 C 264.955 50.040,265.090 50.760,265.200 51.200 C 265.310 51.640,265.445 52.360,265.500 52.800 C 265.555 53.240,265.870 53.557,266.200 53.505 C 268.296 53.174,269.521 53.829,269.744 55.400 C 269.885 56.390,270.450 57.245,271.000 57.300 C 271.550 57.355,272.368 57.445,272.817 57.500 C 273.267 57.555,274.039 58.489,274.534 59.575 C 275.029 60.661,275.695 61.388,276.014 61.191 C 276.334 60.994,277.541 61.975,278.697 63.370 C 279.854 64.766,280.800 65.633,280.800 65.297 C 280.800 64.961,281.340 65.226,282.000 65.886 C 282.660 66.546,283.200 67.430,283.200 67.851 C 283.200 68.272,284.100 69.206,285.200 69.926 C 286.300 70.647,287.200 71.744,287.200 72.365 C 287.200 72.985,287.919 73.720,288.798 73.999 C 289.677 74.278,290.613 75.370,290.878 76.425 C 291.142 77.480,292.018 78.552,292.824 78.808 C 293.630 79.063,294.523 80.340,294.810 81.645 C 295.100 82.968,296.168 84.456,297.223 85.009 C 298.263 85.554,299.091 86.279,299.061 86.619 C 298.927 88.175,300.026 92.002,300.581 91.912 C 302.513 91.596,303.103 92.388,303.594 95.953 C 304.039 99.190,304.451 99.951,305.869 100.153 C 307.323 100.361,307.639 101.006,307.843 104.185 C 308.022 106.964,308.540 108.288,309.793 109.165 C 310.732 109.823,311.561 110.820,311.635 111.381 C 311.708 111.941,312.015 114.870,312.316 117.888 C 312.766 122.410,314.900 127.518,315.309 125.057 C 316.005 120.881,316.640 140.278,316.494 161.224 C 316.312 187.174,316.277 187.691,314.521 190.065 C 313.190 191.866,312.623 194.003,312.300 198.441 C 311.633 207.615,311.565 208.040,310.757 208.074 C 309.219 208.138,308.056 211.736,308.028 216.513 C 308.002 221.004,307.837 221.467,306.105 221.902 C 304.529 222.298,304.119 223.054,303.678 226.379 C 303.321 229.072,302.502 231.025,301.174 232.353 C 299.959 233.568,299.200 235.244,299.200 236.710 C 299.200 238.323,298.723 239.243,297.723 239.561 C 296.149 240.060,293.866 245.690,294.695 247.029 C 294.966 247.469,294.291 248.055,293.194 248.330 C 291.923 248.649,291.200 249.395,291.200 250.387 C 291.200 251.244,290.120 253.174,288.800 254.678 C 287.480 256.181,286.400 257.936,286.400 258.577 C 286.400 259.218,285.500 260.153,284.400 260.654 C 283.300 261.156,282.400 262.236,282.400 263.054 C 282.400 263.873,281.531 264.939,280.469 265.423 C 279.408 265.907,278.303 267.044,278.015 267.951 C 277.728 268.858,276.916 269.600,276.213 269.600 C 275.509 269.600,275.144 269.810,275.401 270.068 C 276.060 270.727,273.460 273.600,272.205 273.600 C 271.633 273.600,270.759 274.493,270.261 275.585 C 269.764 276.676,268.724 277.770,267.950 278.016 C 267.176 278.261,265.963 279.348,265.253 280.431 C 264.544 281.514,263.276 282.400,262.437 282.400 C 261.478 282.400,260.816 283.051,260.656 284.153 C 260.473 285.404,259.599 286.102,257.600 286.593 C 256.060 286.972,254.250 287.924,253.578 288.709 C 252.906 289.494,251.466 290.365,250.378 290.644 C 249.290 290.922,247.406 292.080,246.190 293.216 C 244.975 294.353,243.587 295.039,243.105 294.741 C 241.753 293.906,236.083 296.078,235.594 297.619 C 235.248 298.709,233.901 299.073,229.068 299.383 C 224.017 299.707,222.753 300.071,221.664 301.515 C 219.624 304.219,184.401 304.253,182.364 301.552 C 181.451 300.342,179.904 299.713,177.134 299.427 C 174.970 299.203,172.840 298.584,172.400 298.050 C 170.851 296.172,167.199 294.229,166.047 294.671 C 165.352 294.938,164.693 294.525,164.414 293.645 C 163.990 292.309,159.974 290.032,158.000 290.009 C 157.560 290.004,157.194 289.640,157.188 289.200 C 157.165 287.700,155.908 286.400,154.481 286.400 C 153.530 286.400,152.708 285.344,152.009 283.227 C 151.433 281.481,150.655 280.242,150.281 280.474 C 149.906 280.705,149.600 280.557,149.600 280.144 C 149.600 278.885,145.043 277.416,143.059 278.035 C 140.530 278.825,140.027 279.803,140.012 283.956 C 140.003 286.661,139.515 288.019,137.975 289.626 C 136.247 291.429,135.899 292.655,135.610 297.956 C 135.373 302.303,134.902 304.447,134.044 305.086 C 132.698 306.089,131.200 312.793,131.200 317.815 C 131.200 320.080,130.704 321.443,129.498 322.489 C 128.070 323.727,127.736 325.094,127.427 330.982 C 127.165 335.985,126.708 338.274,125.838 338.955 C 123.690 340.636,122.400 344.072,122.400 348.117 C 122.400 350.790,122.033 352.191,121.256 352.489 C 119.883 353.016,118.400 356.968,118.400 360.101 C 118.400 361.631,117.753 362.787,116.400 363.674 C 114.919 364.644,114.400 365.686,114.400 367.692 C 114.400 369.181,114.019 370.400,113.553 370.400 C 113.087 370.400,112.965 370.850,113.281 371.400 C 113.598 371.950,113.562 372.133,113.202 371.807 C 112.119 370.826,110.400 372.851,110.400 375.106 C 110.400 376.270,109.468 378.222,108.322 379.457 C 107.179 380.690,105.903 382.931,105.487 384.438 C 105.071 385.944,104.423 387.092,104.046 386.989 C 103.669 386.885,103.293 387.160,103.212 387.600 C 103.131 388.040,102.764 388.761,102.398 389.202 C 102.026 389.650,102.233 390.689,102.866 391.555 C 103.490 392.408,104.000 392.848,104.000 392.532 C 104.000 391.550,108.678 394.324,109.501 395.794 C 110.390 397.384,109.978 397.316,119.800 397.478 C 125.790 397.577,127.200 397.829,127.200 398.800 C 127.200 399.852,132.533 400.000,170.400 400.000 C 208.267 400.000,213.600 399.852,213.600 398.800 C 213.600 397.729,223.592 396.890,228.600 397.540 C 229.150 397.612,229.600 397.306,229.600 396.860 C 229.600 396.415,230.112 396.247,230.739 396.487 C 231.391 396.737,232.257 396.214,232.767 395.262 C 233.383 394.110,234.446 393.599,236.228 393.596 C 239.657 393.590,244.949 392.076,245.975 390.808 C 246.429 390.247,248.240 389.604,250.000 389.379 C 254.690 388.781,255.223 388.577,257.267 386.600 C 258.468 385.438,260.109 384.800,261.898 384.800 C 265.722 384.800,267.202 384.099,268.041 381.891 C 268.696 380.170,270.319 379.643,274.400 379.829 C 275.002 379.856,276.472 378.110,276.613 377.200 C 276.681 376.760,277.561 376.292,278.568 376.161 C 279.576 376.029,280.940 375.700,281.600 375.430 C 282.260 375.159,283.160 374.891,283.600 374.833 C 284.040 374.775,284.314 374.306,284.209 373.792 C 284.105 373.277,285.465 372.467,287.234 371.991 C 289.002 371.515,290.254 370.811,290.017 370.427 C 289.328 369.313,291.937 367.200,294.000 367.200 C 295.810 367.200,297.958 365.700,298.529 364.037 C 298.678 363.602,299.700 363.110,300.800 362.943 C 301.900 362.777,302.845 362.226,302.900 361.720 C 302.955 361.214,303.045 360.440,303.100 360.000 C 303.155 359.560,303.899 359.200,304.753 359.200 C 305.607 359.200,306.532 358.834,306.808 358.387 C 307.084 357.940,307.646 357.781,308.055 358.034 C 308.465 358.287,308.800 358.130,308.800 357.686 C 308.800 357.241,310.427 355.757,312.416 354.389 C 314.406 353.020,315.824 351.563,315.569 351.150 C 315.166 350.498,316.826 350.030,318.586 350.301 C 318.908 350.350,319.390 349.523,319.656 348.464 C 319.935 347.352,321.125 346.128,322.470 345.571 C 323.797 345.022,324.800 343.999,324.800 343.196 C 324.800 342.421,325.547 341.591,326.459 341.353 C 327.372 341.114,328.303 340.216,328.527 339.357 C 328.752 338.498,329.805 337.399,330.868 336.915 C 331.931 336.430,332.800 335.530,332.800 334.914 C 332.800 334.298,333.867 333.352,335.172 332.812 C 336.476 332.271,337.513 331.598,337.477 331.315 C 337.254 329.583,337.796 328.800,339.220 328.800 C 340.378 328.800,340.976 328.119,341.317 326.413 C 341.580 325.100,342.078 324.201,342.425 324.416 C 343.743 325.230,345.439 323.805,345.901 321.496 C 346.170 320.152,346.741 319.316,347.197 319.598 C 348.061 320.132,350.504 318.132,350.320 317.043 C 350.002 315.172,350.518 313.624,351.400 313.800 C 351.950 313.910,352.301 313.523,352.180 312.941 C 352.059 312.358,352.332 312.111,352.787 312.392 C 353.742 312.982,355.175 309.687,354.609 308.200 C 354.279 307.332,355.841 306.796,357.800 307.105 C 358.130 307.157,358.400 306.840,358.400 306.400 C 358.400 303.881,359.744 301.600,361.228 301.600 C 361.873 301.600,362.445 301.240,362.500 300.800 C 362.555 300.360,362.690 299.640,362.800 299.200 C 362.910 298.760,363.045 297.558,363.100 296.528 C 363.160 295.400,363.949 294.316,365.087 293.797 C 366.444 293.179,367.118 292.035,367.488 289.722 C 367.819 287.648,368.507 286.347,369.425 286.056 C 370.208 285.807,371.394 284.073,372.061 282.202 C 372.742 280.290,373.721 278.896,374.296 279.020 C 374.859 279.141,375.106 278.896,374.846 278.475 C 374.587 278.055,374.740 277.484,375.187 277.208 C 375.634 276.932,376.000 275.530,376.000 274.092 C 376.000 272.362,376.654 270.864,377.936 269.660 C 379.234 268.441,380.049 266.550,380.411 263.921 C 380.707 261.764,381.276 259.955,381.675 259.900 C 382.074 259.845,382.825 259.755,383.344 259.700 C 383.896 259.642,384.424 257.787,384.616 255.235 C 384.825 252.463,385.429 250.471,386.272 249.776 C 387.245 248.974,387.279 248.820,386.400 249.200 C 385.740 249.485,385.899 249.152,386.753 248.459 C 388.470 247.067,388.631 246.519,389.354 239.625 C 389.709 236.236,390.318 234.475,391.454 233.555 C 392.777 232.484,393.115 231.030,393.409 225.130 C 393.757 218.170,394.644 214.762,395.907 215.542 C 396.978 216.205,397.015 215.059,397.289 172.368 L 397.556 130.736 395.698 128.733 C 394.114 127.024,393.778 125.623,393.412 119.206 C 393.046 112.783,392.732 111.480,391.270 110.296 C 389.998 109.266,389.484 107.813,389.273 104.654 C 389.117 102.314,388.946 99.786,388.894 99.036 C 388.842 98.286,387.919 96.792,386.843 95.716 C 385.359 94.231,384.842 92.782,384.702 89.711 C 384.531 85.962,383.437 84.259,381.455 84.655 C 381.156 84.714,380.670 82.840,380.376 80.488 C 380.017 77.613,379.214 75.536,377.921 74.142 C 376.865 73.002,376.000 71.310,376.000 70.382 C 376.000 68.374,374.561 65.434,373.174 64.611 C 372.629 64.287,371.952 62.797,371.671 61.299 C 371.356 59.617,370.602 58.430,369.699 58.194 C 368.705 57.934,368.068 56.748,367.706 54.481 C 367.298 51.928,366.709 50.974,365.187 50.395 C 363.590 49.788,363.200 49.086,363.200 46.820 C 363.200 45.269,362.819 44.000,362.353 44.000 C 361.887 44.000,361.728 43.640,362.000 43.200 C 362.272 42.760,361.946 42.400,361.275 42.400 C 359.994 42.400,358.140 39.726,358.897 38.970 C 359.358 38.509,356.979 37.007,355.600 36.889 C 355.160 36.851,354.756 36.021,354.701 35.044 C 354.647 34.067,354.195 33.132,353.696 32.965 C 353.198 32.799,353.028 32.278,353.319 31.808 C 353.611 31.336,353.474 31.183,353.014 31.468 C 351.971 32.113,350.515 30.419,350.170 28.158 C 349.870 26.195,349.064 25.200,347.772 25.200 C 347.280 25.200,346.167 23.850,345.298 22.200 C 344.429 20.550,343.242 19.200,342.659 19.200 C 342.077 19.200,341.600 18.480,341.600 17.600 C 341.600 16.720,341.086 16.000,340.457 16.000 C 338.945 16.000,336.661 13.672,337.246 12.726 C 337.499 12.316,336.622 11.764,335.297 11.499 C 333.640 11.168,332.811 10.483,332.644 9.309 C 332.496 8.275,331.725 7.504,330.691 7.356 C 329.527 7.190,328.832 6.362,328.511 4.756 C 328.176 3.079,327.573 2.400,326.420 2.400 C 325.513 2.400,324.800 1.872,324.800 1.200 C 324.800 0.137,307.067 0.000,170.000 0.000 C 32.933 0.000,15.200 0.137,15.200 1.200 " stroke="none" fill="#c9242e" fill-rule="evenodd"></path><path id="path4" d="M12.800 1.200 C 12.800 1.860,13.340 2.400,14.000 2.400 C 14.660 2.400,15.200 1.860,15.200 1.200 C 15.200 0.540,14.660 0.000,14.000 0.000 C 13.340 0.000,12.800 0.540,12.800 1.200 M324.800 1.200 C 324.800 1.860,325.340 2.400,326.000 2.400 C 326.660 2.400,327.200 1.860,327.200 1.200 C 327.200 0.540,326.660 0.000,326.000 0.000 C 325.340 0.000,324.800 0.540,324.800 1.200 M0.000 14.000 C 0.000 14.660,0.540 15.200,1.200 15.200 C 1.860 15.200,2.400 14.660,2.400 14.000 C 2.400 13.340,1.860 12.800,1.200 12.800 C 0.540 12.800,0.000 13.340,0.000 14.000 M337.600 14.000 C 337.600 14.660,338.184 15.200,338.898 15.200 C 339.961 15.200,340.016 14.983,339.200 14.000 C 338.652 13.340,338.068 12.800,337.902 12.800 C 337.736 12.800,337.600 13.340,337.600 14.000 M135.200 29.298 C 135.200 30.361,135.417 30.416,136.400 29.600 C 137.060 29.052,137.600 28.468,137.600 28.302 C 137.600 28.136,137.060 28.000,136.400 28.000 C 135.740 28.000,135.200 28.584,135.200 29.298 M84.000 51.600 C 84.000 53.895,84.937 54.149,86.743 52.343 C 88.549 50.537,88.295 49.600,86.000 49.600 C 84.400 49.600,84.000 50.000,84.000 51.600 M161.000 54.130 C 160.450 54.352,160.000 54.907,160.000 55.365 C 160.000 55.891,160.367 55.924,161.000 55.456 C 161.550 55.050,163.260 54.611,164.800 54.482 C 166.340 54.353,167.750 54.102,167.933 53.924 C 168.410 53.461,162.199 53.646,161.000 54.130 M178.400 53.909 C 178.400 54.079,179.480 54.377,180.800 54.571 C 182.120 54.764,183.200 54.625,183.200 54.261 C 183.200 53.898,182.120 53.600,180.800 53.600 C 179.480 53.600,178.400 53.739,178.400 53.909 M208.285 60.518 C 208.194 61.996,208.576 62.400,210.060 62.400 C 212.176 62.400,212.034 60.906,209.785 59.501 C 208.626 58.777,208.381 58.943,208.285 60.518 M63.755 67.733 C 64.280 67.937,64.512 68.620,64.269 69.252 C 63.639 70.894,64.598 70.673,65.511 68.966 C 66.137 67.798,65.956 67.516,64.539 67.447 C 63.583 67.401,63.230 67.530,63.755 67.733 M58.432 73.116 C 58.031 74.170,57.230 75.205,56.652 75.416 C 55.784 75.733,55.785 75.992,56.657 76.900 C 57.553 77.832,57.675 77.825,57.457 76.853 C 57.316 76.223,58.190 75.213,59.400 74.610 C 61.755 73.435,62.398 71.200,60.380 71.200 C 59.709 71.200,58.833 72.062,58.432 73.116 M93.760 80.960 C 93.232 81.488,92.800 82.349,92.800 82.873 C 92.800 83.398,91.900 84.052,90.800 84.329 C 88.991 84.783,87.915 86.400,89.422 86.400 C 91.018 86.400,95.912 82.068,95.975 80.600 C 96.013 79.691,94.838 79.882,93.760 80.960 M85.230 89.648 C 85.485 90.062,85.313 90.400,84.847 90.400 C 84.381 90.400,84.000 90.940,84.000 91.600 C 84.000 92.260,84.420 92.800,84.933 92.800 C 85.447 92.800,85.642 92.575,85.367 92.301 C 85.093 92.026,85.604 91.205,86.505 90.476 L 88.141 89.151 86.453 89.024 C 85.525 88.954,84.974 89.235,85.230 89.648 M32.000 110.898 C 32.000 111.961,32.217 112.016,33.200 111.200 C 33.860 110.652,34.400 110.068,34.400 109.902 C 34.400 109.736,33.860 109.600,33.200 109.600 C 32.540 109.600,32.000 110.184,32.000 110.898 M30.057 120.457 C 29.324 121.190,28.930 121.996,29.181 122.248 C 29.432 122.499,30.238 122.105,30.971 121.371 C 31.705 120.638,32.099 119.832,31.848 119.581 C 31.596 119.330,30.790 119.724,30.057 120.457 M63.567 124.053 C 63.277 124.522,63.232 125.099,63.467 125.333 C 64.040 125.906,65.600 124.897,65.600 123.953 C 65.600 122.930,64.219 122.999,63.567 124.053 M26.229 132.837 C 25.367 133.783,25.164 134.531,25.682 134.851 C 26.680 135.467,26.847 135.302,27.555 133.000 C 28.210 130.867,28.043 130.847,26.229 132.837 M60.200 139.155 C 57.839 141.125,57.916 141.674,60.394 140.525 C 61.490 140.016,62.390 139.150,62.394 138.600 C 62.402 137.338,62.367 137.347,60.200 139.155 M172.223 159.400 C 170.425 161.724,170.462 162.166,172.424 161.791 C 173.692 161.549,174.400 160.874,174.400 159.907 C 174.400 158.179,173.355 157.936,172.223 159.400 M23.386 169.600 C 23.386 171.140,23.550 171.770,23.751 171.000 C 23.953 170.230,23.953 168.970,23.751 168.200 C 23.550 167.430,23.386 168.060,23.386 169.600 M314.091 186.851 C 313.827 187.539,313.309 187.914,312.939 187.686 C 312.569 187.457,312.267 187.766,312.267 188.372 C 312.267 189.562,315.924 187.420,315.975 186.200 C 316.021 185.089,314.576 185.588,314.091 186.851 M63.200 204.359 C 63.200 204.556,64.048 205.633,65.085 206.751 L 66.970 208.785 66.885 206.394 C 66.814 204.387,63.200 202.390,63.200 204.359 M263.636 205.486 C 263.377 206.303,262.363 207.358,261.382 207.831 C 260.281 208.363,260.058 208.708,260.800 208.734 C 261.460 208.757,262.401 208.511,262.892 208.188 C 263.825 207.573,265.203 204.000,264.508 204.000 C 264.288 204.000,263.896 204.669,263.636 205.486 M157.181 206.460 C 156.424 208.844,157.053 209.030,158.133 206.742 C 158.637 205.674,158.748 204.800,158.379 204.800 C 158.010 204.800,157.471 205.547,157.181 206.460 M396.291 217.995 C 396.039 218.653,395.514 218.994,395.125 218.754 C 394.736 218.514,394.632 218.874,394.893 219.554 C 395.480 221.083,396.468 220.555,397.029 218.412 C 397.518 216.542,396.968 216.232,396.291 217.995 M40.800 229.200 C 40.800 229.860,41.384 230.400,42.098 230.400 C 43.161 230.400,43.216 230.183,42.400 229.200 C 41.852 228.540,41.268 228.000,41.102 228.000 C 40.936 228.000,40.800 228.540,40.800 229.200 M49.600 237.114 C 49.600 237.727,50.169 238.447,50.865 238.714 C 53.252 239.630,53.847 239.199,52.400 237.600 C 50.709 235.732,49.600 235.539,49.600 237.114 M244.685 242.990 C 243.962 243.152,243.194 244.205,242.979 245.330 L 242.588 247.375 244.652 245.312 C 246.833 243.131,246.842 242.506,244.685 242.990 M156.893 252.902 C 156.842 253.618,157.340 254.652,158.000 255.200 C 158.829 255.888,159.200 255.918,159.200 255.298 C 159.200 254.804,158.866 254.400,158.459 254.400 C 158.051 254.400,157.553 253.770,157.351 253.000 C 157.043 251.819,156.971 251.804,156.893 252.902 M380.109 268.535 C 380.049 269.489,379.793 270.929,379.540 271.735 C 379.104 273.122,379.128 273.124,379.992 271.777 C 380.494 270.994,380.751 269.554,380.562 268.577 C 380.218 266.802,380.218 266.802,380.109 268.535 M179.493 269.800 C 179.713 271.250,180.787 272.800,181.572 272.800 C 181.945 272.800,181.833 271.903,181.325 270.806 C 180.353 268.710,179.235 268.096,179.493 269.800 M257.760 283.360 C 257.232 283.888,256.806 284.878,256.812 285.560 C 256.822 286.546,256.963 286.581,257.502 285.732 C 257.874 285.144,258.476 284.704,258.839 284.754 C 259.203 284.803,259.580 284.294,259.679 283.622 C 259.894 282.156,259.076 282.044,257.760 283.360 M94.200 299.289 C 92.475 300.263,92.355 302.400,94.025 302.400 C 95.300 302.400,96.353 300.622,95.875 299.276 C 95.698 298.777,95.100 298.781,94.200 299.289 M217.899 300.374 C 217.652 301.019,217.635 302.009,217.861 302.574 C 218.113 303.200,218.298 303.037,218.337 302.153 C 218.372 301.357,218.700 300.891,219.067 301.118 C 219.433 301.344,219.733 301.005,219.733 300.365 C 219.733 298.853,218.481 298.859,217.899 300.374 M337.600 330.098 C 337.600 331.161,337.817 331.216,338.800 330.400 C 339.460 329.852,340.000 329.268,340.000 329.102 C 340.000 328.936,339.460 328.800,338.800 328.800 C 338.140 328.800,337.600 329.384,337.600 330.098 M122.867 338.915 C 122.167 340.739,122.561 340.784,124.200 339.067 C 125.266 337.950,125.334 337.600,124.486 337.600 C 123.873 337.600,123.144 338.192,122.867 338.915 M324.800 342.898 C 324.800 343.961,325.017 344.016,326.000 343.200 C 326.660 342.652,327.200 342.068,327.200 341.902 C 327.200 341.736,326.660 341.600,326.000 341.600 C 325.340 341.600,324.800 342.184,324.800 342.898 M115.139 359.400 C 114.633 361.053,114.688 362.483,115.271 362.844 C 115.672 363.092,116.000 362.583,116.000 361.714 C 116.000 360.845,116.450 359.952,117.000 359.730 C 117.597 359.489,117.436 359.301,116.600 359.263 C 115.830 359.228,115.172 359.290,115.139 359.400 M305.044 360.333 C 305.130 360.810,304.810 361.130,304.333 361.044 C 303.857 360.959,303.467 361.415,303.467 362.059 C 303.467 362.918,303.962 362.763,305.333 361.475 C 307.536 359.405,307.515 359.467,306.044 359.467 C 305.409 359.467,304.959 359.857,305.044 360.333 M109.981 369.660 C 109.224 372.044,109.853 372.230,110.933 369.942 C 111.437 368.874,111.548 368.000,111.179 368.000 C 110.810 368.000,110.271 368.747,109.981 369.660 M45.799 369.796 C 46.254 371.161,47.748 371.409,48.214 370.197 C 48.463 369.547,48.012 369.081,47.061 369.009 C 46.201 368.945,45.633 369.299,45.799 369.796 M53.641 372.800 C 53.621 374.229,54.953 376.514,55.491 375.976 C 55.699 375.768,55.371 374.698,54.763 373.599 C 54.122 372.440,53.650 372.104,53.641 372.800 " stroke="none" fill="#ff0000" fill-rule="evenodd"></path></g></svg>