<svg id="svg" version="1.1" width="500" height="500" xmlns="http://www.w3.org/2000/svg" xmlns:xlink="http://www.w3.org/1999/xlink" style="display: block;"><g id="svgg"><path id="path0" d="M0.000 200.000 L 0.000 400.000 200.000 400.000 L 400.000 400.000 400.000 200.000 L 400.000 0.000 200.000 0.000 L 0.000 0.000 0.000 200.000 M301.481 63.278 C 302.866 63.761,304.000 64.481,304.000 64.878 C 304.000 65.275,305.080 65.600,306.400 65.600 C 307.733 65.600,309.511 66.311,310.400 67.200 C 311.280 68.080,312.569 68.800,313.264 68.800 C 315.024 68.800,323.740 78.057,324.380 80.606 C 324.669 81.759,325.453 83.101,326.121 83.590 C 330.465 86.766,330.540 193.954,326.201 197.161 C 325.576 197.622,324.833 198.900,324.550 200.000 C 323.978 202.217,317.058 210.043,314.216 211.687 C 313.217 212.264,311.500 213.141,310.400 213.636 C 309.300 214.130,307.320 215.135,306.000 215.868 C 303.942 217.010,299.836 217.257,277.200 217.600 L 250.800 218.000 250.400 249.600 C 250.117 271.949,249.721 281.668,249.048 282.800 C 248.525 283.680,247.902 285.300,247.663 286.400 C 247.101 288.997,241.930 294.400,240.007 294.400 C 239.186 294.400,237.928 294.987,237.211 295.703 C 235.042 297.872,229.358 298.075,226.159 296.098 C 224.648 295.164,222.914 294.396,222.306 294.391 C 221.045 294.382,216.000 289.446,216.000 288.223 C 216.000 287.779,215.284 286.506,214.409 285.393 C 212.888 283.460,212.809 281.927,212.609 250.685 L 212.400 218.000 205.200 218.000 L 198.000 218.000 197.600 264.916 C 197.231 308.142,197.090 311.955,195.800 313.379 C 195.030 314.230,194.400 315.479,194.400 316.155 C 194.400 316.831,193.680 318.300,192.800 319.418 C 191.920 320.537,191.200 321.683,191.200 321.966 C 191.200 322.770,185.923 328.000,185.112 328.000 C 184.712 328.000,183.935 328.720,183.386 329.600 C 182.836 330.480,181.905 331.200,181.316 331.200 C 180.727 331.200,179.415 331.920,178.400 332.800 C 177.385 333.680,175.518 334.400,174.249 334.400 C 172.981 334.400,170.983 335.030,169.809 335.800 C 166.226 338.150,115.935 338.354,110.704 336.040 C 108.665 335.138,106.356 334.400,105.572 334.400 C 103.373 334.400,96.000 330.307,96.000 329.086 C 96.000 328.489,95.550 327.996,95.000 327.991 C 93.988 327.983,88.800 323.065,88.800 322.115 C 88.800 321.832,88.080 320.880,87.200 320.000 C 86.320 319.120,85.600 317.680,85.600 316.800 C 85.600 315.920,84.880 314.480,84.000 313.600 C 81.491 311.091,81.491 207.772,84.000 204.582 C 84.880 203.463,85.607 202.064,85.615 201.474 C 85.666 197.645,97.675 185.665,101.512 185.615 C 102.123 185.607,103.084 184.970,103.647 184.200 C 104.601 182.895,108.291 182.785,158.239 182.584 L 211.807 182.367 212.303 179.884 C 212.576 178.518,212.800 158.085,212.800 134.478 C 212.800 99.401,213.001 91.268,213.898 89.978 C 214.502 89.110,215.268 87.140,215.602 85.600 C 215.936 84.060,216.882 81.941,217.704 80.892 C 218.527 79.843,219.200 78.517,219.200 77.946 C 219.200 77.375,219.920 76.679,220.800 76.400 C 221.680 76.121,222.400 75.515,222.400 75.054 C 222.400 74.068,227.984 68.800,229.030 68.800 C 229.425 68.800,230.663 68.080,231.782 67.200 C 232.900 66.320,234.809 65.600,236.022 65.600 C 237.236 65.600,238.425 65.088,238.665 64.462 C 239.462 62.387,295.875 61.324,301.481 63.278 M255.200 101.045 C 250.605 102.612,250.484 103.635,250.540 140.400 C 250.607 184.631,249.275 182.000,271.600 182.000 L 284.400 182.000 288.169 179.200 L 291.938 176.400 291.969 140.600 C 292.008 96.180,293.934 99.969,271.348 100.045 C 263.225 100.073,256.904 100.464,255.200 101.045 M126.000 218.152 C 125.120 218.389,122.960 220.072,121.200 221.892 L 118.000 225.200 117.744 255.200 C 117.465 287.849,117.733 292.586,120.007 295.209 C 120.837 296.165,121.654 297.365,121.824 297.874 C 122.150 298.856,152.206 299.723,155.681 298.851 C 156.714 298.592,158.329 296.851,159.530 294.701 L 161.600 290.998 161.600 258.397 C 161.600 230.394,161.431 225.655,160.400 224.800 C 159.740 224.252,159.200 223.439,159.200 222.994 C 159.200 218.815,136.069 215.441,126.000 218.152 " stroke="none" fill="#ffffff" fill-rule="evenodd"></path><path id="path1" d="M242.063 67.751 C 239.839 67.948,237.269 68.773,236.155 69.649 C 235.071 70.502,233.633 71.200,232.959 71.200 C 231.698 71.200,230.353 72.284,226.578 76.342 C 225.380 77.630,223.779 79.331,223.020 80.121 C 222.262 80.912,221.419 82.442,221.148 83.521 C 220.878 84.600,219.968 86.105,219.128 86.865 C 217.657 88.196,217.600 90.002,217.600 135.279 L 217.600 182.309 215.822 183.555 C 214.259 184.650,207.999 184.800,164.000 184.800 C 122.288 184.800,113.689 184.987,112.349 185.925 C 111.466 186.544,109.068 187.302,107.020 187.609 C 104.972 187.916,102.679 188.850,101.924 189.684 C 101.170 190.518,100.158 191.202,99.676 191.204 C 98.386 191.211,91.200 198.226,91.200 199.479 C 91.200 200.069,90.527 201.161,89.705 201.905 C 88.882 202.649,87.988 204.871,87.718 206.843 C 87.448 208.815,86.681 211.483,86.013 212.774 C 84.221 216.240,84.188 302.095,85.977 305.556 C 86.625 306.808,87.395 309.400,87.689 311.316 C 87.983 313.232,88.893 315.444,89.712 316.231 C 90.530 317.018,91.200 317.956,91.200 318.315 C 91.200 318.986,96.938 324.998,99.758 327.281 C 100.628 327.985,102.388 328.823,103.670 329.143 C 104.951 329.463,106.668 330.327,107.484 331.062 C 110.162 333.477,170.006 333.055,173.127 330.600 C 174.386 329.610,176.087 328.800,176.908 328.800 C 178.377 328.800,179.382 328.047,184.671 322.981 C 193.535 314.490,193.540 314.449,193.574 260.350 L 193.600 217.899 195.844 215.750 C 199.848 211.913,213.887 212.864,216.988 217.182 C 217.311 217.632,217.581 233.058,217.588 251.462 L 217.600 284.923 219.938 287.262 C 221.225 288.548,222.535 289.600,222.850 289.600 C 223.166 289.600,223.884 290.230,224.447 291.000 C 226.121 293.289,236.599 293.001,239.000 290.600 C 239.990 289.610,241.160 288.800,241.600 288.800 C 242.040 288.800,242.400 288.263,242.400 287.607 C 242.400 286.951,243.120 285.964,244.000 285.414 C 245.558 284.441,245.600 283.549,245.600 251.096 C 245.600 219.493,245.679 217.680,247.128 215.889 L 248.656 214.000 275.328 213.498 C 302.723 212.983,304.644 212.793,307.908 210.273 C 308.957 209.463,310.309 208.800,310.912 208.800 C 312.058 208.800,319.200 201.972,319.200 200.877 C 319.200 200.531,319.920 199.596,320.800 198.800 C 321.680 198.004,322.401 196.598,322.403 195.676 C 322.405 194.754,323.125 192.821,324.003 191.381 C 326.497 187.290,326.497 93.510,324.003 89.419 C 323.125 87.979,322.405 86.046,322.403 85.124 C 322.401 84.202,321.680 82.796,320.800 82.000 C 319.920 81.204,319.200 80.200,319.200 79.770 C 319.200 78.305,310.775 71.200,309.037 71.200 C 308.467 71.200,307.190 70.390,306.200 69.400 C 304.434 67.634,257.148 66.418,242.063 67.751 M291.145 98.351 C 297.476 104.003,297.548 104.476,297.563 140.400 C 297.574 166.836,297.376 172.748,296.423 174.400 C 295.788 175.500,294.920 177.162,294.494 178.094 C 294.069 179.026,292.759 180.826,291.583 182.094 L 289.446 184.400 271.723 184.400 C 253.389 184.400,248.800 183.467,248.800 179.738 C 248.800 179.319,248.170 178.516,247.400 177.953 C 246.102 177.003,246.000 174.266,246.000 140.400 C 246.000 106.533,246.102 103.796,247.400 102.847 C 248.170 102.284,248.800 101.530,248.800 101.170 C 248.800 100.811,249.970 99.515,251.400 98.291 L 254.000 96.065 271.256 96.033 L 288.512 96.000 291.145 98.351 M153.144 214.309 C 153.385 214.699,154.779 215.243,156.242 215.518 C 157.779 215.806,160.063 217.214,161.651 218.853 L 164.400 221.689 164.400 258.664 C 164.400 300.346,164.831 297.416,158.019 302.039 C 154.382 304.507,123.599 305.170,122.689 302.800 C 122.436 302.140,121.795 301.600,121.264 301.600 C 115.595 301.600,114.397 294.058,114.412 258.453 C 114.429 220.605,114.817 218.825,123.822 215.259 C 127.924 213.635,152.241 212.848,153.144 214.309 " stroke="none" fill="#31b4e5" fill-rule="evenodd"></path><path id="path2" d="M240.000 66.696 C 231.493 68.556,222.949 75.900,218.294 85.352 L 216.400 89.200 216.000 135.361 C 215.685 171.735,215.380 181.742,214.561 182.561 C 213.738 183.383,202.712 183.685,161.761 184.006 C 104.638 184.455,106.712 184.267,99.042 189.704 C 84.270 200.177,84.008 201.392,84.003 259.305 L 84.000 306.210 86.011 311.552 C 89.361 320.453,94.540 326.374,102.712 330.645 L 107.600 333.200 140.000 333.200 L 172.400 333.200 176.000 331.207 C 194.901 320.746,195.458 318.801,195.779 262.066 C 195.951 231.496,196.296 217.807,196.911 217.066 C 198.244 215.460,211.875 215.602,214.222 217.245 L 216.000 218.491 216.004 249.845 C 216.009 284.528,216.117 285.428,220.829 290.028 L 224.077 293.200 231.058 293.200 C 238.700 293.200,239.938 292.647,244.542 287.179 L 246.800 284.496 247.034 251.289 C 247.191 229.017,247.552 217.739,248.132 217.041 C 248.805 216.230,254.224 215.997,272.698 215.988 C 307.380 215.970,315.864 212.582,324.170 195.431 L 326.800 190.000 326.800 140.400 L 326.800 90.800 324.266 85.600 C 319.437 75.694,311.030 68.535,302.000 66.640 C 295.535 65.284,246.257 65.328,240.000 66.696 M306.200 69.400 C 307.190 70.390,308.467 71.200,309.037 71.200 C 310.775 71.200,319.200 78.305,319.200 79.770 C 319.200 80.200,319.920 81.204,320.800 82.000 C 321.680 82.796,322.401 84.202,322.403 85.124 C 322.405 86.046,323.125 87.979,324.003 89.419 C 326.497 93.510,326.497 187.290,324.003 191.381 C 323.125 192.821,322.405 194.754,322.403 195.676 C 322.401 196.598,321.680 198.004,320.800 198.800 C 319.920 199.596,319.200 200.531,319.200 200.877 C 319.200 201.972,312.058 208.800,310.912 208.800 C 310.309 208.800,308.957 209.463,307.908 210.273 C 304.644 212.793,302.723 212.983,275.328 213.498 L 248.656 214.000 247.128 215.889 C 245.679 217.680,245.600 219.493,245.600 251.096 C 245.600 283.549,245.558 284.441,244.000 285.414 C 243.120 285.964,242.400 286.951,242.400 287.607 C 242.400 288.263,242.040 288.800,241.600 288.800 C 241.160 288.800,239.990 289.610,239.000 290.600 C 236.599 293.001,226.121 293.289,224.447 291.000 C 223.884 290.230,223.166 289.600,222.850 289.600 C 222.535 289.600,221.225 288.548,219.938 287.262 L 217.600 284.923 217.588 251.462 C 217.581 233.058,217.311 217.632,216.988 217.182 C 213.887 212.864,199.848 211.913,195.844 215.750 L 193.600 217.899 193.574 260.350 C 193.540 314.449,193.535 314.490,184.671 322.981 C 179.382 328.047,178.377 328.800,176.908 328.800 C 176.087 328.800,174.386 329.610,173.127 330.600 C 170.006 333.055,110.162 333.477,107.484 331.062 C 106.668 330.327,104.951 329.463,103.670 329.143 C 102.388 328.823,100.628 327.985,99.758 327.281 C 96.938 324.998,91.200 318.986,91.200 318.315 C 91.200 317.956,90.530 317.018,89.712 316.231 C 88.893 315.444,87.983 313.232,87.689 311.316 C 87.395 309.400,86.625 306.808,85.977 305.556 C 84.188 302.095,84.221 216.240,86.013 212.774 C 86.681 211.483,87.448 208.815,87.718 206.843 C 87.988 204.871,88.882 202.649,89.705 201.905 C 90.527 201.161,91.200 200.069,91.200 199.479 C 91.200 198.226,98.386 191.211,99.676 191.204 C 100.158 191.202,101.170 190.518,101.924 189.684 C 102.679 188.850,104.972 187.916,107.020 187.609 C 109.068 187.302,111.466 186.544,112.349 185.925 C 113.689 184.987,122.288 184.800,164.000 184.800 C 207.999 184.800,214.259 184.650,215.822 183.555 L 217.600 182.309 217.600 135.279 C 217.600 90.002,217.657 88.196,219.128 86.865 C 219.968 86.105,220.878 84.600,221.148 83.521 C 221.419 82.442,222.262 80.912,223.020 80.121 C 223.779 79.331,225.380 77.630,226.578 76.342 C 230.353 72.284,231.698 71.200,232.959 71.200 C 233.633 71.200,235.071 70.502,236.155 69.649 C 240.185 66.480,303.056 66.256,306.200 69.400 M251.400 98.291 C 249.970 99.515,248.800 100.811,248.800 101.170 C 248.800 101.530,248.170 102.284,247.400 102.847 C 246.102 103.796,246.000 106.533,246.000 140.400 C 246.000 174.266,246.102 177.003,247.400 177.953 C 248.170 178.516,248.800 179.319,248.800 179.738 C 248.800 183.467,253.389 184.400,271.723 184.400 L 289.446 184.400 291.583 182.094 C 292.759 180.826,294.069 179.026,294.494 178.094 C 294.920 177.162,295.788 175.500,296.423 174.400 C 297.376 172.748,297.574 166.836,297.563 140.400 C 297.548 104.476,297.476 104.003,291.145 98.351 L 288.512 96.000 271.256 96.033 L 254.000 96.065 251.400 98.291 M290.128 99.676 C 294.860 103.490,295.063 105.109,295.136 139.761 C 295.232 185.651,295.954 184.464,268.322 183.872 C 246.463 183.404,247.200 184.933,247.200 140.074 L 247.200 105.840 249.496 102.670 C 253.483 97.166,255.117 96.756,272.128 96.993 L 287.056 97.200 290.128 99.676 M123.822 215.259 C 114.817 218.825,114.429 220.605,114.412 258.453 C 114.397 294.058,115.595 301.600,121.264 301.600 C 121.795 301.600,122.436 302.140,122.689 302.800 C 123.599 305.170,154.382 304.507,158.019 302.039 C 164.831 297.416,164.400 300.346,164.400 258.664 L 164.400 221.689 161.651 218.853 C 160.063 217.214,157.779 215.806,156.242 215.518 C 154.779 215.243,153.385 214.699,153.144 214.309 C 152.241 212.848,127.924 213.635,123.822 215.259 M159.643 219.268 C 163.777 223.405,163.964 225.116,163.946 258.800 C 163.928 293.381,163.730 295.271,159.740 298.928 C 151.889 306.122,123.849 304.791,118.000 296.946 C 116.456 294.875,116.400 293.551,116.400 259.059 C 116.400 212.793,114.674 215.804,140.988 216.176 L 156.777 216.400 159.643 219.268 " stroke="none" fill="#72cff1" fill-rule="evenodd"></path><path id="path3" d="M241.600 65.240 C 240.060 65.828,238.122 66.330,237.294 66.355 C 233.466 66.470,224.402 73.623,220.350 79.727 C 214.146 89.075,214.122 89.292,213.859 138.345 C 213.677 172.408,213.406 182.029,212.613 182.532 C 212.056 182.886,188.616 183.181,160.523 183.188 C 117.901 183.198,109.095 183.388,107.323 184.338 C 106.156 184.964,103.400 186.291,101.200 187.287 C 96.399 189.461,89.584 196.211,87.397 200.960 C 82.873 210.779,83.200 206.247,83.200 259.200 C 83.200 312.019,82.892 307.639,87.281 317.200 C 91.031 325.368,101.351 332.817,110.986 334.312 C 118.175 335.428,161.832 335.475,168.613 334.374 C 180.992 332.365,189.884 324.584,194.837 311.424 L 196.800 306.210 196.800 262.465 C 196.800 212.403,195.996 216.795,205.160 216.812 C 214.520 216.830,213.671 213.604,213.847 249.836 C 213.963 273.947,214.239 281.759,215.000 282.520 C 215.550 283.070,216.000 284.167,216.000 284.958 C 216.000 285.748,217.295 287.829,218.879 289.582 C 226.177 297.660,239.034 296.633,245.571 287.450 L 247.600 284.599 247.833 251.184 L 248.066 217.769 249.833 217.296 C 250.805 217.035,262.400 216.815,275.600 216.806 C 294.588 216.793,300.048 216.556,301.746 215.670 C 302.926 215.055,304.995 214.309,306.344 214.012 C 312.436 212.674,321.164 204.194,325.293 195.600 L 327.600 190.800 327.600 140.400 L 327.600 90.000 325.066 84.800 C 320.425 75.278,312.477 68.314,303.332 65.757 C 297.094 64.012,245.935 63.584,241.600 65.240 M302.000 66.640 C 311.030 68.535,319.437 75.694,324.266 85.600 L 326.800 90.800 326.800 140.400 L 326.800 190.000 324.170 195.431 C 315.864 212.582,307.380 215.970,272.698 215.988 C 254.224 215.997,248.805 216.230,248.132 217.041 C 247.552 217.739,247.191 229.017,247.034 251.289 L 246.800 284.496 244.542 287.179 C 239.938 292.647,238.700 293.200,231.058 293.200 L 224.077 293.200 220.829 290.028 C 216.117 285.428,216.009 284.528,216.004 249.845 L 216.000 218.491 214.222 217.245 C 211.875 215.602,198.244 215.460,196.911 217.066 C 196.296 217.807,195.951 231.496,195.779 262.066 C 195.458 318.801,194.901 320.746,176.000 331.207 L 172.400 333.200 140.000 333.200 L 107.600 333.200 102.712 330.645 C 94.540 326.374,89.361 320.453,86.011 311.552 L 84.000 306.210 84.003 259.305 C 84.008 201.392,84.270 200.177,99.042 189.704 C 106.712 184.267,104.638 184.455,161.761 184.006 C 202.712 183.685,213.738 183.383,214.561 182.561 C 215.380 181.742,215.685 171.735,216.000 135.361 L 216.400 89.200 218.294 85.352 C 222.949 75.900,231.493 68.556,240.000 66.696 C 246.257 65.328,295.535 65.284,302.000 66.640 M254.496 98.143 C 253.009 98.889,250.759 100.927,249.496 102.670 L 247.200 105.840 247.200 140.074 C 247.200 184.933,246.463 183.404,268.322 183.872 C 295.954 184.464,295.232 185.651,295.136 139.761 C 295.063 105.109,294.860 103.490,290.128 99.676 L 287.056 97.200 272.128 96.993 C 259.404 96.816,256.801 96.985,254.496 98.143 M288.960 100.398 C 293.895 104.019,293.718 102.358,293.438 142.662 L 293.200 176.924 290.286 179.594 C 286.648 182.928,282.846 183.496,267.021 183.074 C 247.607 182.557,248.000 183.438,248.000 140.453 C 248.000 96.390,247.275 97.704,271.600 97.663 L 285.200 97.640 288.960 100.398 M122.457 217.376 C 116.151 220.649,116.400 218.935,116.400 259.059 C 116.400 293.551,116.456 294.875,118.000 296.946 C 123.849 304.791,151.889 306.122,159.740 298.928 C 163.730 295.271,163.928 293.381,163.946 258.800 C 163.964 225.116,163.777 223.405,159.643 219.268 L 156.777 216.400 140.988 216.176 C 127.133 215.980,124.864 216.127,122.457 217.376 M159.188 220.493 C 163.281 224.883,163.375 225.921,163.060 262.860 L 162.800 293.320 160.883 296.117 C 157.731 300.713,155.733 301.200,140.000 301.200 C 124.459 301.200,122.230 300.704,119.113 296.550 L 117.200 294.000 116.952 262.000 C 116.667 225.200,116.748 224.188,120.251 220.480 C 123.742 216.784,123.301 216.859,140.659 217.039 L 156.118 217.200 159.188 220.493 " stroke="none" fill="#9fddf3" fill-rule="evenodd"></path><path id="path4" d="M240.951 62.971 C 239.934 63.165,238.906 63.836,238.665 64.462 C 238.425 65.088,237.236 65.600,236.022 65.600 C 234.809 65.600,232.900 66.320,231.782 67.200 C 230.663 68.080,229.425 68.800,229.030 68.800 C 227.984 68.800,222.400 74.068,222.400 75.054 C 222.400 75.515,221.680 76.121,220.800 76.400 C 219.920 76.679,219.200 77.375,219.200 77.946 C 219.200 78.517,218.527 79.843,217.704 80.892 C 216.882 81.941,215.936 84.060,215.602 85.600 C 215.268 87.140,214.502 89.110,213.898 89.978 C 213.001 91.268,212.800 99.401,212.800 134.478 C 212.800 158.085,212.576 178.518,212.303 179.884 L 211.807 182.367 158.239 182.584 C 108.291 182.785,104.601 182.895,103.647 184.200 C 103.084 184.970,102.123 185.607,101.512 185.615 C 97.675 185.665,85.666 197.645,85.615 201.474 C 85.607 202.064,84.880 203.463,84.000 204.582 C 81.491 207.772,81.491 311.091,84.000 313.600 C 84.880 314.480,85.600 315.920,85.600 316.800 C 85.600 317.680,86.320 319.120,87.200 320.000 C 88.080 320.880,88.800 321.832,88.800 322.115 C 88.800 323.065,93.988 327.983,95.000 327.991 C 95.550 327.996,96.000 328.489,96.000 329.086 C 96.000 330.307,103.373 334.400,105.572 334.400 C 106.356 334.400,108.665 335.138,110.704 336.040 C 115.935 338.354,166.226 338.150,169.809 335.800 C 170.983 335.030,172.981 334.400,174.249 334.400 C 175.518 334.400,177.385 333.680,178.400 332.800 C 179.415 331.920,180.727 331.200,181.316 331.200 C 181.905 331.200,182.836 330.480,183.386 329.600 C 183.935 328.720,184.712 328.000,185.112 328.000 C 185.923 328.000,191.200 322.770,191.200 321.966 C 191.200 321.683,191.920 320.537,192.800 319.418 C 193.680 318.300,194.400 316.831,194.400 316.155 C 194.400 315.479,195.030 314.230,195.800 313.379 C 197.090 311.955,197.231 308.142,197.600 264.916 L 198.000 218.000 205.200 218.000 L 212.400 218.000 212.609 250.685 C 212.809 281.927,212.888 283.460,214.409 285.393 C 215.284 286.506,216.000 287.779,216.000 288.223 C 216.000 289.446,221.045 294.382,222.306 294.391 C 222.914 294.396,224.648 295.164,226.159 296.098 C 229.358 298.075,235.042 297.872,237.211 295.703 C 237.928 294.987,239.186 294.400,240.007 294.400 C 241.930 294.400,247.101 288.997,247.663 286.400 C 247.902 285.300,248.525 283.680,249.048 282.800 C 249.721 281.668,250.117 271.949,250.400 249.600 L 250.800 218.000 277.200 217.600 C 299.836 217.257,303.942 217.010,306.000 215.868 C 307.320 215.135,309.300 214.130,310.400 213.636 C 311.500 213.141,313.217 212.264,314.216 211.687 C 317.058 210.043,323.978 202.217,324.550 200.000 C 324.833 198.900,325.576 197.622,326.201 197.161 C 330.540 193.954,330.465 86.766,326.121 83.590 C 325.453 83.101,324.669 81.759,324.380 80.606 C 323.740 78.057,315.024 68.800,313.264 68.800 C 312.569 68.800,311.280 68.080,310.400 67.200 C 309.511 66.311,307.733 65.600,306.400 65.600 C 305.080 65.600,304.000 65.275,304.000 64.878 C 304.000 62.729,250.666 61.116,240.951 62.971 M303.332 65.757 C 312.477 68.314,320.425 75.278,325.066 84.800 L 327.600 90.000 327.600 140.400 L 327.600 190.800 325.293 195.600 C 321.164 204.194,312.436 212.674,306.344 214.012 C 304.995 214.309,302.926 215.055,301.746 215.670 C 300.048 216.556,294.588 216.793,275.600 216.806 C 262.400 216.815,250.805 217.035,249.833 217.296 L 248.066 217.769 247.833 251.184 L 247.600 284.599 245.571 287.450 C 239.034 296.633,226.177 297.660,218.879 289.582 C 217.295 287.829,216.000 285.748,216.000 284.958 C 216.000 284.167,215.550 283.070,215.000 282.520 C 214.239 281.759,213.963 273.947,213.847 249.836 C 213.671 213.604,214.520 216.830,205.160 216.812 C 195.996 216.795,196.800 212.403,196.800 262.465 L 196.800 306.210 194.837 311.424 C 189.884 324.584,180.992 332.365,168.613 334.374 C 161.832 335.475,118.175 335.428,110.986 334.312 C 101.351 332.817,91.031 325.368,87.281 317.200 C 82.892 307.639,83.200 312.019,83.200 259.200 C 83.200 206.247,82.873 210.779,87.397 200.960 C 89.584 196.211,96.399 189.461,101.200 187.287 C 103.400 186.291,106.156 184.964,107.323 184.338 C 109.095 183.388,117.901 183.198,160.523 183.188 C 188.616 183.181,212.056 182.886,212.613 182.532 C 213.406 182.029,213.677 172.408,213.859 138.345 C 214.122 89.292,214.146 89.075,220.350 79.727 C 224.402 73.623,233.466 66.470,237.294 66.355 C 238.122 66.330,240.060 65.828,241.600 65.240 C 245.935 63.584,297.094 64.012,303.332 65.757 M254.676 99.443 C 248.054 102.943,248.000 103.276,248.000 140.453 C 248.000 183.438,247.607 182.557,267.021 183.074 C 282.846 183.496,286.648 182.928,290.286 179.594 L 293.200 176.924 293.438 142.662 C 293.718 102.358,293.895 104.019,288.960 100.398 L 285.200 97.640 271.600 97.663 C 259.163 97.684,257.716 97.836,254.676 99.443 M286.716 100.768 C 292.267 102.878,292.003 100.883,291.969 140.600 L 291.938 176.400 288.169 179.200 L 284.400 182.000 271.600 182.000 C 249.275 182.000,250.607 184.631,250.540 140.400 C 250.484 103.635,250.605 102.612,255.200 101.045 C 258.614 99.881,283.800 99.659,286.716 100.768 M124.000 217.330 C 117.069 219.938,116.647 222.611,116.952 262.000 L 117.200 294.000 119.113 296.550 C 122.230 300.704,124.459 301.200,140.000 301.200 C 155.733 301.200,157.731 300.713,160.883 296.117 L 162.800 293.320 163.060 262.860 C 163.375 225.921,163.281 224.883,159.188 220.493 L 156.118 217.200 140.659 217.039 C 132.157 216.951,124.660 217.081,124.000 217.330 M157.000 220.092 C 158.210 221.242,159.200 222.548,159.200 222.994 C 159.200 223.439,159.740 224.252,160.400 224.800 C 161.431 225.655,161.600 230.394,161.600 258.397 L 161.600 290.998 159.530 294.701 C 158.329 296.851,156.714 298.592,155.681 298.851 C 152.206 299.723,122.150 298.856,121.824 297.874 C 121.654 297.365,120.837 296.165,120.007 295.209 C 117.733 292.586,117.465 287.849,117.744 255.200 L 118.000 225.200 121.200 221.892 C 125.292 217.661,125.118 217.696,141.200 217.861 C 154.686 217.999,154.818 218.018,157.000 220.092 " stroke="none" fill="#d2eff9" fill-rule="evenodd"></path></g></svg>